<svg width="202" height="129" viewBox="0 0 202 129" fill="none" xmlns="http://www.w3.org/2000/svg">
<rect x="0.5" y="0.5" width="201" height="128" rx="8.5" fill="#F8F2FF"/>
<rect x="0.5" y="0.5" width="201" height="128" rx="8.5" stroke="#331436"/>
<g clip-path="url(#clip0_6_404)">
<g clip-path="url(#clip1_6_404)">
<rect x="11" y="15.5" width="30" height="15" rx="7.5" fill="#FCF4B6"/>
<path d="M21.6758 25.0283V26H18.1064V25.0283H21.6758ZM18.4482 18.8906V26H17.2227V18.8906H18.4482ZM22.2812 23.417V23.3047C22.2812 22.9238 22.3366 22.5706 22.4473 22.2451C22.5579 21.9163 22.7174 21.6315 22.9258 21.3906C23.1374 21.1465 23.3945 20.9577 23.6973 20.8242C24.0033 20.6875 24.3483 20.6191 24.7324 20.6191C25.1198 20.6191 25.4648 20.6875 25.7676 20.8242C26.0736 20.9577 26.3324 21.1465 26.5439 21.3906C26.7555 21.6315 26.9167 21.9163 27.0273 22.2451C27.138 22.5706 27.1934 22.9238 27.1934 23.3047V23.417C27.1934 23.7979 27.138 24.151 27.0273 24.4766C26.9167 24.8021 26.7555 25.0869 26.5439 25.3311C26.3324 25.5719 26.0752 25.7607 25.7725 25.8975C25.4697 26.0309 25.1263 26.0977 24.7422 26.0977C24.3548 26.0977 24.0081 26.0309 23.7021 25.8975C23.3994 25.7607 23.1423 25.5719 22.9307 25.3311C22.7191 25.0869 22.5579 24.8021 22.4473 24.4766C22.3366 24.151 22.2812 23.7979 22.2812 23.417ZM23.458 23.3047V23.417C23.458 23.6546 23.4824 23.8792 23.5312 24.0908C23.5801 24.3024 23.6566 24.488 23.7607 24.6475C23.8649 24.807 23.9984 24.9323 24.1611 25.0234C24.3239 25.1146 24.5176 25.1602 24.7422 25.1602C24.9603 25.1602 25.1491 25.1146 25.3086 25.0234C25.4714 24.9323 25.6048 24.807 25.709 24.6475C25.8132 24.488 25.8896 24.3024 25.9385 24.0908C25.9906 23.8792 26.0166 23.6546 26.0166 23.417V23.3047C26.0166 23.0703 25.9906 22.849 25.9385 22.6406C25.8896 22.429 25.8115 22.2419 25.7041 22.0791C25.5999 21.9163 25.4665 21.7894 25.3037 21.6982C25.1442 21.6038 24.9538 21.5566 24.7324 21.5566C24.5111 21.5566 24.319 21.6038 24.1562 21.6982C23.9967 21.7894 23.8649 21.9163 23.7607 22.0791C23.6566 22.2419 23.5801 22.429 23.5312 22.6406C23.4824 22.849 23.458 23.0703 23.458 23.3047ZM29.6152 24.8281L30.8359 20.7168H31.5879L31.3828 21.9473L30.1523 26H29.4785L29.6152 24.8281ZM28.8975 20.7168L29.8496 24.8477L29.9277 26H29.1758L27.7451 20.7168H28.8975ZM32.7305 24.7988L33.6533 20.7168H34.8008L33.375 26H32.623L32.7305 24.7988ZM31.7148 20.7168L32.9209 24.7793L33.0723 26H32.3984L31.1533 21.9424L30.9482 20.7168H31.7148Z" fill="#EB9961"/>
</g>
<rect x="11.5" y="16" width="29" height="14" rx="7" stroke="#EB9961"/>
<path d="M148.491 19.8379L146.367 26H145.083L147.759 18.8906H148.579L148.491 19.8379ZM150.269 26L148.14 19.8379L148.047 18.8906H148.872L151.558 26H150.269ZM150.166 23.3633V24.335H146.299V23.3633H150.166ZM153.33 21.7324V28.0312H152.153V20.7168H153.237L153.33 21.7324ZM156.772 23.3096V23.4121C156.772 23.7962 156.727 24.1527 156.636 24.4814C156.548 24.807 156.416 25.0918 156.24 25.3359C156.068 25.5768 155.854 25.764 155.601 25.8975C155.347 26.0309 155.054 26.0977 154.722 26.0977C154.393 26.0977 154.105 26.0374 153.857 25.917C153.613 25.7933 153.407 25.6191 153.237 25.3945C153.068 25.1699 152.931 24.9062 152.827 24.6035C152.726 24.2975 152.655 23.9622 152.612 23.5977V23.2021C152.655 22.8148 152.726 22.4632 152.827 22.1475C152.931 21.8317 153.068 21.5599 153.237 21.332C153.407 21.1042 153.613 20.9284 153.857 20.8047C154.102 20.681 154.386 20.6191 154.712 20.6191C155.044 20.6191 155.339 20.6842 155.596 20.8145C155.853 20.9414 156.069 21.1237 156.245 21.3613C156.421 21.5957 156.553 21.8789 156.641 22.2109C156.729 22.5397 156.772 22.9059 156.772 23.3096ZM155.596 23.4121V23.3096C155.596 23.0654 155.573 22.8392 155.527 22.6309C155.482 22.4193 155.41 22.2337 155.312 22.0742C155.215 21.9147 155.09 21.791 154.937 21.7031C154.787 21.612 154.606 21.5664 154.395 21.5664C154.186 21.5664 154.007 21.6022 153.857 21.6738C153.708 21.7422 153.582 21.8382 153.481 21.9619C153.381 22.0856 153.302 22.2305 153.247 22.3965C153.192 22.5592 153.153 22.7367 153.13 22.9287V23.876C153.169 24.1104 153.236 24.3252 153.33 24.5205C153.424 24.7158 153.558 24.8721 153.73 24.9893C153.906 25.1032 154.131 25.1602 154.404 25.1602C154.616 25.1602 154.797 25.1146 154.946 25.0234C155.096 24.9323 155.218 24.807 155.312 24.6475C155.41 24.4847 155.482 24.2975 155.527 24.0859C155.573 23.8743 155.596 23.6497 155.596 23.4121ZM158.955 21.7227V26H157.778V20.7168H158.901L158.955 21.7227ZM160.571 20.6826L160.562 21.7764C160.49 21.7633 160.412 21.7536 160.327 21.7471C160.246 21.7406 160.164 21.7373 160.083 21.7373C159.881 21.7373 159.704 21.7666 159.551 21.8252C159.398 21.8805 159.269 21.9619 159.165 22.0693C159.064 22.1735 158.986 22.3005 158.931 22.4502C158.875 22.5999 158.843 22.7676 158.833 22.9531L158.564 22.9727C158.564 22.6406 158.597 22.333 158.662 22.0498C158.727 21.7666 158.825 21.5176 158.955 21.3027C159.089 21.0879 159.255 20.9202 159.453 20.7998C159.655 20.6794 159.888 20.6191 160.151 20.6191C160.223 20.6191 160.299 20.6257 160.381 20.6387C160.465 20.6517 160.529 20.6663 160.571 20.6826ZM168.364 21.8496V23.0117C168.364 23.5684 168.309 24.0436 168.198 24.4375C168.091 24.8281 167.935 25.1455 167.729 25.3896C167.524 25.6338 167.279 25.8128 166.992 25.9268C166.709 26.0407 166.392 26.0977 166.04 26.0977C165.76 26.0977 165.5 26.0618 165.259 25.9902C165.021 25.9186 164.806 25.8063 164.614 25.6533C164.422 25.5003 164.258 25.3034 164.121 25.0625C163.988 24.8184 163.883 24.527 163.809 24.1885C163.737 23.8499 163.701 23.4577 163.701 23.0117V21.8496C163.701 21.2897 163.757 20.8177 163.867 20.4336C163.978 20.0462 164.136 19.7321 164.341 19.4912C164.546 19.2471 164.79 19.0697 165.073 18.959C165.36 18.8483 165.679 18.793 166.03 18.793C166.313 18.793 166.574 18.8288 166.812 18.9004C167.052 18.9688 167.267 19.0778 167.456 19.2275C167.648 19.3773 167.811 19.5726 167.944 19.8135C168.081 20.0511 168.185 20.3392 168.257 20.6777C168.328 21.013 168.364 21.4036 168.364 21.8496ZM167.188 23.1777V21.6738C167.188 21.3906 167.171 21.1416 167.139 20.9268C167.106 20.7087 167.057 20.5247 166.992 20.375C166.93 20.222 166.852 20.0983 166.758 20.0039C166.663 19.9062 166.556 19.8363 166.436 19.7939C166.315 19.7484 166.18 19.7256 166.03 19.7256C165.848 19.7256 165.685 19.7614 165.542 19.833C165.399 19.9014 165.278 20.012 165.181 20.165C165.083 20.318 165.008 20.5199 164.956 20.7705C164.907 21.0179 164.883 21.319 164.883 21.6738V23.1777C164.883 23.4642 164.899 23.7165 164.932 23.9346C164.964 24.1527 165.013 24.3398 165.078 24.4961C165.143 24.6491 165.221 24.776 165.312 24.877C165.407 24.9746 165.514 25.0462 165.635 25.0918C165.758 25.1374 165.894 25.1602 166.04 25.1602C166.226 25.1602 166.39 25.1243 166.533 25.0527C166.676 24.9811 166.797 24.8672 166.895 24.7109C166.992 24.5514 167.065 24.3447 167.114 24.0908C167.163 23.8369 167.188 23.5326 167.188 23.1777ZM174.18 25.0625V26H169.414V25.1943L171.729 22.6699C171.982 22.3835 172.183 22.1361 172.329 21.9277C172.476 21.7194 172.578 21.5322 172.637 21.3662C172.699 21.1969 172.729 21.0326 172.729 20.873C172.729 20.6484 172.687 20.4515 172.603 20.2822C172.521 20.1097 172.401 19.9746 172.241 19.877C172.082 19.776 171.888 19.7256 171.66 19.7256C171.396 19.7256 171.175 19.7826 170.996 19.8965C170.817 20.0104 170.682 20.1683 170.591 20.3701C170.5 20.5687 170.454 20.7965 170.454 21.0537H169.277C169.277 20.6403 169.372 20.2627 169.561 19.9209C169.749 19.5758 170.023 19.3024 170.381 19.1006C170.739 18.8955 171.17 18.793 171.675 18.793C172.15 18.793 172.554 18.8727 172.886 19.0322C173.218 19.1917 173.47 19.418 173.643 19.7109C173.818 20.0039 173.906 20.3506 173.906 20.751C173.906 20.9723 173.87 21.1921 173.799 21.4102C173.727 21.6283 173.625 21.8464 173.491 22.0645C173.361 22.2793 173.206 22.4958 173.027 22.7139C172.848 22.9287 172.651 23.1468 172.437 23.3682L170.898 25.0625H174.18ZM176.27 24.8672L176.265 25.707C176.265 26.0391 176.182 26.3809 176.016 26.7324C175.85 27.084 175.63 27.3737 175.356 27.6016L174.727 27.2354C174.818 27.0889 174.901 26.9408 174.976 26.791C175.05 26.6413 175.111 26.4818 175.156 26.3125C175.202 26.1432 175.225 25.9561 175.225 25.751V24.8672H176.27ZM184.59 25.0625V26H179.824V25.1943L182.139 22.6699C182.393 22.3835 182.593 22.1361 182.739 21.9277C182.886 21.7194 182.988 21.5322 183.047 21.3662C183.109 21.1969 183.14 21.0326 183.14 20.873C183.14 20.6484 183.097 20.4515 183.013 20.2822C182.931 20.1097 182.811 19.9746 182.651 19.877C182.492 19.776 182.298 19.7256 182.07 19.7256C181.807 19.7256 181.585 19.7826 181.406 19.8965C181.227 20.0104 181.092 20.1683 181.001 20.3701C180.91 20.5687 180.864 20.7965 180.864 21.0537H179.688C179.688 20.6403 179.782 20.2627 179.971 19.9209C180.16 19.5758 180.433 19.3024 180.791 19.1006C181.149 18.8955 181.58 18.793 182.085 18.793C182.56 18.793 182.964 18.8727 183.296 19.0322C183.628 19.1917 183.88 19.418 184.053 19.7109C184.229 20.0039 184.316 20.3506 184.316 20.751C184.316 20.9723 184.281 21.1921 184.209 21.4102C184.137 21.6283 184.035 21.8464 183.901 22.0645C183.771 22.2793 183.617 22.4958 183.438 22.7139C183.258 22.9287 183.062 23.1468 182.847 23.3682L181.309 25.0625H184.59ZM188.721 18.8662V26H187.544V20.2627L185.801 20.8535V19.8818L188.579 18.8662H188.721Z" fill="black" fill-opacity="0.5"/>
</g>
<path d="M17.5039 59.5234V61H12.9629V59.5234H17.5039ZM13.6133 52.4688V61H11.7031V52.4688H13.6133ZM16.918 55.9023V57.332H12.9629V55.9023H16.918ZM17.5098 52.4688V53.9512H12.9629V52.4688H17.5098ZM21.7051 59.4883V56.7695C21.7051 56.5781 21.6758 56.4141 21.6172 56.2773C21.5586 56.1406 21.4668 56.0332 21.3418 55.9551C21.2168 55.877 21.0547 55.8379 20.8555 55.8379C20.6875 55.8379 20.541 55.8672 20.416 55.9258C20.2949 55.9844 20.2012 56.0684 20.1348 56.1777C20.0723 56.2871 20.041 56.4219 20.041 56.582H18.2129C18.2129 56.2969 18.2773 56.0312 18.4062 55.7852C18.5352 55.5391 18.7188 55.3223 18.957 55.1348C19.1992 54.9473 19.4883 54.8027 19.8242 54.7012C20.1602 54.5957 20.5371 54.543 20.9551 54.543C21.4512 54.543 21.8926 54.627 22.2793 54.7949C22.6699 54.959 22.9785 55.207 23.2051 55.5391C23.4316 55.8672 23.5449 56.2812 23.5449 56.7812V59.4355C23.5449 59.8184 23.5664 60.1191 23.6094 60.3379C23.6562 60.5527 23.7227 60.7402 23.8086 60.9004V61H21.9629C21.877 60.8164 21.8125 60.5898 21.7695 60.3203C21.7266 60.0469 21.7051 59.7695 21.7051 59.4883ZM21.9336 57.1328L21.9453 58.1406H21.0371C20.834 58.1406 20.6582 58.166 20.5098 58.2168C20.3652 58.2676 20.248 58.3379 20.1582 58.4277C20.0684 58.5137 20.002 58.6152 19.959 58.7324C19.9199 58.8457 19.9004 58.9707 19.9004 59.1074C19.9004 59.2363 19.9316 59.3535 19.9941 59.459C20.0566 59.5605 20.1426 59.6406 20.252 59.6992C20.3613 59.7578 20.4883 59.7871 20.6328 59.7871C20.8711 59.7871 21.0742 59.7402 21.2422 59.6465C21.4141 59.5527 21.5469 59.4395 21.6406 59.3066C21.7344 59.1699 21.7812 59.043 21.7812 58.9258L22.2207 59.6875C22.1504 59.8438 22.0645 60.0059 21.9629 60.1738C21.8613 60.3379 21.7324 60.4922 21.5762 60.6367C21.4199 60.7773 21.2305 60.8926 21.0078 60.9824C20.7891 61.0723 20.5254 61.1172 20.2168 61.1172C19.8184 61.1172 19.457 61.0371 19.1328 60.877C18.8086 60.7129 18.5488 60.4883 18.3535 60.2031C18.1621 59.918 18.0664 59.5898 18.0664 59.2188C18.0664 58.8867 18.127 58.5918 18.248 58.334C18.3691 58.0762 18.5508 57.8574 18.793 57.6777C19.0391 57.498 19.3477 57.3633 19.7188 57.2734C20.0898 57.1797 20.5234 57.1328 21.0195 57.1328H21.9336ZM27.9688 54.6602V55.9434H24.207V54.6602H27.9688ZM25.0684 53.0898H26.9023V59.0137C26.9023 59.1895 26.9238 59.3242 26.9668 59.418C27.0098 59.5117 27.0801 59.5781 27.1777 59.6172C27.2754 59.6523 27.4004 59.6699 27.5527 59.6699C27.6621 59.6699 27.7559 59.666 27.834 59.6582C27.9121 59.6504 27.9844 59.6406 28.0508 59.6289V60.9531C27.8945 61.0039 27.7285 61.043 27.5527 61.0703C27.377 61.1016 27.1855 61.1172 26.9785 61.1172C26.584 61.1172 26.2422 61.0527 25.9531 60.9238C25.668 60.7949 25.4492 60.5918 25.2969 60.3145C25.1445 60.0332 25.0684 59.668 25.0684 59.2188V53.0898ZM35.1934 59.4883V56.7695C35.1934 56.5781 35.1641 56.4141 35.1055 56.2773C35.0469 56.1406 34.9551 56.0332 34.8301 55.9551C34.7051 55.877 34.543 55.8379 34.3438 55.8379C34.1758 55.8379 34.0293 55.8672 33.9043 55.9258C33.7832 55.9844 33.6895 56.0684 33.623 56.1777C33.5605 56.2871 33.5293 56.4219 33.5293 56.582H31.7012C31.7012 56.2969 31.7656 56.0312 31.8945 55.7852C32.0234 55.5391 32.207 55.3223 32.4453 55.1348C32.6875 54.9473 32.9766 54.8027 33.3125 54.7012C33.6484 54.5957 34.0254 54.543 34.4434 54.543C34.9395 54.543 35.3809 54.627 35.7676 54.7949C36.1582 54.959 36.4668 55.207 36.6934 55.5391C36.9199 55.8672 37.0332 56.2812 37.0332 56.7812V59.4355C37.0332 59.8184 37.0547 60.1191 37.0977 60.3379C37.1445 60.5527 37.2109 60.7402 37.2969 60.9004V61H35.4512C35.3652 60.8164 35.3008 60.5898 35.2578 60.3203C35.2148 60.0469 35.1934 59.7695 35.1934 59.4883ZM35.4219 57.1328L35.4336 58.1406H34.5254C34.3223 58.1406 34.1465 58.166 33.998 58.2168C33.8535 58.2676 33.7363 58.3379 33.6465 58.4277C33.5566 58.5137 33.4902 58.6152 33.4473 58.7324C33.4082 58.8457 33.3887 58.9707 33.3887 59.1074C33.3887 59.2363 33.4199 59.3535 33.4824 59.459C33.5449 59.5605 33.6309 59.6406 33.7402 59.6992C33.8496 59.7578 33.9766 59.7871 34.1211 59.7871C34.3594 59.7871 34.5625 59.7402 34.7305 59.6465C34.9023 59.5527 35.0352 59.4395 35.1289 59.3066C35.2227 59.1699 35.2695 59.043 35.2695 58.9258L35.709 59.6875C35.6387 59.8438 35.5527 60.0059 35.4512 60.1738C35.3496 60.3379 35.2207 60.4922 35.0645 60.6367C34.9082 60.7773 34.7188 60.8926 34.4961 60.9824C34.2773 61.0723 34.0137 61.1172 33.7051 61.1172C33.3066 61.1172 32.9453 61.0371 32.6211 60.877C32.2969 60.7129 32.0371 60.4883 31.8418 60.2031C31.6504 59.918 31.5547 59.5898 31.5547 59.2188C31.5547 58.8867 31.6152 58.5918 31.7363 58.334C31.8574 58.0762 32.0391 57.8574 32.2812 57.6777C32.5273 57.498 32.8359 57.3633 33.207 57.2734C33.5781 57.1797 34.0117 57.1328 34.5078 57.1328H35.4219ZM44.5977 59.2363C44.5977 59.1191 44.5605 59.0156 44.4863 58.9258C44.416 58.8359 44.2871 58.7539 44.0996 58.6797C43.916 58.6055 43.6562 58.5312 43.3203 58.457C43.0039 58.3906 42.709 58.3047 42.4355 58.1992C42.1621 58.0898 41.9238 57.959 41.7207 57.8066C41.5176 57.6504 41.3594 57.4668 41.2461 57.2559C41.1328 57.041 41.0762 56.7969 41.0762 56.5234C41.0762 56.2578 41.1328 56.0059 41.2461 55.7676C41.3633 55.5293 41.5312 55.3184 41.75 55.1348C41.9727 54.9512 42.2422 54.8066 42.5586 54.7012C42.8789 54.5957 43.2422 54.543 43.6484 54.543C44.207 54.543 44.6895 54.6309 45.0957 54.8066C45.502 54.9785 45.8145 55.2207 46.0332 55.5332C46.252 55.8418 46.3613 56.1953 46.3613 56.5938H44.5332C44.5332 56.4297 44.502 56.2871 44.4395 56.166C44.377 56.0449 44.2812 55.9512 44.1523 55.8848C44.0234 55.8145 43.8535 55.7793 43.6426 55.7793C43.4785 55.7793 43.334 55.8086 43.209 55.8672C43.0879 55.9219 42.9922 55.998 42.9219 56.0957C42.8555 56.1934 42.8223 56.3066 42.8223 56.4355C42.8223 56.5254 42.8418 56.6074 42.8809 56.6816C42.9238 56.752 42.9883 56.8184 43.0742 56.8809C43.1641 56.9395 43.2793 56.9922 43.4199 57.0391C43.5645 57.0859 43.7402 57.1309 43.9473 57.1738C44.3887 57.2559 44.791 57.3711 45.1543 57.5195C45.5215 57.668 45.8145 57.873 46.0332 58.1348C46.2559 58.3965 46.3672 58.7422 46.3672 59.1719C46.3672 59.4531 46.3027 59.7109 46.1738 59.9453C46.0488 60.1797 45.8672 60.3848 45.6289 60.5605C45.3906 60.7363 45.1055 60.873 44.7734 60.9707C44.4414 61.0684 44.0664 61.1172 43.6484 61.1172C43.0508 61.1172 42.5449 61.0098 42.1309 60.7949C41.7168 60.5801 41.4043 60.3105 41.1934 59.9863C40.9863 59.6582 40.8828 59.3223 40.8828 58.9785H42.5996C42.6074 59.1895 42.6602 59.3613 42.7578 59.4941C42.8594 59.627 42.9902 59.7246 43.1504 59.7871C43.3105 59.8457 43.4902 59.875 43.6895 59.875C43.8887 59.875 44.0547 59.8477 44.1875 59.793C44.3203 59.7383 44.4219 59.6641 44.4922 59.5703C44.5625 59.4727 44.5977 59.3613 44.5977 59.2363ZM50.7441 59.4883V56.7695C50.7441 56.5781 50.7148 56.4141 50.6562 56.2773C50.5977 56.1406 50.5059 56.0332 50.3809 55.9551C50.2559 55.877 50.0938 55.8379 49.8945 55.8379C49.7266 55.8379 49.5801 55.8672 49.4551 55.9258C49.334 55.9844 49.2402 56.0684 49.1738 56.1777C49.1113 56.2871 49.0801 56.4219 49.0801 56.582H47.252C47.252 56.2969 47.3164 56.0312 47.4453 55.7852C47.5742 55.5391 47.7578 55.3223 47.9961 55.1348C48.2383 54.9473 48.5273 54.8027 48.8633 54.7012C49.1992 54.5957 49.5762 54.543 49.9941 54.543C50.4902 54.543 50.9316 54.627 51.3184 54.7949C51.709 54.959 52.0176 55.207 52.2441 55.5391C52.4707 55.8672 52.584 56.2812 52.584 56.7812V59.4355C52.584 59.8184 52.6055 60.1191 52.6484 60.3379C52.6953 60.5527 52.7617 60.7402 52.8477 60.9004V61H51.002C50.916 60.8164 50.8516 60.5898 50.8086 60.3203C50.7656 60.0469 50.7441 59.7695 50.7441 59.4883ZM50.9727 57.1328L50.9844 58.1406H50.0762C49.873 58.1406 49.6973 58.166 49.5488 58.2168C49.4043 58.2676 49.2871 58.3379 49.1973 58.4277C49.1074 58.5137 49.041 58.6152 48.998 58.7324C48.959 58.8457 48.9395 58.9707 48.9395 59.1074C48.9395 59.2363 48.9707 59.3535 49.0332 59.459C49.0957 59.5605 49.1816 59.6406 49.291 59.6992C49.4004 59.7578 49.5273 59.7871 49.6719 59.7871C49.9102 59.7871 50.1133 59.7402 50.2812 59.6465C50.4531 59.5527 50.5859 59.4395 50.6797 59.3066C50.7734 59.1699 50.8203 59.043 50.8203 58.9258L51.2598 59.6875C51.1895 59.8438 51.1035 60.0059 51.002 60.1738C50.9004 60.3379 50.7715 60.4922 50.6152 60.6367C50.459 60.7773 50.2695 60.8926 50.0469 60.9824C49.8281 61.0723 49.5645 61.1172 49.2559 61.1172C48.8574 61.1172 48.4961 61.0371 48.1719 60.877C47.8477 60.7129 47.5879 60.4883 47.3926 60.2031C47.2012 59.918 47.1055 59.5898 47.1055 59.2188C47.1055 58.8867 47.166 58.5918 47.2871 58.334C47.4082 58.0762 47.5898 57.8574 47.832 57.6777C48.0781 57.498 48.3867 57.3633 48.7578 57.2734C49.1289 57.1797 49.5625 57.1328 50.0586 57.1328H50.9727ZM55.5781 56.0137V61H53.7441V54.6602H55.4668L55.5781 56.0137ZM55.3379 57.6074L54.8809 57.6191C54.8809 57.1426 54.9395 56.7148 55.0566 56.3359C55.1738 55.957 55.3398 55.6348 55.5547 55.3691C55.7734 55.0996 56.0332 54.8945 56.334 54.7539C56.6387 54.6133 56.9746 54.543 57.3418 54.543C57.6387 54.543 57.9102 54.5859 58.1562 54.6719C58.4023 54.7578 58.6133 54.8965 58.7891 55.0879C58.9688 55.2754 59.1055 55.5254 59.1992 55.8379C59.293 56.1465 59.3398 56.5273 59.3398 56.9805V61H57.5V56.9746C57.5 56.709 57.4629 56.5039 57.3887 56.3594C57.3145 56.2148 57.2051 56.1133 57.0605 56.0547C56.9199 55.9961 56.748 55.9668 56.5449 55.9668C56.3301 55.9668 56.1465 56.0098 55.9941 56.0957C55.8418 56.1777 55.7168 56.293 55.6191 56.4414C55.5215 56.5898 55.4492 56.7637 55.4023 56.9629C55.3594 57.1621 55.3379 57.377 55.3379 57.6074ZM64.2266 59.582V52H66.0664V61H64.4141L64.2266 59.582ZM60.2773 57.9062V57.7832C60.2773 57.3027 60.3301 56.8652 60.4355 56.4707C60.5449 56.0723 60.7031 55.7305 60.9102 55.4453C61.1211 55.1562 61.3809 54.9336 61.6895 54.7773C61.998 54.6211 62.3516 54.543 62.75 54.543C63.1172 54.543 63.4375 54.625 63.7109 54.7891C63.9844 54.9492 64.2168 55.1758 64.4082 55.4688C64.6035 55.7578 64.7617 56.0996 64.8828 56.4941C65.0039 56.8848 65.0957 57.3086 65.1582 57.7656V57.9766C65.0996 58.4141 65.0078 58.8223 64.8828 59.2012C64.7617 59.5801 64.6035 59.9141 64.4082 60.2031C64.2168 60.4883 63.9824 60.7129 63.7051 60.877C63.4316 61.0371 63.1094 61.1172 62.7383 61.1172C62.3398 61.1172 61.9863 61.0371 61.6777 60.877C61.373 60.7168 61.1172 60.4922 60.9102 60.2031C60.7031 59.9141 60.5449 59.5742 60.4355 59.1836C60.3301 58.793 60.2773 58.3672 60.2773 57.9062ZM62.1055 57.7832V57.9062C62.1055 58.1562 62.123 58.3887 62.1582 58.6035C62.1973 58.8184 62.2598 59.0078 62.3457 59.1719C62.4316 59.3359 62.5449 59.4648 62.6855 59.5586C62.8262 59.6484 62.998 59.6934 63.2012 59.6934C63.4746 59.6934 63.6992 59.6309 63.875 59.5059C64.0508 59.377 64.1836 59.1992 64.2734 58.9727C64.3633 58.7461 64.4102 58.4824 64.4141 58.1816V57.5664C64.4141 57.3164 64.3887 57.0918 64.3379 56.8926C64.2871 56.6934 64.2109 56.5254 64.1094 56.3887C64.0117 56.252 63.8887 56.1484 63.7402 56.0781C63.5918 56.0039 63.416 55.9668 63.2129 55.9668C63.0137 55.9668 62.8438 56.0137 62.7031 56.1074C62.5625 56.1973 62.4473 56.3242 62.3574 56.4883C62.2715 56.6523 62.207 56.8457 62.1641 57.0684C62.125 57.2871 62.1055 57.5254 62.1055 57.7832ZM69.1543 59.2363L70.3965 54.6602H71.5508L71.1582 56.6992L69.916 61H68.9727L69.1543 59.2363ZM68.5859 54.6602L69.418 59.2188L69.5059 61H68.3809L66.8223 54.6602H68.5859ZM72.6758 59.1309L73.502 54.6602H75.2656L73.7188 61H72.5938L72.6758 59.1309ZM71.6914 54.6602L72.9453 59.2129L73.127 61H72.1719L70.9414 56.7051L70.5664 54.6602H71.6914ZM77.9785 54.6602V61H76.1445V54.6602H77.9785ZM76.0332 53.0195C76.0332 52.7539 76.127 52.5371 76.3145 52.3691C76.502 52.1973 76.748 52.1113 77.0527 52.1113C77.3574 52.1113 77.6035 52.1973 77.791 52.3691C77.9824 52.5371 78.0781 52.7539 78.0781 53.0195C78.0781 53.2812 77.9824 53.498 77.791 53.6699C77.6035 53.8379 77.3574 53.9219 77.0527 53.9219C76.748 53.9219 76.502 53.8379 76.3145 53.6699C76.127 53.498 76.0332 53.2812 76.0332 53.0195ZM81.9453 59.6934C82.1406 59.6934 82.3105 59.6562 82.4551 59.582C82.5996 59.5078 82.7109 59.4043 82.7891 59.2715C82.8711 59.1348 82.9121 58.9707 82.9121 58.7793H84.6348C84.6348 59.2402 84.5156 59.6465 84.2773 59.998C84.043 60.3496 83.7266 60.625 83.3281 60.8242C82.9297 61.0195 82.4805 61.1172 81.9805 61.1172C81.4883 61.1172 81.0586 61.0371 80.6914 60.877C80.3242 60.7129 80.0176 60.4844 79.7715 60.1914C79.5254 59.8984 79.3398 59.5586 79.2148 59.1719C79.0938 58.7812 79.0332 58.3594 79.0332 57.9062V57.7539C79.0332 57.3047 79.0938 56.8848 79.2148 56.4941C79.3398 56.1035 79.5254 55.7617 79.7715 55.4688C80.0176 55.1758 80.3223 54.9492 80.6855 54.7891C81.0527 54.625 81.4824 54.543 81.9746 54.543C82.4941 54.543 82.9531 54.6426 83.3516 54.8418C83.7539 55.041 84.0684 55.3281 84.2949 55.7031C84.5215 56.0742 84.6348 56.5215 84.6348 57.0449H82.9121C82.9121 56.8418 82.875 56.6602 82.8008 56.5C82.7305 56.3359 82.6211 56.207 82.4727 56.1133C82.3281 56.0156 82.1484 55.9668 81.9336 55.9668C81.7109 55.9668 81.5273 56.0156 81.3828 56.1133C81.2422 56.207 81.1348 56.3379 81.0605 56.5059C80.9863 56.6738 80.9355 56.8652 80.9082 57.0801C80.8809 57.291 80.8672 57.5156 80.8672 57.7539V57.9062C80.8672 58.1484 80.8809 58.3789 80.9082 58.5977C80.9355 58.8125 80.9863 59.002 81.0605 59.166C81.1387 59.3301 81.248 59.459 81.3887 59.5527C81.5293 59.6465 81.7148 59.6934 81.9453 59.6934ZM87.3301 52V61H85.502V52H87.3301ZM87.0898 57.6074L86.6328 57.6191C86.6328 57.1738 86.6875 56.7656 86.7969 56.3945C86.9102 56.0195 87.0703 55.6934 87.2773 55.416C87.4844 55.1387 87.7324 54.9238 88.0215 54.7715C88.3145 54.6191 88.6367 54.543 88.9883 54.543C89.3008 54.543 89.5859 54.5879 89.8438 54.6777C90.1016 54.7676 90.3242 54.9102 90.5117 55.1055C90.6992 55.3008 90.8438 55.5566 90.9453 55.873C91.0469 56.1895 91.0977 56.5742 91.0977 57.0273V61H89.2578V57.0156C89.2578 56.7461 89.2188 56.5352 89.1406 56.3828C89.0664 56.2305 88.957 56.123 88.8125 56.0605C88.6719 55.998 88.5 55.9668 88.2969 55.9668C88.0586 55.9668 87.8613 56.0098 87.7051 56.0957C87.5488 56.1777 87.4258 56.293 87.3359 56.4414C87.2461 56.5898 87.1816 56.7637 87.1426 56.9629C87.1074 57.1621 87.0898 57.377 87.0898 57.6074Z" fill="#331436"/>
<path d="M31 93.5L21 103.5M21 93.5L31 103.5" stroke="#FF746A" stroke-width="4" stroke-linecap="round" stroke-linejoin="round"/>
<g clip-path="url(#clip2_6_404)">
<rect x="161" y="86" width="25" height="25" rx="12.5" fill="#AF4A00"/>
<path d="M171.898 97.8672V100.582C171.798 100.715 171.64 100.862 171.425 101.021C171.213 101.178 170.932 101.313 170.58 101.427C170.229 101.541 169.791 101.598 169.267 101.598C168.821 101.598 168.412 101.523 168.041 101.373C167.67 101.22 167.349 100.997 167.079 100.704C166.812 100.411 166.605 100.055 166.459 99.6348C166.312 99.2116 166.239 98.7298 166.239 98.1895V97.6963C166.239 97.1592 166.306 96.6807 166.439 96.2607C166.576 95.8376 166.771 95.4795 167.025 95.1865C167.279 94.8936 167.585 94.6722 167.943 94.5225C168.305 94.3695 168.713 94.293 169.169 94.293C169.752 94.293 170.233 94.3906 170.614 94.5859C170.998 94.778 171.295 95.0449 171.503 95.3867C171.711 95.7285 171.843 96.1191 171.898 96.5586H170.697C170.658 96.3112 170.582 96.0898 170.468 95.8945C170.357 95.6992 170.198 95.5462 169.989 95.4355C169.784 95.3216 169.517 95.2646 169.188 95.2646C168.905 95.2646 168.656 95.3184 168.441 95.4258C168.227 95.5332 168.048 95.6911 167.904 95.8994C167.764 96.1077 167.659 96.3617 167.587 96.6611C167.515 96.9606 167.479 97.3024 167.479 97.6865V98.1895C167.479 98.5801 167.52 98.9268 167.602 99.2295C167.686 99.5322 167.807 99.7878 167.963 99.9961C168.122 100.204 168.316 100.362 168.544 100.47C168.772 100.574 169.029 100.626 169.315 100.626C169.595 100.626 169.825 100.603 170.004 100.558C170.183 100.509 170.325 100.452 170.429 100.387C170.536 100.318 170.619 100.253 170.678 100.191V98.7803H169.198V97.8672H171.898ZM173.754 94.3906H174.848L176.903 99.874L178.954 94.3906H180.048L177.333 101.5H176.464L173.754 94.3906ZM173.256 94.3906H174.296L174.477 99.1367V101.5H173.256V94.3906ZM179.506 94.3906H180.551V101.5H179.325V99.1367L179.506 94.3906Z" fill="white"/>
</g>
<defs>
<clipPath id="clip0_6_404">
<rect width="180" height="24" fill="white" transform="translate(11 11)"/>
</clipPath>
<clipPath id="clip1_6_404">
<rect x="11" y="15.5" width="30" height="15" rx="7.5" fill="white"/>
</clipPath>
<clipPath id="clip2_6_404">
<rect width="25" height="25" fill="white" transform="translate(161 86)"/>
</clipPath>
</defs>
</svg>
