<svg width="202" height="129" viewBox="0 0 202 129" fill="none" xmlns="http://www.w3.org/2000/svg">
<rect x="0.5" y="0.5" width="201" height="128" rx="8.5" fill="#F8F2FF"/>
<rect x="0.5" y="0.5" width="201" height="128" rx="8.5" stroke="#331436"/>
<g clip-path="url(#clip0_6_419)">
<g clip-path="url(#clip1_6_419)">
<rect x="10.5" y="15.5" width="30" height="15" rx="7.5" fill="#EB9961"/>
<path d="M18.2539 18.8906H19.3477L21.4033 24.374L23.4541 18.8906H24.5479L21.833 26H20.9639L18.2539 18.8906ZM17.7559 18.8906H18.7959L18.9766 23.6367V26H17.7559V18.8906ZM24.0059 18.8906H25.0508V26H23.8252V23.6367L24.0059 18.8906ZM27.6484 20.7168V26H26.4668V20.7168H27.6484ZM26.3887 19.3301C26.3887 19.151 26.4473 19.0029 26.5645 18.8857C26.6849 18.7653 26.8509 18.7051 27.0625 18.7051C27.2708 18.7051 27.4352 18.7653 27.5557 18.8857C27.6761 19.0029 27.7363 19.151 27.7363 19.3301C27.7363 19.5059 27.6761 19.6523 27.5557 19.7695C27.4352 19.8867 27.2708 19.9453 27.0625 19.9453C26.8509 19.9453 26.6849 19.8867 26.5645 19.7695C26.4473 19.6523 26.3887 19.5059 26.3887 19.3301ZM32.1602 24.9062V18.5H33.3418V26H32.2725L32.1602 24.9062ZM28.7227 23.417V23.3145C28.7227 22.9141 28.7699 22.5495 28.8643 22.2207C28.9587 21.8887 29.0954 21.6038 29.2744 21.3662C29.4535 21.1253 29.6715 20.9414 29.9287 20.8145C30.1859 20.6842 30.4756 20.6191 30.7979 20.6191C31.1169 20.6191 31.3968 20.681 31.6377 20.8047C31.8786 20.9284 32.0837 21.1058 32.2529 21.3369C32.4222 21.5648 32.5573 21.8382 32.6582 22.1572C32.7591 22.473 32.8307 22.8245 32.873 23.2119V23.5391C32.8307 23.9167 32.7591 24.2617 32.6582 24.5742C32.5573 24.8867 32.4222 25.1569 32.2529 25.3848C32.0837 25.6126 31.877 25.7884 31.6328 25.9121C31.3919 26.0358 31.1104 26.0977 30.7881 26.0977C30.4691 26.0977 30.181 26.0309 29.9238 25.8975C29.6699 25.764 29.4535 25.5768 29.2744 25.3359C29.0954 25.0951 28.9587 24.8118 28.8643 24.4863C28.7699 24.1576 28.7227 23.8011 28.7227 23.417ZM29.8994 23.3145V23.417C29.8994 23.6579 29.9206 23.8825 29.9629 24.0908C30.0085 24.2992 30.0785 24.4831 30.1729 24.6426C30.2673 24.7988 30.3893 24.9225 30.5391 25.0137C30.6921 25.1016 30.8743 25.1455 31.0859 25.1455C31.3529 25.1455 31.5726 25.0869 31.7451 24.9697C31.9176 24.8525 32.0527 24.6947 32.1504 24.4961C32.2513 24.2943 32.3197 24.0697 32.3555 23.8223V22.9385C32.3359 22.7464 32.2952 22.5674 32.2334 22.4014C32.1748 22.2354 32.0951 22.0905 31.9941 21.9668C31.8932 21.8398 31.7679 21.7422 31.6182 21.6738C31.4717 21.6022 31.2975 21.5664 31.0957 21.5664C30.8809 21.5664 30.6986 21.612 30.5488 21.7031C30.3991 21.7943 30.2754 21.9196 30.1777 22.0791C30.0833 22.2386 30.0133 22.4242 29.9678 22.6357C29.9222 22.8473 29.8994 23.0736 29.8994 23.3145Z" fill="#CB4F57"/>
</g>
<rect x="11" y="16" width="29" height="14" rx="7" stroke="#CB4F57"/>
<path d="M148.147 23.8662V18.8906H149.368V23.8662C149.368 24.3382 149.267 24.7402 149.065 25.0723C148.864 25.4043 148.589 25.6582 148.24 25.834C147.892 26.0098 147.496 26.0977 147.054 26.0977C146.601 26.0977 146.199 26.0212 145.848 25.8682C145.499 25.7152 145.226 25.4808 145.027 25.165C144.829 24.8493 144.729 24.4489 144.729 23.9639H145.96C145.96 24.2438 146.004 24.4701 146.092 24.6426C146.183 24.8118 146.31 24.9355 146.473 25.0137C146.639 25.0885 146.832 25.126 147.054 25.126C147.265 25.126 147.452 25.0788 147.615 24.9844C147.781 24.8867 147.911 24.7451 148.006 24.5596C148.1 24.3708 148.147 24.1396 148.147 23.8662ZM153.641 24.9404V22.4209C153.641 22.2321 153.606 22.0693 153.538 21.9326C153.47 21.7959 153.366 21.6901 153.226 21.6152C153.089 21.5404 152.916 21.5029 152.708 21.5029C152.516 21.5029 152.35 21.5355 152.21 21.6006C152.07 21.6657 151.961 21.7536 151.883 21.8643C151.805 21.9749 151.766 22.1003 151.766 22.2402H150.594C150.594 22.0319 150.644 21.8301 150.745 21.6348C150.846 21.4395 150.993 21.2653 151.185 21.1123C151.377 20.9593 151.606 20.8389 151.873 20.751C152.14 20.6631 152.439 20.6191 152.771 20.6191C153.169 20.6191 153.52 20.6859 153.826 20.8193C154.135 20.9528 154.378 21.1546 154.554 21.4248C154.733 21.6917 154.822 22.027 154.822 22.4307V24.7793C154.822 25.0202 154.839 25.2367 154.871 25.4287C154.907 25.6175 154.957 25.7819 155.022 25.9219V26H153.816C153.761 25.873 153.717 25.7119 153.685 25.5166C153.655 25.318 153.641 25.126 153.641 24.9404ZM153.812 22.7871L153.821 23.5146H152.977C152.758 23.5146 152.566 23.5358 152.4 23.5781C152.234 23.6172 152.096 23.6758 151.985 23.7539C151.875 23.832 151.792 23.9264 151.736 24.0371C151.681 24.1478 151.653 24.2731 151.653 24.4131C151.653 24.5531 151.686 24.6816 151.751 24.7988C151.816 24.9128 151.91 25.0023 152.034 25.0674C152.161 25.1325 152.314 25.165 152.493 25.165C152.734 25.165 152.944 25.1162 153.123 25.0186C153.305 24.9176 153.449 24.7956 153.553 24.6523C153.657 24.5059 153.712 24.3675 153.719 24.2373L154.1 24.7598C154.061 24.8932 153.994 25.0365 153.899 25.1895C153.805 25.3424 153.681 25.4889 153.528 25.6289C153.379 25.7656 153.198 25.8779 152.986 25.9658C152.778 26.0537 152.537 26.0977 152.264 26.0977C151.919 26.0977 151.611 26.0293 151.341 25.8926C151.071 25.7526 150.859 25.5654 150.706 25.3311C150.553 25.0934 150.477 24.8249 150.477 24.5254C150.477 24.2454 150.529 23.998 150.633 23.7832C150.74 23.5651 150.896 23.3828 151.102 23.2363C151.31 23.0898 151.564 22.9792 151.863 22.9043C152.163 22.8262 152.505 22.7871 152.889 22.7871H153.812ZM157.22 21.8447V26H156.043V20.7168H157.151L157.22 21.8447ZM157.01 23.1631L156.629 23.1582C156.632 22.7839 156.684 22.4404 156.785 22.1279C156.889 21.8154 157.033 21.5469 157.215 21.3223C157.4 21.0977 157.622 20.9251 157.879 20.8047C158.136 20.681 158.423 20.6191 158.738 20.6191C158.992 20.6191 159.222 20.6549 159.427 20.7266C159.635 20.7949 159.812 20.9072 159.959 21.0635C160.109 21.2197 160.223 21.4232 160.301 21.6738C160.379 21.9212 160.418 22.2256 160.418 22.5869V26H159.236V22.582C159.236 22.3281 159.199 22.1279 159.124 21.9814C159.052 21.8317 158.947 21.7259 158.807 21.6641C158.67 21.599 158.499 21.5664 158.294 21.5664C158.092 21.5664 157.911 21.6087 157.752 21.6934C157.592 21.778 157.457 21.8936 157.347 22.04C157.239 22.1865 157.156 22.3558 157.098 22.5479C157.039 22.7399 157.01 22.945 157.01 23.1631ZM168.807 25.0625V26H164.041V25.1943L166.355 22.6699C166.609 22.3835 166.81 22.1361 166.956 21.9277C167.103 21.7194 167.205 21.5322 167.264 21.3662C167.326 21.1969 167.356 21.0326 167.356 20.873C167.356 20.6484 167.314 20.4515 167.229 20.2822C167.148 20.1097 167.028 19.9746 166.868 19.877C166.709 19.776 166.515 19.7256 166.287 19.7256C166.023 19.7256 165.802 19.7826 165.623 19.8965C165.444 20.0104 165.309 20.1683 165.218 20.3701C165.127 20.5687 165.081 20.7965 165.081 21.0537H163.904C163.904 20.6403 163.999 20.2627 164.188 19.9209C164.376 19.5758 164.65 19.3024 165.008 19.1006C165.366 18.8955 165.797 18.793 166.302 18.793C166.777 18.793 167.181 18.8727 167.513 19.0322C167.845 19.1917 168.097 19.418 168.27 19.7109C168.445 20.0039 168.533 20.3506 168.533 20.751C168.533 20.9723 168.497 21.1921 168.426 21.4102C168.354 21.6283 168.252 21.8464 168.118 22.0645C167.988 22.2793 167.833 22.4958 167.654 22.7139C167.475 22.9287 167.278 23.1468 167.063 23.3682L165.525 25.0625H168.807ZM174.373 24.0615C174.373 24.5042 174.271 24.877 174.065 25.1797C173.86 25.4824 173.58 25.7119 173.226 25.8682C172.874 26.0212 172.477 26.0977 172.034 26.0977C171.591 26.0977 171.193 26.0212 170.838 25.8682C170.483 25.7119 170.203 25.4824 169.998 25.1797C169.793 24.877 169.69 24.5042 169.69 24.0615C169.69 23.7686 169.747 23.5033 169.861 23.2656C169.975 23.0247 170.136 22.818 170.345 22.6455C170.556 22.4697 170.804 22.3346 171.087 22.2402C171.373 22.1458 171.686 22.0986 172.024 22.0986C172.474 22.0986 172.876 22.1816 173.23 22.3477C173.585 22.5137 173.864 22.7432 174.065 23.0361C174.271 23.3291 174.373 23.6709 174.373 24.0615ZM173.191 24.0029C173.191 23.7653 173.143 23.557 173.045 23.3779C172.947 23.1989 172.811 23.0605 172.635 22.9629C172.459 22.8652 172.256 22.8164 172.024 22.8164C171.79 22.8164 171.587 22.8652 171.414 22.9629C171.242 23.0605 171.106 23.1989 171.009 23.3779C170.914 23.557 170.867 23.7653 170.867 24.0029C170.867 24.2438 170.914 24.4521 171.009 24.6279C171.103 24.8005 171.238 24.9323 171.414 25.0234C171.59 25.1146 171.797 25.1602 172.034 25.1602C172.272 25.1602 172.477 25.1146 172.649 25.0234C172.822 24.9323 172.955 24.8005 173.05 24.6279C173.144 24.4521 173.191 24.2438 173.191 24.0029ZM174.212 20.7607C174.212 21.1156 174.118 21.4313 173.929 21.708C173.743 21.9847 173.486 22.2028 173.157 22.3623C172.828 22.5186 172.454 22.5967 172.034 22.5967C171.611 22.5967 171.233 22.5186 170.901 22.3623C170.573 22.2028 170.314 21.9847 170.125 21.708C169.939 21.4313 169.847 21.1156 169.847 20.7607C169.847 20.3376 169.939 19.9811 170.125 19.6914C170.314 19.3984 170.573 19.1755 170.901 19.0225C171.23 18.8695 171.606 18.793 172.029 18.793C172.452 18.793 172.828 18.8695 173.157 19.0225C173.486 19.1755 173.743 19.3984 173.929 19.6914C174.118 19.9811 174.212 20.3376 174.212 20.7607ZM173.035 20.7998C173.035 20.5882 172.993 20.4027 172.908 20.2432C172.827 20.0804 172.711 19.9535 172.562 19.8623C172.412 19.7712 172.234 19.7256 172.029 19.7256C171.824 19.7256 171.647 19.7695 171.497 19.8574C171.347 19.9453 171.232 20.069 171.15 20.2285C171.069 20.388 171.028 20.5785 171.028 20.7998C171.028 21.0179 171.069 21.2083 171.15 21.3711C171.232 21.5306 171.347 21.6559 171.497 21.7471C171.65 21.8382 171.829 21.8838 172.034 21.8838C172.239 21.8838 172.417 21.8382 172.566 21.7471C172.716 21.6559 172.832 21.5306 172.913 21.3711C172.994 21.2083 173.035 21.0179 173.035 20.7998ZM176.58 24.8672L176.575 25.707C176.575 26.0391 176.492 26.3809 176.326 26.7324C176.16 27.084 175.94 27.3737 175.667 27.6016L175.037 27.2354C175.128 27.0889 175.211 26.9408 175.286 26.791C175.361 26.6413 175.421 26.4818 175.467 26.3125C175.512 26.1432 175.535 25.9561 175.535 25.751V24.8672H176.58ZM184.783 24.0615C184.783 24.5042 184.681 24.877 184.476 25.1797C184.271 25.4824 183.991 25.7119 183.636 25.8682C183.284 26.0212 182.887 26.0977 182.444 26.0977C182.002 26.0977 181.603 26.0212 181.248 25.8682C180.893 25.7119 180.613 25.4824 180.408 25.1797C180.203 24.877 180.101 24.5042 180.101 24.0615C180.101 23.7686 180.158 23.5033 180.271 23.2656C180.385 23.0247 180.547 22.818 180.755 22.6455C180.966 22.4697 181.214 22.3346 181.497 22.2402C181.784 22.1458 182.096 22.0986 182.435 22.0986C182.884 22.0986 183.286 22.1816 183.641 22.3477C183.995 22.5137 184.274 22.7432 184.476 23.0361C184.681 23.3291 184.783 23.6709 184.783 24.0615ZM183.602 24.0029C183.602 23.7653 183.553 23.557 183.455 23.3779C183.357 23.1989 183.221 23.0605 183.045 22.9629C182.869 22.8652 182.666 22.8164 182.435 22.8164C182.2 22.8164 181.997 22.8652 181.824 22.9629C181.652 23.0605 181.517 23.1989 181.419 23.3779C181.325 23.557 181.277 23.7653 181.277 24.0029C181.277 24.2438 181.325 24.4521 181.419 24.6279C181.513 24.8005 181.648 24.9323 181.824 25.0234C182 25.1146 182.207 25.1602 182.444 25.1602C182.682 25.1602 182.887 25.1146 183.06 25.0234C183.232 24.9323 183.366 24.8005 183.46 24.6279C183.554 24.4521 183.602 24.2438 183.602 24.0029ZM184.622 20.7607C184.622 21.1156 184.528 21.4313 184.339 21.708C184.153 21.9847 183.896 22.2028 183.567 22.3623C183.239 22.5186 182.864 22.5967 182.444 22.5967C182.021 22.5967 181.644 22.5186 181.312 22.3623C180.983 22.2028 180.724 21.9847 180.535 21.708C180.35 21.4313 180.257 21.1156 180.257 20.7607C180.257 20.3376 180.35 19.9811 180.535 19.6914C180.724 19.3984 180.983 19.1755 181.312 19.0225C181.64 18.8695 182.016 18.793 182.439 18.793C182.863 18.793 183.239 18.8695 183.567 19.0225C183.896 19.1755 184.153 19.3984 184.339 19.6914C184.528 19.9811 184.622 20.3376 184.622 20.7607ZM183.445 20.7998C183.445 20.5882 183.403 20.4027 183.318 20.2432C183.237 20.0804 183.121 19.9535 182.972 19.8623C182.822 19.7712 182.645 19.7256 182.439 19.7256C182.234 19.7256 182.057 19.7695 181.907 19.8574C181.757 19.9453 181.642 20.069 181.561 20.2285C181.479 20.388 181.438 20.5785 181.438 20.7998C181.438 21.0179 181.479 21.2083 181.561 21.3711C181.642 21.5306 181.757 21.6559 181.907 21.7471C182.06 21.8382 182.239 21.8838 182.444 21.8838C182.649 21.8838 182.827 21.8382 182.977 21.7471C183.126 21.6559 183.242 21.5306 183.323 21.3711C183.405 21.2083 183.445 21.0179 183.445 20.7998ZM189.373 18.8467H189.52V19.8086H189.437C189.017 19.8086 188.654 19.8737 188.348 20.0039C188.045 20.1341 187.796 20.3132 187.601 20.541C187.405 20.7689 187.259 21.0358 187.161 21.3418C187.067 21.6445 187.02 21.9668 187.02 22.3086V23.4268C187.02 23.71 187.05 23.9606 187.112 24.1787C187.174 24.3936 187.26 24.5742 187.371 24.7207C187.485 24.8639 187.615 24.973 187.762 25.0479C187.908 25.1227 188.066 25.1602 188.235 25.1602C188.411 25.1602 188.571 25.1243 188.714 25.0527C188.857 24.9779 188.979 24.8753 189.08 24.7451C189.181 24.6149 189.257 24.4603 189.31 24.2812C189.362 24.1022 189.388 23.9069 189.388 23.6953C189.388 23.4935 189.362 23.3047 189.31 23.1289C189.261 22.9499 189.188 22.7936 189.09 22.6602C188.992 22.5234 188.87 22.4176 188.724 22.3428C188.58 22.2646 188.414 22.2256 188.226 22.2256C187.991 22.2256 187.778 22.2809 187.586 22.3916C187.397 22.5023 187.244 22.6471 187.127 22.8262C187.013 23.002 186.951 23.1891 186.941 23.3877L186.492 23.2412C186.518 22.9385 186.585 22.6667 186.692 22.4258C186.803 22.1849 186.948 21.9798 187.127 21.8105C187.306 21.6413 187.513 21.5127 187.747 21.4248C187.985 21.3337 188.245 21.2881 188.528 21.2881C188.873 21.2881 189.173 21.3532 189.427 21.4834C189.681 21.6136 189.891 21.791 190.057 22.0156C190.226 22.237 190.351 22.4909 190.433 22.7773C190.517 23.0605 190.56 23.3568 190.56 23.666C190.56 24.0078 190.507 24.3268 190.403 24.623C190.299 24.916 190.146 25.1732 189.944 25.3945C189.746 25.6159 189.503 25.7884 189.217 25.9121C188.934 26.0358 188.611 26.0977 188.25 26.0977C187.869 26.0977 187.529 26.0244 187.229 25.8779C186.933 25.7314 186.681 25.5296 186.473 25.2725C186.268 25.0153 186.111 24.7191 186.004 24.3838C185.896 24.0485 185.843 23.6937 185.843 23.3193V22.8311C185.843 22.2907 185.911 21.7812 186.048 21.3027C186.185 20.821 186.395 20.3962 186.678 20.0283C186.964 19.6605 187.33 19.3724 187.776 19.1641C188.222 18.9525 188.755 18.8467 189.373 18.8467Z" fill="black" fill-opacity="0.5"/>
</g>
<path d="M14.4043 61H12.5293L12.541 59.5234H14.4043C14.8301 59.5234 15.1895 59.4258 15.4824 59.2305C15.7754 59.0312 15.998 58.7383 16.1504 58.3516C16.3027 57.9609 16.3789 57.4863 16.3789 56.9277V56.5352C16.3789 56.1133 16.3359 55.7422 16.25 55.4219C16.1641 55.0977 16.0371 54.8262 15.8691 54.6074C15.7012 54.3887 15.4922 54.2246 15.2422 54.1152C14.9961 54.0059 14.7129 53.9512 14.3926 53.9512H12.4941V52.4688H14.3926C14.9707 52.4688 15.498 52.5664 15.9746 52.7617C16.4551 52.957 16.8691 53.2363 17.2168 53.5996C17.5684 53.9629 17.8398 54.3926 18.0312 54.8887C18.2227 55.3848 18.3184 55.9375 18.3184 56.5469V56.9277C18.3184 57.5332 18.2227 58.0859 18.0312 58.5859C17.8398 59.082 17.5684 59.5117 17.2168 59.875C16.8691 60.2344 16.457 60.5117 15.9805 60.707C15.5039 60.9023 14.9785 61 14.4043 61ZM13.6133 52.4688V61H11.7031V52.4688H13.6133ZM21.2246 56.1367V61H19.3965V54.6602H21.1133L21.2246 56.1367ZM23.1172 54.6133L23.0879 56.3184C23.0098 56.3066 22.9082 56.2969 22.7832 56.2891C22.6582 56.2773 22.5508 56.2715 22.4609 56.2715C22.2266 56.2715 22.0234 56.3008 21.8516 56.3594C21.6836 56.4141 21.543 56.4961 21.4297 56.6055C21.3203 56.7148 21.2383 56.8516 21.1836 57.0156C21.1289 57.1758 21.1016 57.3613 21.1016 57.5723L20.7559 57.4023C20.7559 56.9844 20.7969 56.6016 20.8789 56.2539C20.9609 55.9062 21.0801 55.6055 21.2363 55.3516C21.3926 55.0938 21.584 54.8945 21.8105 54.7539C22.0371 54.6133 22.2949 54.543 22.584 54.543C22.6777 54.543 22.7734 54.5488 22.8711 54.5605C22.9688 54.5723 23.0508 54.5898 23.1172 54.6133ZM25.7949 54.6602V61H23.9609V54.6602H25.7949ZM23.8496 53.0195C23.8496 52.7539 23.9434 52.5371 24.1309 52.3691C24.3184 52.1973 24.5645 52.1113 24.8691 52.1113C25.1738 52.1113 25.4199 52.1973 25.6074 52.3691C25.7988 52.5371 25.8945 52.7539 25.8945 53.0195C25.8945 53.2812 25.7988 53.498 25.6074 53.6699C25.4199 53.8379 25.1738 53.9219 24.8691 53.9219C24.5645 53.9219 24.3184 53.8379 24.1309 53.6699C23.9434 53.498 23.8496 53.2812 23.8496 53.0195ZM28.9062 56.0137V61H27.0723V54.6602H28.7949L28.9062 56.0137ZM28.666 57.6074L28.209 57.6191C28.209 57.1426 28.2676 56.7148 28.3848 56.3359C28.502 55.957 28.668 55.6348 28.8828 55.3691C29.1016 55.0996 29.3613 54.8945 29.6621 54.7539C29.9668 54.6133 30.3027 54.543 30.6699 54.543C30.9668 54.543 31.2383 54.5859 31.4844 54.6719C31.7305 54.7578 31.9414 54.8965 32.1172 55.0879C32.2969 55.2754 32.4336 55.5254 32.5273 55.8379C32.6211 56.1465 32.668 56.5273 32.668 56.9805V61H30.8281V56.9746C30.8281 56.709 30.791 56.5039 30.7168 56.3594C30.6426 56.2148 30.5332 56.1133 30.3887 56.0547C30.248 55.9961 30.0762 55.9668 29.873 55.9668C29.6582 55.9668 29.4746 56.0098 29.3223 56.0957C29.1699 56.1777 29.0449 56.293 28.9473 56.4414C28.8496 56.5898 28.7773 56.7637 28.7305 56.9629C28.6875 57.1621 28.666 57.377 28.666 57.6074ZM35.7031 51.9941V61H33.8691V51.9941H35.7031ZM39.7285 54.6602L36.9688 57.8477L35.5098 59.3125L34.7773 58.0762L35.9609 56.5469L37.5254 54.6602H39.7285ZM37.7949 61L36.0078 58.0879L37.3203 57.0625L39.8926 61H37.7949ZM45.2129 59.2363L46.4551 54.6602H47.6094L47.2168 56.6992L45.9746 61H45.0312L45.2129 59.2363ZM44.6445 54.6602L45.4766 59.2188L45.5645 61H44.4395L42.8809 54.6602H44.6445ZM48.7344 59.1309L49.5605 54.6602H51.3242L49.7773 61H48.6523L48.7344 59.1309ZM47.75 54.6602L49.0039 59.2129L49.1855 61H48.2305L47 56.7051L46.625 54.6602H47.75ZM55.4668 59.4883V56.7695C55.4668 56.5781 55.4375 56.4141 55.3789 56.2773C55.3203 56.1406 55.2285 56.0332 55.1035 55.9551C54.9785 55.877 54.8164 55.8379 54.6172 55.8379C54.4492 55.8379 54.3027 55.8672 54.1777 55.9258C54.0566 55.9844 53.9629 56.0684 53.8965 56.1777C53.834 56.2871 53.8027 56.4219 53.8027 56.582H51.9746C51.9746 56.2969 52.0391 56.0312 52.168 55.7852C52.2969 55.5391 52.4805 55.3223 52.7188 55.1348C52.9609 54.9473 53.25 54.8027 53.5859 54.7012C53.9219 54.5957 54.2988 54.543 54.7168 54.543C55.2129 54.543 55.6543 54.627 56.041 54.7949C56.4316 54.959 56.7402 55.207 56.9668 55.5391C57.1934 55.8672 57.3066 56.2812 57.3066 56.7812V59.4355C57.3066 59.8184 57.3281 60.1191 57.3711 60.3379C57.418 60.5527 57.4844 60.7402 57.5703 60.9004V61H55.7246C55.6387 60.8164 55.5742 60.5898 55.5312 60.3203C55.4883 60.0469 55.4668 59.7695 55.4668 59.4883ZM55.6953 57.1328L55.707 58.1406H54.7988C54.5957 58.1406 54.4199 58.166 54.2715 58.2168C54.127 58.2676 54.0098 58.3379 53.9199 58.4277C53.8301 58.5137 53.7637 58.6152 53.7207 58.7324C53.6816 58.8457 53.6621 58.9707 53.6621 59.1074C53.6621 59.2363 53.6934 59.3535 53.7559 59.459C53.8184 59.5605 53.9043 59.6406 54.0137 59.6992C54.123 59.7578 54.25 59.7871 54.3945 59.7871C54.6328 59.7871 54.8359 59.7402 55.0039 59.6465C55.1758 59.5527 55.3086 59.4395 55.4023 59.3066C55.4961 59.1699 55.543 59.043 55.543 58.9258L55.9824 59.6875C55.9121 59.8438 55.8262 60.0059 55.7246 60.1738C55.623 60.3379 55.4941 60.4922 55.3379 60.6367C55.1816 60.7773 54.9922 60.8926 54.7695 60.9824C54.5508 61.0723 54.2871 61.1172 53.9785 61.1172C53.5801 61.1172 53.2188 61.0371 52.8945 60.877C52.5703 60.7129 52.3105 60.4883 52.1152 60.2031C51.9238 59.918 51.8281 59.5898 51.8281 59.2188C51.8281 58.8867 51.8887 58.5918 52.0098 58.334C52.1309 58.0762 52.3125 57.8574 52.5547 57.6777C52.8008 57.498 53.1094 57.3633 53.4805 57.2734C53.8516 57.1797 54.2852 57.1328 54.7812 57.1328H55.6953ZM61.7305 54.6602V55.9434H57.9688V54.6602H61.7305ZM58.8301 53.0898H60.6641V59.0137C60.6641 59.1895 60.6855 59.3242 60.7285 59.418C60.7715 59.5117 60.8418 59.5781 60.9395 59.6172C61.0371 59.6523 61.1621 59.6699 61.3145 59.6699C61.4238 59.6699 61.5176 59.666 61.5957 59.6582C61.6738 59.6504 61.7461 59.6406 61.8125 59.6289V60.9531C61.6562 61.0039 61.4902 61.043 61.3145 61.0703C61.1387 61.1016 60.9473 61.1172 60.7402 61.1172C60.3457 61.1172 60.0039 61.0527 59.7148 60.9238C59.4297 60.7949 59.2109 60.5918 59.0586 60.3145C58.9062 60.0332 58.8301 59.668 58.8301 59.2188V53.0898ZM65.5977 61.1172C65.0938 61.1172 64.6426 61.0371 64.2441 60.877C63.8457 60.7168 63.5078 60.4961 63.2305 60.2148C62.957 59.9297 62.748 59.6016 62.6035 59.2305C62.459 58.8594 62.3867 58.4629 62.3867 58.041V57.8184C62.3867 57.3457 62.4531 56.9102 62.5859 56.5117C62.7188 56.1133 62.9121 55.7676 63.166 55.4746C63.4238 55.1777 63.7402 54.9492 64.1152 54.7891C64.4902 54.625 64.918 54.543 65.3984 54.543C65.8477 54.543 66.248 54.6172 66.5996 54.7656C66.9512 54.9102 67.248 55.1191 67.4902 55.3926C67.7324 55.6621 67.916 55.9883 68.041 56.3711C68.1699 56.75 68.2344 57.1758 68.2344 57.6484V58.3984H63.125V57.2207H66.4414V57.0801C66.4414 56.8574 66.4004 56.6621 66.3184 56.4941C66.2402 56.3262 66.123 56.1973 65.9668 56.1074C65.8145 56.0137 65.6211 55.9668 65.3867 55.9668C65.1641 55.9668 64.9785 56.0137 64.8301 56.1074C64.6816 56.2012 64.5625 56.334 64.4727 56.5059C64.3867 56.6738 64.3242 56.8711 64.2852 57.0977C64.2461 57.3203 64.2266 57.5605 64.2266 57.8184V58.041C64.2266 58.2871 64.2598 58.5117 64.3262 58.7148C64.3926 58.918 64.4902 59.0918 64.6191 59.2363C64.748 59.3809 64.9043 59.4941 65.0879 59.5762C65.2715 59.6582 65.4805 59.6992 65.7148 59.6992C66.0039 59.6992 66.2793 59.6445 66.541 59.5352C66.8027 59.4219 67.0293 59.2461 67.2207 59.0078L68.0762 59.9863C67.9473 60.1738 67.7656 60.3555 67.5312 60.5312C67.3008 60.7031 67.0234 60.8438 66.6992 60.9531C66.375 61.0625 66.0078 61.1172 65.5977 61.1172ZM70.959 56.1367V61H69.1309V54.6602H70.8477L70.959 56.1367ZM72.8516 54.6133L72.8223 56.3184C72.7441 56.3066 72.6426 56.2969 72.5176 56.2891C72.3926 56.2773 72.2852 56.2715 72.1953 56.2715C71.9609 56.2715 71.7578 56.3008 71.5859 56.3594C71.418 56.4141 71.2773 56.4961 71.1641 56.6055C71.0547 56.7148 70.9727 56.8516 70.918 57.0156C70.8633 57.1758 70.8359 57.3613 70.8359 57.5723L70.4902 57.4023C70.4902 56.9844 70.5312 56.6016 70.6133 56.2539C70.6953 55.9062 70.8145 55.6055 70.9707 55.3516C71.127 55.0938 71.3184 54.8945 71.5449 54.7539C71.7715 54.6133 72.0293 54.543 72.3184 54.543C72.4121 54.543 72.5078 54.5488 72.6055 54.5605C72.7031 54.5723 72.7852 54.5898 72.8516 54.6133Z" fill="#331436"/>
<path d="M31 93.5L21 103.5M21 93.5L31 103.5" stroke="#FF746A" stroke-width="4" stroke-linecap="round" stroke-linejoin="round"/>
<g clip-path="url(#clip2_6_419)">
<rect x="161" y="86" width="25" height="25" rx="12.5" fill="#AF4A00"/>
<path d="M171.898 97.8672V100.582C171.798 100.715 171.64 100.862 171.425 101.021C171.213 101.178 170.932 101.313 170.58 101.427C170.229 101.541 169.791 101.598 169.267 101.598C168.821 101.598 168.412 101.523 168.041 101.373C167.67 101.22 167.349 100.997 167.079 100.704C166.812 100.411 166.605 100.055 166.459 99.6348C166.312 99.2116 166.239 98.7298 166.239 98.1895V97.6963C166.239 97.1592 166.306 96.6807 166.439 96.2607C166.576 95.8376 166.771 95.4795 167.025 95.1865C167.279 94.8936 167.585 94.6722 167.943 94.5225C168.305 94.3695 168.713 94.293 169.169 94.293C169.752 94.293 170.233 94.3906 170.614 94.5859C170.998 94.778 171.295 95.0449 171.503 95.3867C171.711 95.7285 171.843 96.1191 171.898 96.5586H170.697C170.658 96.3112 170.582 96.0898 170.468 95.8945C170.357 95.6992 170.198 95.5462 169.989 95.4355C169.784 95.3216 169.517 95.2646 169.188 95.2646C168.905 95.2646 168.656 95.3184 168.441 95.4258C168.227 95.5332 168.048 95.6911 167.904 95.8994C167.764 96.1077 167.659 96.3617 167.587 96.6611C167.515 96.9606 167.479 97.3024 167.479 97.6865V98.1895C167.479 98.5801 167.52 98.9268 167.602 99.2295C167.686 99.5322 167.807 99.7878 167.963 99.9961C168.122 100.204 168.316 100.362 168.544 100.47C168.772 100.574 169.029 100.626 169.315 100.626C169.595 100.626 169.825 100.603 170.004 100.558C170.183 100.509 170.325 100.452 170.429 100.387C170.536 100.318 170.619 100.253 170.678 100.191V98.7803H169.198V97.8672H171.898ZM173.754 94.3906H174.848L176.903 99.874L178.954 94.3906H180.048L177.333 101.5H176.464L173.754 94.3906ZM173.256 94.3906H174.296L174.477 99.1367V101.5H173.256V94.3906ZM179.506 94.3906H180.551V101.5H179.325V99.1367L179.506 94.3906Z" fill="white"/>
</g>
<defs>
<clipPath id="clip0_6_419">
<rect width="180" height="24" fill="white" transform="translate(11 11)"/>
</clipPath>
<clipPath id="clip1_6_419">
<rect x="10.5" y="15.5" width="30" height="15" rx="7.5" fill="white"/>
</clipPath>
<clipPath id="clip2_6_419">
<rect width="25" height="25" fill="white" transform="translate(161 86)"/>
</clipPath>
</defs>
</svg>
