<svg width="202" height="129" viewBox="0 0 202 129" fill="none" xmlns="http://www.w3.org/2000/svg">
<rect x="0.5" y="0.5" width="201" height="128" rx="8.5" fill="#F8F2FF"/>
<rect x="0.5" y="0.5" width="201" height="128" rx="8.5" stroke="#331436"/>
<g clip-path="url(#clip0_6_323)">
<g clip-path="url(#clip1_6_323)">
<rect x="11" y="15.5" width="30" height="15" rx="7.5" fill="#CB4F57"/>
<path d="M20.9199 21.8594V22.8311H17.1455V21.8594H20.9199ZM17.4482 18.8906V26H16.2227V18.8906H17.4482ZM21.8623 18.8906V26H20.6416V18.8906H21.8623ZM24.4648 20.7168V26H23.2832V20.7168H24.4648ZM23.2051 19.3301C23.2051 19.151 23.2637 19.0029 23.3809 18.8857C23.5013 18.7653 23.6673 18.7051 23.8789 18.7051C24.0872 18.7051 24.2516 18.7653 24.3721 18.8857C24.4925 19.0029 24.5527 19.151 24.5527 19.3301C24.5527 19.5059 24.4925 19.6523 24.3721 19.7695C24.2516 19.8867 24.0872 19.9453 23.8789 19.9453C23.6673 19.9453 23.5013 19.8867 23.3809 19.7695C23.2637 19.6523 23.2051 19.5059 23.2051 19.3301ZM29.1377 20.7168H30.207V25.8535C30.207 26.3288 30.1061 26.7324 29.9043 27.0645C29.7025 27.3965 29.4209 27.6488 29.0596 27.8213C28.6982 27.9971 28.2799 28.085 27.8047 28.085C27.6029 28.085 27.3783 28.0557 27.1309 27.9971C26.8867 27.9385 26.6491 27.8441 26.418 27.7139C26.1901 27.5869 25.9997 27.4193 25.8467 27.2109L26.3984 26.5176C26.5872 26.7422 26.7956 26.9066 27.0234 27.0107C27.2513 27.1149 27.4906 27.167 27.7412 27.167C28.0114 27.167 28.2409 27.1165 28.4297 27.0156C28.6217 26.918 28.7699 26.7731 28.874 26.5811C28.9782 26.389 29.0303 26.1546 29.0303 25.8779V21.9131L29.1377 20.7168ZM25.5488 23.417V23.3145C25.5488 22.9141 25.5977 22.5495 25.6953 22.2207C25.793 21.8887 25.9329 21.6038 26.1152 21.3662C26.2975 21.1253 26.5189 20.9414 26.7793 20.8145C27.0397 20.6842 27.3343 20.6191 27.6631 20.6191C28.0049 20.6191 28.2962 20.681 28.5371 20.8047C28.7812 20.9284 28.9847 21.1058 29.1475 21.3369C29.3102 21.5648 29.4372 21.8382 29.5283 22.1572C29.6227 22.473 29.6927 22.8245 29.7383 23.2119V23.5391C29.696 23.9167 29.6243 24.2617 29.5234 24.5742C29.4225 24.8867 29.2891 25.1569 29.123 25.3848C28.957 25.6126 28.752 25.7884 28.5078 25.9121C28.2669 26.0358 27.9821 26.0977 27.6533 26.0977C27.3311 26.0977 27.0397 26.0309 26.7793 25.8975C26.5221 25.764 26.3008 25.5768 26.1152 25.3359C25.9329 25.0951 25.793 24.8118 25.6953 24.4863C25.5977 24.1576 25.5488 23.8011 25.5488 23.417ZM26.7256 23.3145V23.417C26.7256 23.6579 26.7484 23.8825 26.7939 24.0908C26.8428 24.2992 26.916 24.4831 27.0137 24.6426C27.1146 24.7988 27.2415 24.9225 27.3945 25.0137C27.5508 25.1016 27.7347 25.1455 27.9463 25.1455C28.223 25.1455 28.4492 25.0869 28.625 24.9697C28.804 24.8525 28.9408 24.6947 29.0352 24.4961C29.1328 24.2943 29.2012 24.0697 29.2402 23.8223V22.9385C29.2207 22.7464 29.18 22.5674 29.1182 22.4014C29.0596 22.2354 28.9798 22.0905 28.8789 21.9668C28.778 21.8398 28.651 21.7422 28.498 21.6738C28.3451 21.6022 28.1644 21.5664 27.9561 21.5664C27.7445 21.5664 27.5605 21.612 27.4043 21.7031C27.248 21.7943 27.1195 21.9196 27.0186 22.0791C26.9209 22.2386 26.8477 22.4242 26.7988 22.6357C26.75 22.8473 26.7256 23.0736 26.7256 23.3145ZM32.5898 18.5V26H31.418V18.5H32.5898ZM32.3848 23.1631L32.0039 23.1582C32.0072 22.7936 32.0576 22.4567 32.1553 22.1475C32.2562 21.8382 32.3962 21.5697 32.5752 21.3418C32.7575 21.1107 32.9756 20.9333 33.2295 20.8096C33.4834 20.6826 33.765 20.6191 34.0742 20.6191C34.3346 20.6191 34.569 20.6549 34.7773 20.7266C34.9889 20.7982 35.1712 20.9137 35.3242 21.0732C35.4772 21.2295 35.5928 21.4346 35.6709 21.6885C35.7523 21.9391 35.793 22.2451 35.793 22.6064V26H34.6113V22.5967C34.6113 22.3428 34.5739 22.141 34.499 21.9912C34.4274 21.8415 34.3216 21.734 34.1816 21.6689C34.0417 21.6006 33.8708 21.5664 33.6689 21.5664C33.4574 21.5664 33.2702 21.6087 33.1074 21.6934C32.9479 21.778 32.8145 21.8936 32.707 22.04C32.5996 22.1865 32.5182 22.3558 32.4629 22.5479C32.4108 22.7399 32.3848 22.945 32.3848 23.1631Z" fill="#7A1745"/>
</g>
<rect x="11.5" y="16" width="29" height="14" rx="7" stroke="#7A1745"/>
<path d="M151.392 22.25V22.6406C151.392 23.1777 151.322 23.6595 151.182 24.0859C151.042 24.5124 150.841 24.8753 150.581 25.1748C150.324 25.4743 150.015 25.7038 149.653 25.8633C149.292 26.0195 148.892 26.0977 148.452 26.0977C148.016 26.0977 147.617 26.0195 147.256 25.8633C146.898 25.7038 146.587 25.4743 146.323 25.1748C146.06 24.8753 145.854 24.5124 145.708 24.0859C145.565 23.6595 145.493 23.1777 145.493 22.6406V22.25C145.493 21.7129 145.565 21.2327 145.708 20.8096C145.851 20.3831 146.053 20.0202 146.313 19.7207C146.577 19.418 146.888 19.1885 147.246 19.0322C147.607 18.8727 148.006 18.793 148.442 18.793C148.882 18.793 149.282 18.8727 149.644 19.0322C150.005 19.1885 150.316 19.418 150.576 19.7207C150.837 20.0202 151.037 20.3831 151.177 20.8096C151.32 21.2327 151.392 21.7129 151.392 22.25ZM150.166 22.6406V22.2402C150.166 21.8431 150.127 21.4932 150.049 21.1904C149.974 20.8844 149.862 20.6289 149.712 20.4238C149.565 20.2155 149.385 20.0592 149.17 19.9551C148.955 19.8477 148.713 19.7939 148.442 19.7939C148.172 19.7939 147.931 19.8477 147.72 19.9551C147.508 20.0592 147.327 20.2155 147.178 20.4238C147.031 20.6289 146.919 20.8844 146.841 21.1904C146.763 21.4932 146.724 21.8431 146.724 22.2402V22.6406C146.724 23.0378 146.763 23.3893 146.841 23.6953C146.919 24.0013 147.033 24.2601 147.183 24.4717C147.336 24.68 147.518 24.8379 147.729 24.9453C147.941 25.0495 148.182 25.1016 148.452 25.1016C148.726 25.1016 148.968 25.0495 149.18 24.9453C149.391 24.8379 149.57 24.68 149.717 24.4717C149.863 24.2601 149.974 24.0013 150.049 23.6953C150.127 23.3893 150.166 23.0378 150.166 22.6406ZM154.658 25.1602C154.85 25.1602 155.023 25.1227 155.176 25.0479C155.332 24.9697 155.457 24.8623 155.552 24.7256C155.649 24.5889 155.703 24.431 155.713 24.252H156.821C156.815 24.5938 156.714 24.9046 156.519 25.1846C156.323 25.4645 156.064 25.6875 155.742 25.8535C155.42 26.0163 155.063 26.0977 154.673 26.0977C154.269 26.0977 153.918 26.0293 153.618 25.8926C153.319 25.7526 153.07 25.5605 152.871 25.3164C152.673 25.0723 152.523 24.7907 152.422 24.4717C152.324 24.1527 152.275 23.8109 152.275 23.4463V23.2754C152.275 22.9108 152.324 22.569 152.422 22.25C152.523 21.9277 152.673 21.6445 152.871 21.4004C153.07 21.1562 153.319 20.9658 153.618 20.8291C153.918 20.6891 154.268 20.6191 154.668 20.6191C155.091 20.6191 155.462 20.7038 155.781 20.873C156.1 21.0391 156.351 21.2718 156.533 21.5713C156.719 21.8675 156.815 22.2126 156.821 22.6064H155.713C155.703 22.4111 155.654 22.2354 155.566 22.0791C155.482 21.9196 155.361 21.7926 155.205 21.6982C155.052 21.6038 154.868 21.5566 154.653 21.5566C154.416 21.5566 154.219 21.6055 154.062 21.7031C153.906 21.7975 153.784 21.9277 153.696 22.0938C153.608 22.2565 153.545 22.4404 153.506 22.6455C153.47 22.8473 153.452 23.0573 153.452 23.2754V23.4463C153.452 23.6644 153.47 23.876 153.506 24.0811C153.542 24.2861 153.604 24.4701 153.691 24.6328C153.783 24.7923 153.906 24.9209 154.062 25.0186C154.219 25.113 154.417 25.1602 154.658 25.1602ZM160.146 20.7168V21.5762H157.168V20.7168H160.146ZM158.027 19.4229H159.204V24.54C159.204 24.7028 159.227 24.8281 159.272 24.916C159.321 25.0007 159.388 25.0576 159.473 25.0869C159.557 25.1162 159.657 25.1309 159.771 25.1309C159.852 25.1309 159.93 25.126 160.005 25.1162C160.08 25.1064 160.14 25.0967 160.186 25.0869L160.19 25.9854C160.093 26.0146 159.979 26.0407 159.849 26.0635C159.722 26.0863 159.575 26.0977 159.409 26.0977C159.139 26.0977 158.9 26.0505 158.691 25.9561C158.483 25.8584 158.32 25.7005 158.203 25.4824C158.086 25.2643 158.027 24.9746 158.027 24.6133V19.4229ZM168.11 21.8496V23.0117C168.11 23.5684 168.055 24.0436 167.944 24.4375C167.837 24.8281 167.681 25.1455 167.476 25.3896C167.271 25.6338 167.025 25.8128 166.738 25.9268C166.455 26.0407 166.138 26.0977 165.786 26.0977C165.506 26.0977 165.246 26.0618 165.005 25.9902C164.767 25.9186 164.552 25.8063 164.36 25.6533C164.168 25.5003 164.004 25.3034 163.867 25.0625C163.734 24.8184 163.63 24.527 163.555 24.1885C163.483 23.8499 163.447 23.4577 163.447 23.0117V21.8496C163.447 21.2897 163.503 20.8177 163.613 20.4336C163.724 20.0462 163.882 19.7321 164.087 19.4912C164.292 19.2471 164.536 19.0697 164.819 18.959C165.106 18.8483 165.425 18.793 165.776 18.793C166.06 18.793 166.32 18.8288 166.558 18.9004C166.799 18.9688 167.013 19.0778 167.202 19.2275C167.394 19.3773 167.557 19.5726 167.69 19.8135C167.827 20.0511 167.931 20.3392 168.003 20.6777C168.075 21.013 168.11 21.4036 168.11 21.8496ZM166.934 23.1777V21.6738C166.934 21.3906 166.917 21.1416 166.885 20.9268C166.852 20.7087 166.803 20.5247 166.738 20.375C166.676 20.222 166.598 20.0983 166.504 20.0039C166.41 19.9062 166.302 19.8363 166.182 19.7939C166.061 19.7484 165.926 19.7256 165.776 19.7256C165.594 19.7256 165.431 19.7614 165.288 19.833C165.145 19.9014 165.024 20.012 164.927 20.165C164.829 20.318 164.754 20.5199 164.702 20.7705C164.653 21.0179 164.629 21.319 164.629 21.6738V23.1777C164.629 23.4642 164.645 23.7165 164.678 23.9346C164.71 24.1527 164.759 24.3398 164.824 24.4961C164.889 24.6491 164.967 24.776 165.059 24.877C165.153 24.9746 165.26 25.0462 165.381 25.0918C165.505 25.1374 165.64 25.1602 165.786 25.1602C165.972 25.1602 166.136 25.1243 166.279 25.0527C166.423 24.9811 166.543 24.8672 166.641 24.7109C166.738 24.5514 166.812 24.3447 166.86 24.0908C166.909 23.8369 166.934 23.5326 166.934 23.1777ZM173.809 24.0615C173.809 24.5042 173.706 24.877 173.501 25.1797C173.296 25.4824 173.016 25.7119 172.661 25.8682C172.31 26.0212 171.912 26.0977 171.47 26.0977C171.027 26.0977 170.628 26.0212 170.273 25.8682C169.919 25.7119 169.639 25.4824 169.434 25.1797C169.229 24.877 169.126 24.5042 169.126 24.0615C169.126 23.7686 169.183 23.5033 169.297 23.2656C169.411 23.0247 169.572 22.818 169.78 22.6455C169.992 22.4697 170.239 22.3346 170.522 22.2402C170.809 22.1458 171.121 22.0986 171.46 22.0986C171.909 22.0986 172.311 22.1816 172.666 22.3477C173.021 22.5137 173.299 22.7432 173.501 23.0361C173.706 23.3291 173.809 23.6709 173.809 24.0615ZM172.627 24.0029C172.627 23.7653 172.578 23.557 172.48 23.3779C172.383 23.1989 172.246 23.0605 172.07 22.9629C171.895 22.8652 171.691 22.8164 171.46 22.8164C171.226 22.8164 171.022 22.8652 170.85 22.9629C170.677 23.0605 170.542 23.1989 170.444 23.3779C170.35 23.557 170.303 23.7653 170.303 24.0029C170.303 24.2438 170.35 24.4521 170.444 24.6279C170.539 24.8005 170.674 24.9323 170.85 25.0234C171.025 25.1146 171.232 25.1602 171.47 25.1602C171.707 25.1602 171.912 25.1146 172.085 25.0234C172.257 24.9323 172.391 24.8005 172.485 24.6279C172.58 24.4521 172.627 24.2438 172.627 24.0029ZM173.647 20.7607C173.647 21.1156 173.553 21.4313 173.364 21.708C173.179 21.9847 172.922 22.2028 172.593 22.3623C172.264 22.5186 171.89 22.5967 171.47 22.5967C171.047 22.5967 170.669 22.5186 170.337 22.3623C170.008 22.2028 169.749 21.9847 169.561 21.708C169.375 21.4313 169.282 21.1156 169.282 20.7607C169.282 20.3376 169.375 19.9811 169.561 19.6914C169.749 19.3984 170.008 19.1755 170.337 19.0225C170.666 18.8695 171.042 18.793 171.465 18.793C171.888 18.793 172.264 18.8695 172.593 19.0225C172.922 19.1755 173.179 19.3984 173.364 19.6914C173.553 19.9811 173.647 20.3376 173.647 20.7607ZM172.471 20.7998C172.471 20.5882 172.428 20.4027 172.344 20.2432C172.262 20.0804 172.147 19.9535 171.997 19.8623C171.847 19.7712 171.67 19.7256 171.465 19.7256C171.26 19.7256 171.082 19.7695 170.933 19.8574C170.783 19.9453 170.667 20.069 170.586 20.2285C170.505 20.388 170.464 20.5785 170.464 20.7998C170.464 21.0179 170.505 21.2083 170.586 21.3711C170.667 21.5306 170.783 21.6559 170.933 21.7471C171.086 21.8382 171.265 21.8838 171.47 21.8838C171.675 21.8838 171.852 21.8382 172.002 21.7471C172.152 21.6559 172.267 21.5306 172.349 21.3711C172.43 21.2083 172.471 21.0179 172.471 20.7998ZM176.016 24.8672L176.011 25.707C176.011 26.0391 175.928 26.3809 175.762 26.7324C175.596 27.084 175.376 27.3737 175.103 27.6016L174.473 27.2354C174.564 27.0889 174.647 26.9408 174.722 26.791C174.797 26.6413 174.857 26.4818 174.902 26.3125C174.948 26.1432 174.971 25.9561 174.971 25.751V24.8672H176.016ZM184.336 25.0625V26H179.57V25.1943L181.885 22.6699C182.139 22.3835 182.339 22.1361 182.485 21.9277C182.632 21.7194 182.734 21.5322 182.793 21.3662C182.855 21.1969 182.886 21.0326 182.886 20.873C182.886 20.6484 182.843 20.4515 182.759 20.2822C182.677 20.1097 182.557 19.9746 182.397 19.877C182.238 19.776 182.044 19.7256 181.816 19.7256C181.553 19.7256 181.331 19.7826 181.152 19.8965C180.973 20.0104 180.838 20.1683 180.747 20.3701C180.656 20.5687 180.61 20.7965 180.61 21.0537H179.434C179.434 20.6403 179.528 20.2627 179.717 19.9209C179.906 19.5758 180.179 19.3024 180.537 19.1006C180.895 18.8955 181.326 18.793 181.831 18.793C182.306 18.793 182.71 18.8727 183.042 19.0322C183.374 19.1917 183.626 19.418 183.799 19.7109C183.975 20.0039 184.062 20.3506 184.062 20.751C184.062 20.9723 184.027 21.1921 183.955 21.4102C183.883 21.6283 183.781 21.8464 183.647 22.0645C183.517 22.2793 183.363 22.4958 183.184 22.7139C183.005 22.9287 182.808 23.1468 182.593 23.3682L181.055 25.0625H184.336ZM190.151 23.4658V24.4033H185.024L184.985 23.6953L188.052 18.8906H188.994L187.974 20.6387L186.211 23.4658H190.151ZM189.263 18.8906V26H188.086V18.8906H189.263Z" fill="black" fill-opacity="0.5"/>
</g>
<path d="M14.4043 61H12.5293L12.541 59.5234H14.4043C14.8301 59.5234 15.1895 59.4258 15.4824 59.2305C15.7754 59.0312 15.998 58.7383 16.1504 58.3516C16.3027 57.9609 16.3789 57.4863 16.3789 56.9277V56.5352C16.3789 56.1133 16.3359 55.7422 16.25 55.4219C16.1641 55.0977 16.0371 54.8262 15.8691 54.6074C15.7012 54.3887 15.4922 54.2246 15.2422 54.1152C14.9961 54.0059 14.7129 53.9512 14.3926 53.9512H12.4941V52.4688H14.3926C14.9707 52.4688 15.498 52.5664 15.9746 52.7617C16.4551 52.957 16.8691 53.2363 17.2168 53.5996C17.5684 53.9629 17.8398 54.3926 18.0312 54.8887C18.2227 55.3848 18.3184 55.9375 18.3184 56.5469V56.9277C18.3184 57.5332 18.2227 58.0859 18.0312 58.5859C17.8398 59.082 17.5684 59.5117 17.2168 59.875C16.8691 60.2344 16.457 60.5117 15.9805 60.707C15.5039 60.9023 14.9785 61 14.4043 61ZM13.6133 52.4688V61H11.7031V52.4688H13.6133ZM22.3789 61.1172C21.875 61.1172 21.4238 61.0371 21.0254 60.877C20.627 60.7168 20.2891 60.4961 20.0117 60.2148C19.7383 59.9297 19.5293 59.6016 19.3848 59.2305C19.2402 58.8594 19.168 58.4629 19.168 58.041V57.8184C19.168 57.3457 19.2344 56.9102 19.3672 56.5117C19.5 56.1133 19.6934 55.7676 19.9473 55.4746C20.2051 55.1777 20.5215 54.9492 20.8965 54.7891C21.2715 54.625 21.6992 54.543 22.1797 54.543C22.6289 54.543 23.0293 54.6172 23.3809 54.7656C23.7324 54.9102 24.0293 55.1191 24.2715 55.3926C24.5137 55.6621 24.6973 55.9883 24.8223 56.3711C24.9512 56.75 25.0156 57.1758 25.0156 57.6484V58.3984H19.9062V57.2207H23.2227V57.0801C23.2227 56.8574 23.1816 56.6621 23.0996 56.4941C23.0215 56.3262 22.9043 56.1973 22.748 56.1074C22.5957 56.0137 22.4023 55.9668 22.168 55.9668C21.9453 55.9668 21.7598 56.0137 21.6113 56.1074C21.4629 56.2012 21.3438 56.334 21.2539 56.5059C21.168 56.6738 21.1055 56.8711 21.0664 57.0977C21.0273 57.3203 21.0078 57.5605 21.0078 57.8184V58.041C21.0078 58.2871 21.041 58.5117 21.1074 58.7148C21.1738 58.918 21.2715 59.0918 21.4004 59.2363C21.5293 59.3809 21.6855 59.4941 21.8691 59.5762C22.0527 59.6582 22.2617 59.6992 22.4961 59.6992C22.7852 59.6992 23.0605 59.6445 23.3223 59.5352C23.584 59.4219 23.8105 59.2461 24.002 59.0078L24.8574 59.9863C24.7285 60.1738 24.5469 60.3555 24.3125 60.5312C24.082 60.7031 23.8047 60.8438 23.4805 60.9531C23.1562 61.0625 22.7891 61.1172 22.3789 61.1172ZM25.9121 52H27.7402V59.4941L27.5527 61H25.9121V52ZM31.6953 57.7598V57.8828C31.6953 58.3633 31.6445 58.8008 31.543 59.1953C31.4453 59.5898 31.2949 59.9316 31.0918 60.2207C30.8887 60.5059 30.6328 60.7266 30.3242 60.8828C30.0156 61.0391 29.6523 61.1172 29.2344 61.1172C28.8477 61.1172 28.5156 61.0371 28.2383 60.877C27.9609 60.7129 27.7285 60.4863 27.541 60.1973C27.3535 59.9082 27.2012 59.5703 27.084 59.1836C26.9707 58.7969 26.8828 58.3809 26.8203 57.9355V57.7246C26.8828 57.2793 26.9707 56.8633 27.084 56.4766C27.2012 56.0898 27.3535 55.752 27.541 55.4629C27.7285 55.1738 27.959 54.9492 28.2324 54.7891C28.5098 54.625 28.8398 54.543 29.2227 54.543C29.6445 54.543 30.0098 54.623 30.3184 54.7832C30.6309 54.9434 30.8887 55.168 31.0918 55.457C31.2949 55.7422 31.4453 56.082 31.543 56.4766C31.6445 56.8672 31.6953 57.2949 31.6953 57.7598ZM29.8672 57.8828V57.7598C29.8672 57.5176 29.8496 57.2891 29.8145 57.0742C29.7832 56.8594 29.7266 56.6699 29.6445 56.5059C29.5664 56.3379 29.4551 56.207 29.3105 56.1133C29.1699 56.0156 28.9883 55.9668 28.7656 55.9668C28.5469 55.9668 28.3613 56.0039 28.209 56.0781C28.0566 56.1523 27.9336 56.2578 27.8398 56.3945C27.7461 56.5273 27.6777 56.6895 27.6348 56.8809C27.5918 57.0723 27.5684 57.2852 27.5645 57.5195V58.1406C27.5684 58.4531 27.6094 58.7266 27.6875 58.9609C27.7656 59.1953 27.8926 59.377 28.0684 59.5059C28.2441 59.6309 28.4805 59.6934 28.7773 59.6934C29.0039 59.6934 29.1875 59.6504 29.3281 59.5645C29.4727 59.4746 29.582 59.3496 29.6562 59.1895C29.7344 59.0293 29.7891 58.8379 29.8203 58.6152C29.8516 58.3926 29.8672 58.1484 29.8672 57.8828ZM36.3887 59.4707V54.6602H38.2285V61H36.5059L36.3887 59.4707ZM36.582 58.1758L37.0859 58.1641C37.0859 58.5898 37.0352 58.9824 36.9336 59.3418C36.8359 59.7012 36.6875 60.0137 36.4883 60.2793C36.293 60.5449 36.0488 60.752 35.7559 60.9004C35.4668 61.0449 35.1289 61.1172 34.7422 61.1172C34.4297 61.1172 34.1426 61.0742 33.8809 60.9883C33.623 60.8984 33.4004 60.7598 33.2129 60.5723C33.0254 60.3809 32.8809 60.1367 32.7793 59.8398C32.6777 59.5391 32.627 59.1797 32.627 58.7617V54.6602H34.4551V58.7734C34.4551 58.9375 34.4746 59.0781 34.5137 59.1953C34.5566 59.3086 34.6133 59.4023 34.6836 59.4766C34.7578 59.5508 34.8477 59.6055 34.9531 59.6406C35.0625 59.6758 35.1816 59.6934 35.3105 59.6934C35.6348 59.6934 35.8887 59.627 36.0723 59.4941C36.2598 59.3574 36.3906 59.1758 36.4648 58.9492C36.543 58.7188 36.582 58.4609 36.582 58.1758ZM43.4141 54.6602H45.0781V60.7715C45.0781 61.3535 44.9453 61.8477 44.6797 62.2539C44.418 62.6602 44.0527 62.9688 43.584 63.1797C43.1152 63.3906 42.5664 63.4961 41.9375 63.4961C41.6641 63.4961 41.3789 63.459 41.082 63.3848C40.7852 63.3145 40.5059 63.207 40.2441 63.0625C39.9824 62.9219 39.7637 62.7422 39.5879 62.5234L40.3672 61.4453C40.5469 61.6484 40.7617 61.8125 41.0117 61.9375C41.2617 62.0664 41.5469 62.1309 41.8672 62.1309C42.1602 62.1309 42.4082 62.0781 42.6113 61.9727C42.8145 61.8672 42.9688 61.7129 43.0742 61.5098C43.1836 61.3066 43.2383 61.0605 43.2383 60.7715V56.1426L43.4141 54.6602ZM39.1777 57.9062V57.7832C39.1777 57.3027 39.2363 56.8652 39.3535 56.4707C39.4707 56.0723 39.6406 55.7305 39.8633 55.4453C40.0898 55.1562 40.3613 54.9336 40.6777 54.7773C40.998 54.6211 41.3574 54.543 41.7559 54.543C42.1855 54.543 42.541 54.625 42.8223 54.7891C43.1035 54.9492 43.332 55.1758 43.5078 55.4688C43.6836 55.7578 43.8223 56.0996 43.9238 56.4941C44.0254 56.8848 44.1074 57.3086 44.1699 57.7656V57.9766C44.1074 58.4141 44.0176 58.8223 43.9004 59.2012C43.7832 59.5801 43.6309 59.9141 43.4434 60.2031C43.2559 60.4883 43.0215 60.7129 42.7402 60.877C42.4629 61.0371 42.1309 61.1172 41.7441 61.1172C41.3496 61.1172 40.9941 61.0371 40.6777 60.877C40.3613 60.7168 40.0898 60.4922 39.8633 60.2031C39.6406 59.9141 39.4707 59.5742 39.3535 59.1836C39.2363 58.793 39.1777 58.3672 39.1777 57.9062ZM41.0059 57.7832V57.9062C41.0059 58.1562 41.0293 58.3887 41.0762 58.6035C41.127 58.8184 41.2012 59.0078 41.2988 59.1719C41.4004 59.3359 41.5254 59.4648 41.6738 59.5586C41.8262 59.6484 42.0039 59.6934 42.207 59.6934C42.5039 59.6934 42.7441 59.6309 42.9277 59.5059C43.1152 59.377 43.252 59.1992 43.3379 58.9727C43.4277 58.7461 43.4746 58.4824 43.4785 58.1816V57.5664C43.4785 57.3164 43.4531 57.0918 43.4023 56.8926C43.3516 56.6934 43.2754 56.5254 43.1738 56.3887C43.0762 56.252 42.9473 56.1484 42.7871 56.0781C42.6309 56.0039 42.4414 55.9668 42.2188 55.9668C42.0195 55.9668 41.8438 56.0137 41.6914 56.1074C41.5391 56.1973 41.4121 56.3242 41.3105 56.4883C41.209 56.6523 41.1328 56.8457 41.082 57.0684C41.0312 57.2871 41.0059 57.5254 41.0059 57.7832ZM52.2734 61.1172C51.7695 61.1172 51.3184 61.0371 50.9199 60.877C50.5215 60.7168 50.1836 60.4961 49.9062 60.2148C49.6328 59.9297 49.4238 59.6016 49.2793 59.2305C49.1348 58.8594 49.0625 58.4629 49.0625 58.041V57.8184C49.0625 57.3457 49.1289 56.9102 49.2617 56.5117C49.3945 56.1133 49.5879 55.7676 49.8418 55.4746C50.0996 55.1777 50.416 54.9492 50.791 54.7891C51.166 54.625 51.5938 54.543 52.0742 54.543C52.5234 54.543 52.9238 54.6172 53.2754 54.7656C53.627 54.9102 53.9238 55.1191 54.166 55.3926C54.4082 55.6621 54.5918 55.9883 54.7168 56.3711C54.8457 56.75 54.9102 57.1758 54.9102 57.6484V58.3984H49.8008V57.2207H53.1172V57.0801C53.1172 56.8574 53.0762 56.6621 52.9941 56.4941C52.916 56.3262 52.7988 56.1973 52.6426 56.1074C52.4902 56.0137 52.2969 55.9668 52.0625 55.9668C51.8398 55.9668 51.6543 56.0137 51.5059 56.1074C51.3574 56.2012 51.2383 56.334 51.1484 56.5059C51.0625 56.6738 51 56.8711 50.9609 57.0977C50.9219 57.3203 50.9023 57.5605 50.9023 57.8184V58.041C50.9023 58.2871 50.9355 58.5117 51.002 58.7148C51.0684 58.918 51.166 59.0918 51.2949 59.2363C51.4238 59.3809 51.5801 59.4941 51.7637 59.5762C51.9473 59.6582 52.1562 59.6992 52.3906 59.6992C52.6797 59.6992 52.9551 59.6445 53.2168 59.5352C53.4785 59.4219 53.7051 59.2461 53.8965 59.0078L54.752 59.9863C54.623 60.1738 54.4414 60.3555 54.207 60.5312C53.9766 60.7031 53.6992 60.8438 53.375 60.9531C53.0508 61.0625 52.6836 61.1172 52.2734 61.1172ZM57.6348 56.1367V61H55.8066V54.6602H57.5234L57.6348 56.1367ZM59.5273 54.6133L59.498 56.3184C59.4199 56.3066 59.3184 56.2969 59.1934 56.2891C59.0684 56.2773 58.9609 56.2715 58.8711 56.2715C58.6367 56.2715 58.4336 56.3008 58.2617 56.3594C58.0938 56.4141 57.9531 56.4961 57.8398 56.6055C57.7305 56.7148 57.6484 56.8516 57.5938 57.0156C57.5391 57.1758 57.5117 57.3613 57.5117 57.5723L57.166 57.4023C57.166 56.9844 57.207 56.6016 57.2891 56.2539C57.3711 55.9062 57.4902 55.6055 57.6465 55.3516C57.8027 55.0938 57.9941 54.8945 58.2207 54.7539C58.4473 54.6133 58.7051 54.543 58.9941 54.543C59.0879 54.543 59.1836 54.5488 59.2812 54.5605C59.3789 54.5723 59.4609 54.5898 59.5273 54.6133ZM62.1113 56.1367V61H60.2832V54.6602H62L62.1113 56.1367ZM64.0039 54.6133L63.9746 56.3184C63.8965 56.3066 63.7949 56.2969 63.6699 56.2891C63.5449 56.2773 63.4375 56.2715 63.3477 56.2715C63.1133 56.2715 62.9102 56.3008 62.7383 56.3594C62.5703 56.4141 62.4297 56.4961 62.3164 56.6055C62.207 56.7148 62.125 56.8516 62.0703 57.0156C62.0156 57.1758 61.9883 57.3613 61.9883 57.5723L61.6426 57.4023C61.6426 56.9844 61.6836 56.6016 61.7656 56.2539C61.8477 55.9062 61.9668 55.6055 62.123 55.3516C62.2793 55.0938 62.4707 54.8945 62.6973 54.7539C62.9238 54.6133 63.1816 54.543 63.4707 54.543C63.5645 54.543 63.6602 54.5488 63.7578 54.5605C63.8555 54.5723 63.9375 54.5898 64.0039 54.6133ZM64.291 57.8945V57.7715C64.291 57.3066 64.3574 56.8789 64.4902 56.4883C64.623 56.0938 64.8184 55.752 65.0762 55.4629C65.334 55.1738 65.6504 54.9492 66.0254 54.7891C66.4004 54.625 66.8301 54.543 67.3145 54.543C67.8066 54.543 68.2402 54.625 68.6152 54.7891C68.9941 54.9492 69.3125 55.1738 69.5703 55.4629C69.8281 55.752 70.0234 56.0938 70.1562 56.4883C70.2891 56.8789 70.3555 57.3066 70.3555 57.7715V57.8945C70.3555 58.3555 70.2891 58.7832 70.1562 59.1777C70.0234 59.5684 69.8281 59.9102 69.5703 60.2031C69.3125 60.4922 68.9961 60.7168 68.6211 60.877C68.2461 61.0371 67.8145 61.1172 67.3262 61.1172C66.8418 61.1172 66.4102 61.0371 66.0312 60.877C65.6523 60.7168 65.334 60.4922 65.0762 60.2031C64.8184 59.9102 64.623 59.5684 64.4902 59.1777C64.3574 58.7832 64.291 58.3555 64.291 57.8945ZM66.125 57.7715V57.8945C66.125 58.1445 66.1445 58.3789 66.1836 58.5977C66.2266 58.8164 66.2949 59.0078 66.3887 59.1719C66.4824 59.3359 66.6055 59.4648 66.7578 59.5586C66.9141 59.6484 67.1035 59.6934 67.3262 59.6934C67.5488 59.6934 67.7363 59.6484 67.8887 59.5586C68.041 59.4648 68.1641 59.3359 68.2578 59.1719C68.3516 59.0078 68.418 58.8164 68.457 58.5977C68.5 58.3789 68.5215 58.1445 68.5215 57.8945V57.7715C68.5215 57.5254 68.5 57.2949 68.457 57.0801C68.418 56.8613 68.3516 56.668 68.2578 56.5C68.1641 56.332 68.0391 56.2012 67.8828 56.1074C67.7305 56.0137 67.541 55.9668 67.3145 55.9668C67.0957 55.9668 66.9102 56.0137 66.7578 56.1074C66.6055 56.2012 66.4824 56.332 66.3887 56.5C66.2949 56.668 66.2266 56.8613 66.1836 57.0801C66.1445 57.2949 66.125 57.5254 66.125 57.7715ZM73.1504 56.1367V61H71.3223V54.6602H73.0391L73.1504 56.1367ZM75.043 54.6133L75.0137 56.3184C74.9355 56.3066 74.834 56.2969 74.709 56.2891C74.584 56.2773 74.4766 56.2715 74.3867 56.2715C74.1523 56.2715 73.9492 56.3008 73.7773 56.3594C73.6094 56.4141 73.4688 56.4961 73.3555 56.6055C73.2461 56.7148 73.1641 56.8516 73.1094 57.0156C73.0547 57.1758 73.0273 57.3613 73.0273 57.5723L72.6816 57.4023C72.6816 56.9844 72.7227 56.6016 72.8047 56.2539C72.8867 55.9062 73.0059 55.6055 73.1621 55.3516C73.3184 55.0938 73.5098 54.8945 73.7363 54.7539C73.9629 54.6133 74.2207 54.543 74.5098 54.543C74.6035 54.543 74.6992 54.5488 74.7969 54.5605C74.8945 54.5723 74.9766 54.5898 75.043 54.6133Z" fill="#331436"/>
<path d="M31 93.5L21 103.5M21 93.5L31 103.5" stroke="#FF746A" stroke-width="4" stroke-linecap="round" stroke-linejoin="round"/>
<g clip-path="url(#clip2_6_323)">
<rect x="53" y="86" width="25" height="25" rx="12.5" fill="#801E8F"/>
<path d="M63.1416 94.3906V101.5H61.916V94.3906H63.1416ZM67.4434 94.3906V101.5H66.2275V94.3906H67.4434ZM69.6748 94.3906V95.3672H64.0156V94.3906H69.6748Z" fill="white"/>
<rect x="80" y="86" width="25" height="25" rx="12.5" fill="#2E4B83"/>
<path d="M90.3418 99.3662V94.3906H91.5625V99.3662C91.5625 99.8382 91.4616 100.24 91.2598 100.572C91.0579 100.904 90.7829 101.158 90.4346 101.334C90.0863 101.51 89.6908 101.598 89.248 101.598C88.7956 101.598 88.3936 101.521 88.042 101.368C87.6937 101.215 87.4202 100.981 87.2217 100.665C87.0231 100.349 86.9238 99.9489 86.9238 99.4639H88.1543C88.1543 99.7438 88.1982 99.9701 88.2861 100.143C88.3773 100.312 88.5042 100.436 88.667 100.514C88.833 100.589 89.0267 100.626 89.248 100.626C89.4596 100.626 89.6468 100.579 89.8096 100.484C89.9756 100.387 90.1058 100.245 90.2002 100.06C90.2946 99.8708 90.3418 99.6396 90.3418 99.3662ZM96.7139 99.6689C96.7139 99.5225 96.6911 99.3923 96.6455 99.2783C96.6032 99.1644 96.5267 99.0602 96.416 98.9658C96.3053 98.8714 96.1491 98.7803 95.9473 98.6924C95.7487 98.6012 95.4948 98.5085 95.1855 98.4141C94.847 98.3099 94.5345 98.1943 94.248 98.0674C93.9648 97.9372 93.7174 97.7874 93.5059 97.6182C93.2943 97.4456 93.1299 97.2487 93.0127 97.0273C92.8955 96.8027 92.8369 96.5439 92.8369 96.251C92.8369 95.9613 92.8971 95.6976 93.0176 95.46C93.1413 95.2223 93.3154 95.0173 93.54 94.8447C93.7679 94.6689 94.0365 94.5339 94.3457 94.4395C94.6549 94.3418 94.9967 94.293 95.3711 94.293C95.8984 94.293 96.3525 94.3906 96.7334 94.5859C97.1175 94.7812 97.4121 95.0433 97.6172 95.3721C97.8255 95.7008 97.9297 96.0638 97.9297 96.4609H96.7139C96.7139 96.2266 96.6634 96.0199 96.5625 95.8408C96.4648 95.6585 96.3151 95.5153 96.1133 95.4111C95.9147 95.307 95.6624 95.2549 95.3564 95.2549C95.0667 95.2549 94.8258 95.2988 94.6338 95.3867C94.4417 95.4746 94.2985 95.5934 94.2041 95.7432C94.1097 95.8929 94.0625 96.0622 94.0625 96.251C94.0625 96.3844 94.0934 96.5065 94.1553 96.6172C94.2171 96.7246 94.3115 96.8255 94.4385 96.9199C94.5654 97.0111 94.7249 97.0973 94.917 97.1787C95.109 97.2601 95.3353 97.3382 95.5957 97.4131C95.9896 97.5303 96.333 97.6605 96.626 97.8037C96.9189 97.9437 97.1631 98.1032 97.3584 98.2822C97.5537 98.4613 97.7002 98.6647 97.7979 98.8926C97.8955 99.1172 97.9443 99.3727 97.9443 99.6592C97.9443 99.9587 97.8841 100.229 97.7637 100.47C97.6432 100.707 97.4707 100.911 97.2461 101.08C97.0247 101.246 96.7578 101.375 96.4453 101.466C96.1361 101.554 95.791 101.598 95.4102 101.598C95.0684 101.598 94.7314 101.552 94.3994 101.461C94.0706 101.37 93.7712 101.231 93.501 101.046C93.2308 100.857 93.016 100.623 92.8564 100.343C92.6969 100.06 92.6172 99.7292 92.6172 99.3516H93.8428C93.8428 99.5827 93.8818 99.7796 93.96 99.9424C94.0413 100.105 94.1536 100.239 94.2969 100.343C94.4401 100.444 94.6061 100.519 94.7949 100.567C94.987 100.616 95.1921 100.641 95.4102 100.641C95.6966 100.641 95.9359 100.6 96.1279 100.519C96.3232 100.437 96.4697 100.323 96.5674 100.177C96.665 100.03 96.7139 99.861 96.7139 99.6689Z" fill="white"/>
<rect x="107" y="86" width="25" height="25" rx="12.5" fill="#D92B93"/>
<path d="M119.285 94.3906V101.5H118.06L114.871 96.4072V101.5H113.646V94.3906H114.871L118.069 99.4932V94.3906H119.285ZM124.485 99.6689C124.485 99.5225 124.463 99.3923 124.417 99.2783C124.375 99.1644 124.298 99.0602 124.188 98.9658C124.077 98.8714 123.921 98.7803 123.719 98.6924C123.52 98.6012 123.266 98.5085 122.957 98.4141C122.618 98.3099 122.306 98.1943 122.02 98.0674C121.736 97.9372 121.489 97.7874 121.277 97.6182C121.066 97.4456 120.901 97.2487 120.784 97.0273C120.667 96.8027 120.608 96.5439 120.608 96.251C120.608 95.9613 120.669 95.6976 120.789 95.46C120.913 95.2223 121.087 95.0173 121.312 94.8447C121.539 94.6689 121.808 94.5339 122.117 94.4395C122.426 94.3418 122.768 94.293 123.143 94.293C123.67 94.293 124.124 94.3906 124.505 94.5859C124.889 94.7812 125.184 95.0433 125.389 95.3721C125.597 95.7008 125.701 96.0638 125.701 96.4609H124.485C124.485 96.2266 124.435 96.0199 124.334 95.8408C124.236 95.6585 124.087 95.5153 123.885 95.4111C123.686 95.307 123.434 95.2549 123.128 95.2549C122.838 95.2549 122.597 95.2988 122.405 95.3867C122.213 95.4746 122.07 95.5934 121.976 95.7432C121.881 95.8929 121.834 96.0622 121.834 96.251C121.834 96.3844 121.865 96.5065 121.927 96.6172C121.989 96.7246 122.083 96.8255 122.21 96.9199C122.337 97.0111 122.496 97.0973 122.688 97.1787C122.881 97.2601 123.107 97.3382 123.367 97.4131C123.761 97.5303 124.104 97.6605 124.397 97.8037C124.69 97.9437 124.935 98.1032 125.13 98.2822C125.325 98.4613 125.472 98.6647 125.569 98.8926C125.667 99.1172 125.716 99.3727 125.716 99.6592C125.716 99.9587 125.656 100.229 125.535 100.47C125.415 100.707 125.242 100.911 125.018 101.08C124.796 101.246 124.529 101.375 124.217 101.466C123.908 101.554 123.562 101.598 123.182 101.598C122.84 101.598 122.503 101.552 122.171 101.461C121.842 101.37 121.543 101.231 121.272 101.046C121.002 100.857 120.787 100.623 120.628 100.343C120.468 100.06 120.389 99.7292 120.389 99.3516H121.614C121.614 99.5827 121.653 99.7796 121.731 99.9424C121.813 100.105 121.925 100.239 122.068 100.343C122.212 100.444 122.378 100.519 122.566 100.567C122.758 100.616 122.964 100.641 123.182 100.641C123.468 100.641 123.707 100.6 123.899 100.519C124.095 100.437 124.241 100.323 124.339 100.177C124.437 100.03 124.485 99.861 124.485 99.6689Z" fill="white"/>
<rect x="134" y="86" width="25" height="25" rx="12.5" fill="#1A712D"/>
<path d="M145.87 100.528V101.5H142.301V100.528H145.87ZM142.643 94.3906V101.5H141.417V94.3906H142.643ZM150.694 99.1855H151.915C151.876 99.651 151.746 100.066 151.524 100.431C151.303 100.792 150.992 101.077 150.592 101.285C150.191 101.493 149.705 101.598 149.132 101.598C148.692 101.598 148.297 101.52 147.945 101.363C147.594 101.204 147.293 100.979 147.042 100.689C146.791 100.396 146.599 100.043 146.466 99.6299C146.336 99.2165 146.271 98.7542 146.271 98.2432V97.6523C146.271 97.1413 146.337 96.679 146.471 96.2656C146.607 95.8522 146.803 95.499 147.057 95.2061C147.311 94.9098 147.615 94.6836 147.97 94.5273C148.328 94.3711 148.73 94.293 149.176 94.293C149.742 94.293 150.221 94.3971 150.611 94.6055C151.002 94.8138 151.305 95.1019 151.52 95.4697C151.738 95.8376 151.871 96.2591 151.92 96.7344H150.699C150.667 96.4284 150.595 96.1663 150.484 95.9482C150.377 95.7301 150.217 95.5641 150.006 95.4502C149.794 95.333 149.518 95.2744 149.176 95.2744C148.896 95.2744 148.652 95.3265 148.443 95.4307C148.235 95.5348 148.061 95.6878 147.921 95.8896C147.781 96.0915 147.675 96.3405 147.604 96.6367C147.535 96.9297 147.501 97.265 147.501 97.6426V98.2432C147.501 98.6012 147.532 98.9268 147.594 99.2197C147.659 99.5094 147.757 99.7585 147.887 99.9668C148.02 100.175 148.189 100.336 148.395 100.45C148.6 100.564 148.845 100.621 149.132 100.621C149.48 100.621 149.762 100.566 149.977 100.455C150.195 100.344 150.359 100.183 150.47 99.9717C150.584 99.7568 150.659 99.4948 150.694 99.1855Z" fill="white"/>
<rect x="161" y="86" width="25" height="25" rx="12.5" fill="#AF4A00"/>
<path d="M171.898 97.8672V100.582C171.798 100.715 171.64 100.862 171.425 101.021C171.213 101.178 170.932 101.313 170.58 101.427C170.229 101.541 169.791 101.598 169.267 101.598C168.821 101.598 168.412 101.523 168.041 101.373C167.67 101.22 167.349 100.997 167.079 100.704C166.812 100.411 166.605 100.055 166.459 99.6348C166.312 99.2116 166.239 98.7298 166.239 98.1895V97.6963C166.239 97.1592 166.306 96.6807 166.439 96.2607C166.576 95.8376 166.771 95.4795 167.025 95.1865C167.279 94.8936 167.585 94.6722 167.943 94.5225C168.305 94.3695 168.713 94.293 169.169 94.293C169.752 94.293 170.233 94.3906 170.614 94.5859C170.998 94.778 171.295 95.0449 171.503 95.3867C171.711 95.7285 171.843 96.1191 171.898 96.5586H170.697C170.658 96.3112 170.582 96.0898 170.468 95.8945C170.357 95.6992 170.198 95.5462 169.989 95.4355C169.784 95.3216 169.517 95.2646 169.188 95.2646C168.905 95.2646 168.656 95.3184 168.441 95.4258C168.227 95.5332 168.048 95.6911 167.904 95.8994C167.764 96.1077 167.659 96.3617 167.587 96.6611C167.515 96.9606 167.479 97.3024 167.479 97.6865V98.1895C167.479 98.5801 167.52 98.9268 167.602 99.2295C167.686 99.5322 167.807 99.7878 167.963 99.9961C168.122 100.204 168.316 100.362 168.544 100.47C168.772 100.574 169.029 100.626 169.315 100.626C169.595 100.626 169.825 100.603 170.004 100.558C170.183 100.509 170.325 100.452 170.429 100.387C170.536 100.318 170.619 100.253 170.678 100.191V98.7803H169.198V97.8672H171.898ZM173.754 94.3906H174.848L176.903 99.874L178.954 94.3906H180.048L177.333 101.5H176.464L173.754 94.3906ZM173.256 94.3906H174.296L174.477 99.1367V101.5H173.256V94.3906ZM179.506 94.3906H180.551V101.5H179.325V99.1367L179.506 94.3906Z" fill="white"/>
</g>
<defs>
<clipPath id="clip0_6_323">
<rect width="180" height="24" fill="white" transform="translate(11 11)"/>
</clipPath>
<clipPath id="clip1_6_323">
<rect x="11" y="15.5" width="30" height="15" rx="7.5" fill="white"/>
</clipPath>
<clipPath id="clip2_6_323">
<rect width="133" height="25" fill="white" transform="translate(53 86)"/>
</clipPath>
</defs>
</svg>
