<svg width="202" height="129" viewBox="0 0 202 129" fill="none" xmlns="http://www.w3.org/2000/svg">
<rect x="0.5" y="0.5" width="201" height="128" rx="8.5" fill="#F8F2FF"/>
<rect x="0.5" y="0.5" width="201" height="128" rx="8.5" stroke="#331436"/>
<g clip-path="url(#clip0_6_216)">
<g clip-path="url(#clip1_6_216)">
<rect x="11" y="15.5" width="30" height="15" rx="7.5" fill="#EB9961"/>
<path d="M18.7539 18.8906H19.8477L21.9033 24.374L23.9541 18.8906H25.0479L22.333 26H21.4639L18.7539 18.8906ZM18.2559 18.8906H19.2959L19.4766 23.6367V26H18.2559V18.8906ZM24.5059 18.8906H25.5508V26H24.3252V23.6367L24.5059 18.8906ZM28.1484 20.7168V26H26.9668V20.7168H28.1484ZM26.8887 19.3301C26.8887 19.151 26.9473 19.0029 27.0645 18.8857C27.1849 18.7653 27.3509 18.7051 27.5625 18.7051C27.7708 18.7051 27.9352 18.7653 28.0557 18.8857C28.1761 19.0029 28.2363 19.151 28.2363 19.3301C28.2363 19.5059 28.1761 19.6523 28.0557 19.7695C27.9352 19.8867 27.7708 19.9453 27.5625 19.9453C27.3509 19.9453 27.1849 19.8867 27.0645 19.7695C26.9473 19.6523 26.8887 19.5059 26.8887 19.3301ZM32.6602 24.9062V18.5H33.8418V26H32.7725L32.6602 24.9062ZM29.2227 23.417V23.3145C29.2227 22.9141 29.2699 22.5495 29.3643 22.2207C29.4587 21.8887 29.5954 21.6038 29.7744 21.3662C29.9535 21.1253 30.1715 20.9414 30.4287 20.8145C30.6859 20.6842 30.9756 20.6191 31.2979 20.6191C31.6169 20.6191 31.8968 20.681 32.1377 20.8047C32.3786 20.9284 32.5837 21.1058 32.7529 21.3369C32.9222 21.5648 33.0573 21.8382 33.1582 22.1572C33.2591 22.473 33.3307 22.8245 33.373 23.2119V23.5391C33.3307 23.9167 33.2591 24.2617 33.1582 24.5742C33.0573 24.8867 32.9222 25.1569 32.7529 25.3848C32.5837 25.6126 32.377 25.7884 32.1328 25.9121C31.8919 26.0358 31.6104 26.0977 31.2881 26.0977C30.9691 26.0977 30.681 26.0309 30.4238 25.8975C30.1699 25.764 29.9535 25.5768 29.7744 25.3359C29.5954 25.0951 29.4587 24.8118 29.3643 24.4863C29.2699 24.1576 29.2227 23.8011 29.2227 23.417ZM30.3994 23.3145V23.417C30.3994 23.6579 30.4206 23.8825 30.4629 24.0908C30.5085 24.2992 30.5785 24.4831 30.6729 24.6426C30.7673 24.7988 30.8893 24.9225 31.0391 25.0137C31.1921 25.1016 31.3743 25.1455 31.5859 25.1455C31.8529 25.1455 32.0726 25.0869 32.2451 24.9697C32.4176 24.8525 32.5527 24.6947 32.6504 24.4961C32.7513 24.2943 32.8197 24.0697 32.8555 23.8223V22.9385C32.8359 22.7464 32.7952 22.5674 32.7334 22.4014C32.6748 22.2354 32.5951 22.0905 32.4941 21.9668C32.3932 21.8398 32.2679 21.7422 32.1182 21.6738C31.9717 21.6022 31.7975 21.5664 31.5957 21.5664C31.3809 21.5664 31.1986 21.612 31.0488 21.7031C30.8991 21.7943 30.7754 21.9196 30.6777 22.0791C30.5833 22.2386 30.5133 22.4242 30.4678 22.6357C30.4222 22.8473 30.3994 23.0736 30.3994 23.3145Z" fill="#CB4F57"/>
</g>
<rect x="11.5" y="16" width="29" height="14" rx="7" stroke="#CB4F57"/>
<path d="M151.392 22.25V22.6406C151.392 23.1777 151.322 23.6595 151.182 24.0859C151.042 24.5124 150.841 24.8753 150.581 25.1748C150.324 25.4743 150.015 25.7038 149.653 25.8633C149.292 26.0195 148.892 26.0977 148.452 26.0977C148.016 26.0977 147.617 26.0195 147.256 25.8633C146.898 25.7038 146.587 25.4743 146.323 25.1748C146.06 24.8753 145.854 24.5124 145.708 24.0859C145.565 23.6595 145.493 23.1777 145.493 22.6406V22.25C145.493 21.7129 145.565 21.2327 145.708 20.8096C145.851 20.3831 146.053 20.0202 146.313 19.7207C146.577 19.418 146.888 19.1885 147.246 19.0322C147.607 18.8727 148.006 18.793 148.442 18.793C148.882 18.793 149.282 18.8727 149.644 19.0322C150.005 19.1885 150.316 19.418 150.576 19.7207C150.837 20.0202 151.037 20.3831 151.177 20.8096C151.32 21.2327 151.392 21.7129 151.392 22.25ZM150.166 22.6406V22.2402C150.166 21.8431 150.127 21.4932 150.049 21.1904C149.974 20.8844 149.862 20.6289 149.712 20.4238C149.565 20.2155 149.385 20.0592 149.17 19.9551C148.955 19.8477 148.713 19.7939 148.442 19.7939C148.172 19.7939 147.931 19.8477 147.72 19.9551C147.508 20.0592 147.327 20.2155 147.178 20.4238C147.031 20.6289 146.919 20.8844 146.841 21.1904C146.763 21.4932 146.724 21.8431 146.724 22.2402V22.6406C146.724 23.0378 146.763 23.3893 146.841 23.6953C146.919 24.0013 147.033 24.2601 147.183 24.4717C147.336 24.68 147.518 24.8379 147.729 24.9453C147.941 25.0495 148.182 25.1016 148.452 25.1016C148.726 25.1016 148.968 25.0495 149.18 24.9453C149.391 24.8379 149.57 24.68 149.717 24.4717C149.863 24.2601 149.974 24.0013 150.049 23.6953C150.127 23.3893 150.166 23.0378 150.166 22.6406ZM154.658 25.1602C154.85 25.1602 155.023 25.1227 155.176 25.0479C155.332 24.9697 155.457 24.8623 155.552 24.7256C155.649 24.5889 155.703 24.431 155.713 24.252H156.821C156.815 24.5938 156.714 24.9046 156.519 25.1846C156.323 25.4645 156.064 25.6875 155.742 25.8535C155.42 26.0163 155.063 26.0977 154.673 26.0977C154.269 26.0977 153.918 26.0293 153.618 25.8926C153.319 25.7526 153.07 25.5605 152.871 25.3164C152.673 25.0723 152.523 24.7907 152.422 24.4717C152.324 24.1527 152.275 23.8109 152.275 23.4463V23.2754C152.275 22.9108 152.324 22.569 152.422 22.25C152.523 21.9277 152.673 21.6445 152.871 21.4004C153.07 21.1562 153.319 20.9658 153.618 20.8291C153.918 20.6891 154.268 20.6191 154.668 20.6191C155.091 20.6191 155.462 20.7038 155.781 20.873C156.1 21.0391 156.351 21.2718 156.533 21.5713C156.719 21.8675 156.815 22.2126 156.821 22.6064H155.713C155.703 22.4111 155.654 22.2354 155.566 22.0791C155.482 21.9196 155.361 21.7926 155.205 21.6982C155.052 21.6038 154.868 21.5566 154.653 21.5566C154.416 21.5566 154.219 21.6055 154.062 21.7031C153.906 21.7975 153.784 21.9277 153.696 22.0938C153.608 22.2565 153.545 22.4404 153.506 22.6455C153.47 22.8473 153.452 23.0573 153.452 23.2754V23.4463C153.452 23.6644 153.47 23.876 153.506 24.0811C153.542 24.2861 153.604 24.4701 153.691 24.6328C153.783 24.7923 153.906 24.9209 154.062 25.0186C154.219 25.113 154.417 25.1602 154.658 25.1602ZM160.146 20.7168V21.5762H157.168V20.7168H160.146ZM158.027 19.4229H159.204V24.54C159.204 24.7028 159.227 24.8281 159.272 24.916C159.321 25.0007 159.388 25.0576 159.473 25.0869C159.557 25.1162 159.657 25.1309 159.771 25.1309C159.852 25.1309 159.93 25.126 160.005 25.1162C160.08 25.1064 160.14 25.0967 160.186 25.0869L160.19 25.9854C160.093 26.0146 159.979 26.0407 159.849 26.0635C159.722 26.0863 159.575 26.0977 159.409 26.0977C159.139 26.0977 158.9 26.0505 158.691 25.9561C158.483 25.8584 158.32 25.7005 158.203 25.4824C158.086 25.2643 158.027 24.9746 158.027 24.6133V19.4229ZM168.11 21.8496V23.0117C168.11 23.5684 168.055 24.0436 167.944 24.4375C167.837 24.8281 167.681 25.1455 167.476 25.3896C167.271 25.6338 167.025 25.8128 166.738 25.9268C166.455 26.0407 166.138 26.0977 165.786 26.0977C165.506 26.0977 165.246 26.0618 165.005 25.9902C164.767 25.9186 164.552 25.8063 164.36 25.6533C164.168 25.5003 164.004 25.3034 163.867 25.0625C163.734 24.8184 163.63 24.527 163.555 24.1885C163.483 23.8499 163.447 23.4577 163.447 23.0117V21.8496C163.447 21.2897 163.503 20.8177 163.613 20.4336C163.724 20.0462 163.882 19.7321 164.087 19.4912C164.292 19.2471 164.536 19.0697 164.819 18.959C165.106 18.8483 165.425 18.793 165.776 18.793C166.06 18.793 166.32 18.8288 166.558 18.9004C166.799 18.9688 167.013 19.0778 167.202 19.2275C167.394 19.3773 167.557 19.5726 167.69 19.8135C167.827 20.0511 167.931 20.3392 168.003 20.6777C168.075 21.013 168.11 21.4036 168.11 21.8496ZM166.934 23.1777V21.6738C166.934 21.3906 166.917 21.1416 166.885 20.9268C166.852 20.7087 166.803 20.5247 166.738 20.375C166.676 20.222 166.598 20.0983 166.504 20.0039C166.41 19.9062 166.302 19.8363 166.182 19.7939C166.061 19.7484 165.926 19.7256 165.776 19.7256C165.594 19.7256 165.431 19.7614 165.288 19.833C165.145 19.9014 165.024 20.012 164.927 20.165C164.829 20.318 164.754 20.5199 164.702 20.7705C164.653 21.0179 164.629 21.319 164.629 21.6738V23.1777C164.629 23.4642 164.645 23.7165 164.678 23.9346C164.71 24.1527 164.759 24.3398 164.824 24.4961C164.889 24.6491 164.967 24.776 165.059 24.877C165.153 24.9746 165.26 25.0462 165.381 25.0918C165.505 25.1374 165.64 25.1602 165.786 25.1602C165.972 25.1602 166.136 25.1243 166.279 25.0527C166.423 24.9811 166.543 24.8672 166.641 24.7109C166.738 24.5514 166.812 24.3447 166.86 24.0908C166.909 23.8369 166.934 23.5326 166.934 23.1777ZM170.107 25.0723H170.205C170.654 25.0723 171.029 25.0137 171.328 24.8965C171.631 24.776 171.872 24.61 172.051 24.3984C172.23 24.1868 172.358 23.9378 172.437 23.6514C172.515 23.3649 172.554 23.054 172.554 22.7188V21.4932C172.554 21.2035 172.523 20.9495 172.461 20.7314C172.402 20.5101 172.318 20.3262 172.207 20.1797C172.1 20.0299 171.974 19.9176 171.831 19.8428C171.691 19.7679 171.54 19.7305 171.377 19.7305C171.198 19.7305 171.037 19.7712 170.894 19.8525C170.754 19.9307 170.635 20.0397 170.537 20.1797C170.443 20.3164 170.369 20.4775 170.317 20.6631C170.269 20.8454 170.244 21.0407 170.244 21.249C170.244 21.4443 170.267 21.6331 170.312 21.8154C170.361 21.9945 170.433 22.154 170.527 22.2939C170.622 22.4339 170.741 22.5446 170.884 22.626C171.027 22.7074 171.195 22.748 171.387 22.748C171.569 22.748 171.737 22.7139 171.89 22.6455C172.043 22.5739 172.176 22.4779 172.29 22.3574C172.404 22.237 172.493 22.1019 172.559 21.9521C172.624 21.8024 172.66 21.6494 172.666 21.4932L173.115 21.6299C173.115 21.8773 173.063 22.1214 172.959 22.3623C172.858 22.5999 172.716 22.818 172.534 23.0166C172.355 23.2119 172.145 23.3682 171.904 23.4854C171.667 23.6025 171.408 23.6611 171.128 23.6611C170.789 23.6611 170.49 23.5977 170.229 23.4707C169.972 23.3405 169.757 23.1647 169.585 22.9434C169.416 22.722 169.289 22.4681 169.204 22.1816C169.119 21.8952 169.077 21.5941 169.077 21.2783C169.077 20.9365 169.129 20.6159 169.233 20.3164C169.338 20.0169 169.489 19.7533 169.688 19.5254C169.886 19.2943 170.127 19.1152 170.41 18.9883C170.697 18.8581 171.021 18.793 171.382 18.793C171.766 18.793 172.103 18.8678 172.393 19.0176C172.682 19.1673 172.926 19.374 173.125 19.6377C173.324 19.9014 173.473 20.2074 173.574 20.5557C173.675 20.904 173.726 21.2783 173.726 21.6787V22.0938C173.726 22.5137 173.688 22.9189 173.613 23.3096C173.538 23.6969 173.416 24.0566 173.247 24.3887C173.081 24.7174 172.861 25.0072 172.588 25.2578C172.318 25.5052 171.986 25.6989 171.592 25.8389C171.201 25.9756 170.742 26.0439 170.215 26.0439H170.107V25.0723ZM176.016 24.8672L176.011 25.707C176.011 26.0391 175.928 26.3809 175.762 26.7324C175.596 27.084 175.376 27.3737 175.103 27.6016L174.473 27.2354C174.564 27.0889 174.647 26.9408 174.722 26.791C174.797 26.6413 174.857 26.4818 174.902 26.3125C174.948 26.1432 174.971 25.9561 174.971 25.751V24.8672H176.016ZM184.336 25.0625V26H179.57V25.1943L181.885 22.6699C182.139 22.3835 182.339 22.1361 182.485 21.9277C182.632 21.7194 182.734 21.5322 182.793 21.3662C182.855 21.1969 182.886 21.0326 182.886 20.873C182.886 20.6484 182.843 20.4515 182.759 20.2822C182.677 20.1097 182.557 19.9746 182.397 19.877C182.238 19.776 182.044 19.7256 181.816 19.7256C181.553 19.7256 181.331 19.7826 181.152 19.8965C180.973 20.0104 180.838 20.1683 180.747 20.3701C180.656 20.5687 180.61 20.7965 180.61 21.0537H179.434C179.434 20.6403 179.528 20.2627 179.717 19.9209C179.906 19.5758 180.179 19.3024 180.537 19.1006C180.895 18.8955 181.326 18.793 181.831 18.793C182.306 18.793 182.71 18.8727 183.042 19.0322C183.374 19.1917 183.626 19.418 183.799 19.7109C183.975 20.0039 184.062 20.3506 184.062 20.751C184.062 20.9723 184.027 21.1921 183.955 21.4102C183.883 21.6283 183.781 21.8464 183.647 22.0645C183.517 22.2793 183.363 22.4958 183.184 22.7139C183.005 22.9287 182.808 23.1468 182.593 23.3682L181.055 25.0625H184.336ZM190.151 23.4658V24.4033H185.024L184.985 23.6953L188.052 18.8906H188.994L187.974 20.6387L186.211 23.4658H190.151ZM189.263 18.8906V26H188.086V18.8906H189.263Z" fill="black" fill-opacity="0.5"/>
</g>
<path d="M15.6758 52.4688V61H13.7715V52.4688H15.6758ZM18.2715 52.4688V53.9512H11.2285V52.4688H18.2715ZM20.5566 56.1367V61H18.7285V54.6602H20.4453L20.5566 56.1367ZM22.4492 54.6133L22.4199 56.3184C22.3418 56.3066 22.2402 56.2969 22.1152 56.2891C21.9902 56.2773 21.8828 56.2715 21.793 56.2715C21.5586 56.2715 21.3555 56.3008 21.1836 56.3594C21.0156 56.4141 20.875 56.4961 20.7617 56.6055C20.6523 56.7148 20.5703 56.8516 20.5156 57.0156C20.4609 57.1758 20.4336 57.3613 20.4336 57.5723L20.0879 57.4023C20.0879 56.9844 20.1289 56.6016 20.2109 56.2539C20.293 55.9062 20.4121 55.6055 20.5684 55.3516C20.7246 55.0938 20.916 54.8945 21.1426 54.7539C21.3691 54.6133 21.627 54.543 21.916 54.543C22.0098 54.543 22.1055 54.5488 22.2031 54.5605C22.3008 54.5723 22.3828 54.5898 22.4492 54.6133ZM26.3691 59.4883V56.7695C26.3691 56.5781 26.3398 56.4141 26.2812 56.2773C26.2227 56.1406 26.1309 56.0332 26.0059 55.9551C25.8809 55.877 25.7188 55.8379 25.5195 55.8379C25.3516 55.8379 25.2051 55.8672 25.0801 55.9258C24.959 55.9844 24.8652 56.0684 24.7988 56.1777C24.7363 56.2871 24.7051 56.4219 24.7051 56.582H22.877C22.877 56.2969 22.9414 56.0312 23.0703 55.7852C23.1992 55.5391 23.3828 55.3223 23.6211 55.1348C23.8633 54.9473 24.1523 54.8027 24.4883 54.7012C24.8242 54.5957 25.2012 54.543 25.6191 54.543C26.1152 54.543 26.5566 54.627 26.9434 54.7949C27.334 54.959 27.6426 55.207 27.8691 55.5391C28.0957 55.8672 28.209 56.2812 28.209 56.7812V59.4355C28.209 59.8184 28.2305 60.1191 28.2734 60.3379C28.3203 60.5527 28.3867 60.7402 28.4727 60.9004V61H26.627C26.541 60.8164 26.4766 60.5898 26.4336 60.3203C26.3906 60.0469 26.3691 59.7695 26.3691 59.4883ZM26.5977 57.1328L26.6094 58.1406H25.7012C25.498 58.1406 25.3223 58.166 25.1738 58.2168C25.0293 58.2676 24.9121 58.3379 24.8223 58.4277C24.7324 58.5137 24.666 58.6152 24.623 58.7324C24.584 58.8457 24.5645 58.9707 24.5645 59.1074C24.5645 59.2363 24.5957 59.3535 24.6582 59.459C24.7207 59.5605 24.8066 59.6406 24.916 59.6992C25.0254 59.7578 25.1523 59.7871 25.2969 59.7871C25.5352 59.7871 25.7383 59.7402 25.9062 59.6465C26.0781 59.5527 26.2109 59.4395 26.3047 59.3066C26.3984 59.1699 26.4453 59.043 26.4453 58.9258L26.8848 59.6875C26.8145 59.8438 26.7285 60.0059 26.627 60.1738C26.5254 60.3379 26.3965 60.4922 26.2402 60.6367C26.084 60.7773 25.8945 60.8926 25.6719 60.9824C25.4531 61.0723 25.1895 61.1172 24.8809 61.1172C24.4824 61.1172 24.1211 61.0371 23.7969 60.877C23.4727 60.7129 23.2129 60.4883 23.0176 60.2031C22.8262 59.918 22.7305 59.5898 22.7305 59.2188C22.7305 58.8867 22.791 58.5918 22.9121 58.334C23.0332 58.0762 23.2148 57.8574 23.457 57.6777C23.7031 57.498 24.0117 57.3633 24.3828 57.2734C24.7539 57.1797 25.1875 57.1328 25.6836 57.1328H26.5977ZM31.3379 54.6602V61H29.5039V54.6602H31.3379ZM29.3926 53.0195C29.3926 52.7539 29.4863 52.5371 29.6738 52.3691C29.8613 52.1973 30.1074 52.1113 30.4121 52.1113C30.7168 52.1113 30.9629 52.1973 31.1504 52.3691C31.3418 52.5371 31.4375 52.7539 31.4375 53.0195C31.4375 53.2812 31.3418 53.498 31.1504 53.6699C30.9629 53.8379 30.7168 53.9219 30.4121 53.9219C30.1074 53.9219 29.8613 53.8379 29.6738 53.6699C29.4863 53.498 29.3926 53.2812 29.3926 53.0195ZM34.4492 56.0137V61H32.6152V54.6602H34.3379L34.4492 56.0137ZM34.209 57.6074L33.752 57.6191C33.752 57.1426 33.8105 56.7148 33.9277 56.3359C34.0449 55.957 34.2109 55.6348 34.4258 55.3691C34.6445 55.0996 34.9043 54.8945 35.2051 54.7539C35.5098 54.6133 35.8457 54.543 36.2129 54.543C36.5098 54.543 36.7812 54.5859 37.0273 54.6719C37.2734 54.7578 37.4844 54.8965 37.6602 55.0879C37.8398 55.2754 37.9766 55.5254 38.0703 55.8379C38.1641 56.1465 38.2109 56.5273 38.2109 56.9805V61H36.3711V56.9746C36.3711 56.709 36.334 56.5039 36.2598 56.3594C36.1855 56.2148 36.0762 56.1133 35.9316 56.0547C35.791 55.9961 35.6191 55.9668 35.416 55.9668C35.2012 55.9668 35.0176 56.0098 34.8652 56.0957C34.7129 56.1777 34.5879 56.293 34.4902 56.4414C34.3926 56.5898 34.3203 56.7637 34.2734 56.9629C34.2305 57.1621 34.209 57.377 34.209 57.6074ZM44.6738 61H42.834V54.1211C42.834 53.6328 42.9297 53.2227 43.1211 52.8906C43.3164 52.5586 43.5918 52.3066 43.9473 52.1348C44.3027 51.9629 44.7227 51.877 45.207 51.877C45.375 51.877 45.5312 51.8887 45.6758 51.9121C45.8242 51.9316 45.9688 51.959 46.1094 51.9941V53.3594C46.0352 53.3398 45.959 53.3262 45.8809 53.3184C45.8027 53.3105 45.709 53.3066 45.5996 53.3066C45.4043 53.3066 45.2363 53.3379 45.0957 53.4004C44.959 53.459 44.8535 53.5508 44.7793 53.6758C44.709 53.7969 44.6738 53.9453 44.6738 54.1211V61ZM45.9277 54.6602V55.9434H41.9082V54.6602H45.9277ZM46.4551 57.8945V57.7715C46.4551 57.3066 46.5215 56.8789 46.6543 56.4883C46.7871 56.0938 46.9824 55.752 47.2402 55.4629C47.498 55.1738 47.8145 54.9492 48.1895 54.7891C48.5645 54.625 48.9941 54.543 49.4785 54.543C49.9707 54.543 50.4043 54.625 50.7793 54.7891C51.1582 54.9492 51.4766 55.1738 51.7344 55.4629C51.9922 55.752 52.1875 56.0938 52.3203 56.4883C52.4531 56.8789 52.5195 57.3066 52.5195 57.7715V57.8945C52.5195 58.3555 52.4531 58.7832 52.3203 59.1777C52.1875 59.5684 51.9922 59.9102 51.7344 60.2031C51.4766 60.4922 51.1602 60.7168 50.7852 60.877C50.4102 61.0371 49.9785 61.1172 49.4902 61.1172C49.0059 61.1172 48.5742 61.0371 48.1953 60.877C47.8164 60.7168 47.498 60.4922 47.2402 60.2031C46.9824 59.9102 46.7871 59.5684 46.6543 59.1777C46.5215 58.7832 46.4551 58.3555 46.4551 57.8945ZM48.2891 57.7715V57.8945C48.2891 58.1445 48.3086 58.3789 48.3477 58.5977C48.3906 58.8164 48.459 59.0078 48.5527 59.1719C48.6465 59.3359 48.7695 59.4648 48.9219 59.5586C49.0781 59.6484 49.2676 59.6934 49.4902 59.6934C49.7129 59.6934 49.9004 59.6484 50.0527 59.5586C50.2051 59.4648 50.3281 59.3359 50.4219 59.1719C50.5156 59.0078 50.582 58.8164 50.6211 58.5977C50.6641 58.3789 50.6855 58.1445 50.6855 57.8945V57.7715C50.6855 57.5254 50.6641 57.2949 50.6211 57.0801C50.582 56.8613 50.5156 56.668 50.4219 56.5C50.3281 56.332 50.2031 56.2012 50.0469 56.1074C49.8945 56.0137 49.7051 55.9668 49.4785 55.9668C49.2598 55.9668 49.0742 56.0137 48.9219 56.1074C48.7695 56.2012 48.6465 56.332 48.5527 56.5C48.459 56.668 48.3906 56.8613 48.3477 57.0801C48.3086 57.2949 48.2891 57.5254 48.2891 57.7715ZM55.3145 56.1367V61H53.4863V54.6602H55.2031L55.3145 56.1367ZM57.207 54.6133L57.1777 56.3184C57.0996 56.3066 56.998 56.2969 56.873 56.2891C56.748 56.2773 56.6406 56.2715 56.5508 56.2715C56.3164 56.2715 56.1133 56.3008 55.9414 56.3594C55.7734 56.4141 55.6328 56.4961 55.5195 56.6055C55.4102 56.7148 55.3281 56.8516 55.2734 57.0156C55.2188 57.1758 55.1914 57.3613 55.1914 57.5723L54.8457 57.4023C54.8457 56.9844 54.8867 56.6016 54.9688 56.2539C55.0508 55.9062 55.1699 55.6055 55.3262 55.3516C55.4824 55.0938 55.6738 54.8945 55.9004 54.7539C56.127 54.6133 56.3848 54.543 56.6738 54.543C56.7676 54.543 56.8633 54.5488 56.9609 54.5605C57.0586 54.5723 57.1406 54.5898 57.207 54.6133ZM64.168 54.6602V55.9434H60.4062V54.6602H64.168ZM61.2676 53.0898H63.1016V59.0137C63.1016 59.1895 63.123 59.3242 63.166 59.418C63.209 59.5117 63.2793 59.5781 63.377 59.6172C63.4746 59.6523 63.5996 59.6699 63.752 59.6699C63.8613 59.6699 63.9551 59.666 64.0332 59.6582C64.1113 59.6504 64.1836 59.6406 64.25 59.6289V60.9531C64.0938 61.0039 63.9277 61.043 63.752 61.0703C63.5762 61.1016 63.3848 61.1172 63.1777 61.1172C62.7832 61.1172 62.4414 61.0527 62.1523 60.9238C61.8672 60.7949 61.6484 60.5918 61.4961 60.3145C61.3438 60.0332 61.2676 59.668 61.2676 59.2188V53.0898ZM66.834 52V61H65.0059V52H66.834ZM66.5938 57.6074L66.1367 57.6191C66.1367 57.1738 66.1914 56.7656 66.3008 56.3945C66.4141 56.0195 66.5742 55.6934 66.7812 55.416C66.9883 55.1387 67.2363 54.9238 67.5254 54.7715C67.8184 54.6191 68.1406 54.543 68.4922 54.543C68.8047 54.543 69.0898 54.5879 69.3477 54.6777C69.6055 54.7676 69.8281 54.9102 70.0156 55.1055C70.2031 55.3008 70.3477 55.5566 70.4492 55.873C70.5508 56.1895 70.6016 56.5742 70.6016 57.0273V61H68.7617V57.0156C68.7617 56.7461 68.7227 56.5352 68.6445 56.3828C68.5703 56.2305 68.4609 56.123 68.3164 56.0605C68.1758 55.998 68.0039 55.9668 67.8008 55.9668C67.5625 55.9668 67.3652 56.0098 67.209 56.0957C67.0527 56.1777 66.9297 56.293 66.8398 56.4414C66.75 56.5898 66.6855 56.7637 66.6465 56.9629C66.6113 57.1621 66.5938 57.377 66.5938 57.6074ZM74.7852 61.1172C74.2812 61.1172 73.8301 61.0371 73.4316 60.877C73.0332 60.7168 72.6953 60.4961 72.418 60.2148C72.1445 59.9297 71.9355 59.6016 71.791 59.2305C71.6465 58.8594 71.5742 58.4629 71.5742 58.041V57.8184C71.5742 57.3457 71.6406 56.9102 71.7734 56.5117C71.9062 56.1133 72.0996 55.7676 72.3535 55.4746C72.6113 55.1777 72.9277 54.9492 73.3027 54.7891C73.6777 54.625 74.1055 54.543 74.5859 54.543C75.0352 54.543 75.4355 54.6172 75.7871 54.7656C76.1387 54.9102 76.4355 55.1191 76.6777 55.3926C76.9199 55.6621 77.1035 55.9883 77.2285 56.3711C77.3574 56.75 77.4219 57.1758 77.4219 57.6484V58.3984H72.3125V57.2207H75.6289V57.0801C75.6289 56.8574 75.5879 56.6621 75.5059 56.4941C75.4277 56.3262 75.3105 56.1973 75.1543 56.1074C75.002 56.0137 74.8086 55.9668 74.5742 55.9668C74.3516 55.9668 74.166 56.0137 74.0176 56.1074C73.8691 56.2012 73.75 56.334 73.6602 56.5059C73.5742 56.6738 73.5117 56.8711 73.4727 57.0977C73.4336 57.3203 73.4141 57.5605 73.4141 57.8184V58.041C73.4141 58.2871 73.4473 58.5117 73.5137 58.7148C73.5801 58.918 73.6777 59.0918 73.8066 59.2363C73.9355 59.3809 74.0918 59.4941 74.2754 59.5762C74.459 59.6582 74.668 59.6992 74.9023 59.6992C75.1914 59.6992 75.4668 59.6445 75.7285 59.5352C75.9902 59.4219 76.2168 59.2461 76.4082 59.0078L77.2637 59.9863C77.1348 60.1738 76.9531 60.3555 76.7188 60.5312C76.4883 60.7031 76.2109 60.8438 75.8867 60.9531C75.5625 61.0625 75.1953 61.1172 74.7852 61.1172ZM83.1348 55.8789V63.4375H81.3066V54.6602H83.0117L83.1348 55.8789ZM87.0898 57.7598V57.8828C87.0898 58.3438 87.0371 58.7715 86.9316 59.166C86.8262 59.5566 86.668 59.8984 86.457 60.1914C86.25 60.4844 85.9941 60.7129 85.6895 60.877C85.3848 61.0371 85.0312 61.1172 84.6289 61.1172C84.2461 61.1172 83.9141 61.0371 83.6328 60.877C83.3555 60.7129 83.1211 60.4863 82.9297 60.1973C82.7422 59.9043 82.5898 59.5703 82.4727 59.1953C82.3594 58.8164 82.2715 58.4121 82.209 57.9824V57.7422C82.2715 57.2852 82.3613 56.8613 82.4785 56.4707C82.5957 56.0801 82.748 55.7422 82.9355 55.457C83.123 55.168 83.3555 54.9434 83.6328 54.7832C83.9102 54.623 84.2402 54.543 84.623 54.543C85.0215 54.543 85.375 54.6191 85.6836 54.7715C85.9922 54.9238 86.25 55.1426 86.457 55.4277C86.668 55.709 86.8262 56.0469 86.9316 56.4414C87.0371 56.8359 87.0898 57.2754 87.0898 57.7598ZM85.2559 57.8828V57.7598C85.2559 57.502 85.2363 57.2656 85.1973 57.0508C85.1582 56.832 85.0957 56.6426 85.0098 56.4824C84.9238 56.3184 84.8105 56.1914 84.6699 56.1016C84.5293 56.0117 84.3574 55.9668 84.1543 55.9668C83.9355 55.9668 83.75 56.002 83.5977 56.0723C83.4453 56.1426 83.3223 56.2461 83.2285 56.3828C83.1348 56.5156 83.0664 56.6797 83.0234 56.875C82.9844 57.0703 82.9629 57.293 82.959 57.543V58.1875C82.9629 58.4805 83.0039 58.7422 83.082 58.9727C83.1641 59.1992 83.291 59.377 83.4629 59.5059C83.6387 59.6309 83.873 59.6934 84.166 59.6934C84.373 59.6934 84.5449 59.6484 84.6816 59.5586C84.8223 59.4648 84.9336 59.334 85.0156 59.166C85.1016 58.998 85.1621 58.8047 85.1973 58.5859C85.2363 58.3672 85.2559 58.1328 85.2559 57.8828ZM89.8965 56.1367V61H88.0684V54.6602H89.7852L89.8965 56.1367ZM91.7891 54.6133L91.7598 56.3184C91.6816 56.3066 91.5801 56.2969 91.4551 56.2891C91.3301 56.2773 91.2227 56.2715 91.1328 56.2715C90.8984 56.2715 90.6953 56.3008 90.5234 56.3594C90.3555 56.4141 90.2148 56.4961 90.1016 56.6055C89.9922 56.7148 89.9102 56.8516 89.8555 57.0156C89.8008 57.1758 89.7734 57.3613 89.7734 57.5723L89.4277 57.4023C89.4277 56.9844 89.4688 56.6016 89.5508 56.2539C89.6328 55.9062 89.752 55.6055 89.9082 55.3516C90.0645 55.0938 90.2559 54.8945 90.4824 54.7539C90.709 54.6133 90.9668 54.543 91.2559 54.543C91.3496 54.543 91.4453 54.5488 91.543 54.5605C91.6406 54.5723 91.7227 54.5898 91.7891 54.6133ZM92.0762 57.8945V57.7715C92.0762 57.3066 92.1426 56.8789 92.2754 56.4883C92.4082 56.0938 92.6035 55.752 92.8613 55.4629C93.1191 55.1738 93.4355 54.9492 93.8105 54.7891C94.1855 54.625 94.6152 54.543 95.0996 54.543C95.5918 54.543 96.0254 54.625 96.4004 54.7891C96.7793 54.9492 97.0977 55.1738 97.3555 55.4629C97.6133 55.752 97.8086 56.0938 97.9414 56.4883C98.0742 56.8789 98.1406 57.3066 98.1406 57.7715V57.8945C98.1406 58.3555 98.0742 58.7832 97.9414 59.1777C97.8086 59.5684 97.6133 59.9102 97.3555 60.2031C97.0977 60.4922 96.7812 60.7168 96.4062 60.877C96.0312 61.0371 95.5996 61.1172 95.1113 61.1172C94.627 61.1172 94.1953 61.0371 93.8164 60.877C93.4375 60.7168 93.1191 60.4922 92.8613 60.2031C92.6035 59.9102 92.4082 59.5684 92.2754 59.1777C92.1426 58.7832 92.0762 58.3555 92.0762 57.8945ZM93.9102 57.7715V57.8945C93.9102 58.1445 93.9297 58.3789 93.9688 58.5977C94.0117 58.8164 94.0801 59.0078 94.1738 59.1719C94.2676 59.3359 94.3906 59.4648 94.543 59.5586C94.6992 59.6484 94.8887 59.6934 95.1113 59.6934C95.334 59.6934 95.5215 59.6484 95.6738 59.5586C95.8262 59.4648 95.9492 59.3359 96.043 59.1719C96.1367 59.0078 96.2031 58.8164 96.2422 58.5977C96.2852 58.3789 96.3066 58.1445 96.3066 57.8945V57.7715C96.3066 57.5254 96.2852 57.2949 96.2422 57.0801C96.2031 56.8613 96.1367 56.668 96.043 56.5C95.9492 56.332 95.8242 56.2012 95.668 56.1074C95.5156 56.0137 95.3262 55.9668 95.0996 55.9668C94.8809 55.9668 94.6953 56.0137 94.543 56.1074C94.3906 56.2012 94.2676 56.332 94.1738 56.5C94.0801 56.668 94.0117 56.8613 93.9688 57.0801C93.9297 57.2949 93.9102 57.5254 93.9102 57.7715ZM99.2188 54.6602H101.059V61.293C101.059 61.7812 100.967 62.1934 100.783 62.5293C100.6 62.8691 100.334 63.125 99.9863 63.2969C99.6426 63.4727 99.2305 63.5605 98.75 63.5605C98.5938 63.5605 98.4453 63.5527 98.3047 63.5371C98.1641 63.5254 98.0137 63.5 97.8535 63.4609V62.0664C97.9512 62.082 98.0449 62.0938 98.1348 62.1016C98.2207 62.1133 98.3125 62.1191 98.4102 62.1191C98.5859 62.1191 98.7324 62.0898 98.8496 62.0312C98.9707 61.9727 99.0625 61.8809 99.125 61.7559C99.1875 61.6348 99.2188 61.4805 99.2188 61.293V54.6602ZM99.0781 53.0195C99.0781 52.7539 99.1719 52.5371 99.3594 52.3691C99.5469 52.1973 99.7949 52.1113 100.104 52.1113C100.408 52.1113 100.654 52.1973 100.842 52.3691C101.029 52.5371 101.123 52.7539 101.123 53.0195C101.123 53.2812 101.029 53.498 100.842 53.6699C100.654 53.8379 100.408 53.9219 100.104 53.9219C99.7949 53.9219 99.5469 53.8379 99.3594 53.6699C99.1719 53.498 99.0781 53.2812 99.0781 53.0195ZM105.277 61.1172C104.773 61.1172 104.322 61.0371 103.924 60.877C103.525 60.7168 103.188 60.4961 102.91 60.2148C102.637 59.9297 102.428 59.6016 102.283 59.2305C102.139 58.8594 102.066 58.4629 102.066 58.041V57.8184C102.066 57.3457 102.133 56.9102 102.266 56.5117C102.398 56.1133 102.592 55.7676 102.846 55.4746C103.104 55.1777 103.42 54.9492 103.795 54.7891C104.17 54.625 104.598 54.543 105.078 54.543C105.527 54.543 105.928 54.6172 106.279 54.7656C106.631 54.9102 106.928 55.1191 107.17 55.3926C107.412 55.6621 107.596 55.9883 107.721 56.3711C107.85 56.75 107.914 57.1758 107.914 57.6484V58.3984H102.805V57.2207H106.121V57.0801C106.121 56.8574 106.08 56.6621 105.998 56.4941C105.92 56.3262 105.803 56.1973 105.646 56.1074C105.494 56.0137 105.301 55.9668 105.066 55.9668C104.844 55.9668 104.658 56.0137 104.51 56.1074C104.361 56.2012 104.242 56.334 104.152 56.5059C104.066 56.6738 104.004 56.8711 103.965 57.0977C103.926 57.3203 103.906 57.5605 103.906 57.8184V58.041C103.906 58.2871 103.939 58.5117 104.006 58.7148C104.072 58.918 104.17 59.0918 104.299 59.2363C104.428 59.3809 104.584 59.4941 104.768 59.5762C104.951 59.6582 105.16 59.6992 105.395 59.6992C105.684 59.6992 105.959 59.6445 106.221 59.5352C106.482 59.4219 106.709 59.2461 106.9 59.0078L107.756 59.9863C107.627 60.1738 107.445 60.3555 107.211 60.5312C106.98 60.7031 106.703 60.8438 106.379 60.9531C106.055 61.0625 105.688 61.1172 105.277 61.1172ZM111.453 59.6934C111.648 59.6934 111.818 59.6562 111.963 59.582C112.107 59.5078 112.219 59.4043 112.297 59.2715C112.379 59.1348 112.42 58.9707 112.42 58.7793H114.143C114.143 59.2402 114.023 59.6465 113.785 59.998C113.551 60.3496 113.234 60.625 112.836 60.8242C112.438 61.0195 111.988 61.1172 111.488 61.1172C110.996 61.1172 110.566 61.0371 110.199 60.877C109.832 60.7129 109.525 60.4844 109.279 60.1914C109.033 59.8984 108.848 59.5586 108.723 59.1719C108.602 58.7812 108.541 58.3594 108.541 57.9062V57.7539C108.541 57.3047 108.602 56.8848 108.723 56.4941C108.848 56.1035 109.033 55.7617 109.279 55.4688C109.525 55.1758 109.83 54.9492 110.193 54.7891C110.561 54.625 110.99 54.543 111.482 54.543C112.002 54.543 112.461 54.6426 112.859 54.8418C113.262 55.041 113.576 55.3281 113.803 55.7031C114.029 56.0742 114.143 56.5215 114.143 57.0449H112.42C112.42 56.8418 112.383 56.6602 112.309 56.5C112.238 56.3359 112.129 56.207 111.98 56.1133C111.836 56.0156 111.656 55.9668 111.441 55.9668C111.219 55.9668 111.035 56.0156 110.891 56.1133C110.75 56.207 110.643 56.3379 110.568 56.5059C110.494 56.6738 110.443 56.8652 110.416 57.0801C110.389 57.291 110.375 57.5156 110.375 57.7539V57.9062C110.375 58.1484 110.389 58.3789 110.416 58.5977C110.443 58.8125 110.494 59.002 110.568 59.166C110.646 59.3301 110.756 59.459 110.896 59.5527C111.037 59.6465 111.223 59.6934 111.453 59.6934ZM118.273 54.6602V55.9434H114.512V54.6602H118.273ZM115.373 53.0898H117.207V59.0137C117.207 59.1895 117.229 59.3242 117.271 59.418C117.314 59.5117 117.385 59.5781 117.482 59.6172C117.58 59.6523 117.705 59.6699 117.857 59.6699C117.967 59.6699 118.061 59.666 118.139 59.6582C118.217 59.6504 118.289 59.6406 118.355 59.6289V60.9531C118.199 61.0039 118.033 61.043 117.857 61.0703C117.682 61.1016 117.49 61.1172 117.283 61.1172C116.889 61.1172 116.547 61.0527 116.258 60.9238C115.973 60.7949 115.754 60.5918 115.602 60.3145C115.449 60.0332 115.373 59.668 115.373 59.2188V53.0898Z" fill="#331436"/>
<path d="M31 93.5L21 103.5M21 93.5L31 103.5" stroke="#FF746A" stroke-width="4" stroke-linecap="round" stroke-linejoin="round"/>
<g clip-path="url(#clip2_6_216)">
<rect x="134" y="86" width="25" height="25" rx="12.5" fill="#D92B93"/>
<path d="M146.285 94.3906V101.5H145.06L141.871 96.4072V101.5H140.646V94.3906H141.871L145.069 99.4932V94.3906H146.285ZM151.485 99.6689C151.485 99.5225 151.463 99.3923 151.417 99.2783C151.375 99.1644 151.298 99.0602 151.188 98.9658C151.077 98.8714 150.921 98.7803 150.719 98.6924C150.52 98.6012 150.266 98.5085 149.957 98.4141C149.618 98.3099 149.306 98.1943 149.02 98.0674C148.736 97.9372 148.489 97.7874 148.277 97.6182C148.066 97.4456 147.901 97.2487 147.784 97.0273C147.667 96.8027 147.608 96.5439 147.608 96.251C147.608 95.9613 147.669 95.6976 147.789 95.46C147.913 95.2223 148.087 95.0173 148.312 94.8447C148.539 94.6689 148.808 94.5339 149.117 94.4395C149.426 94.3418 149.768 94.293 150.143 94.293C150.67 94.293 151.124 94.3906 151.505 94.5859C151.889 94.7812 152.184 95.0433 152.389 95.3721C152.597 95.7008 152.701 96.0638 152.701 96.4609H151.485C151.485 96.2266 151.435 96.0199 151.334 95.8408C151.236 95.6585 151.087 95.5153 150.885 95.4111C150.686 95.307 150.434 95.2549 150.128 95.2549C149.838 95.2549 149.597 95.2988 149.405 95.3867C149.213 95.4746 149.07 95.5934 148.976 95.7432C148.881 95.8929 148.834 96.0622 148.834 96.251C148.834 96.3844 148.865 96.5065 148.927 96.6172C148.989 96.7246 149.083 96.8255 149.21 96.9199C149.337 97.0111 149.496 97.0973 149.688 97.1787C149.881 97.2601 150.107 97.3382 150.367 97.4131C150.761 97.5303 151.104 97.6605 151.397 97.8037C151.69 97.9437 151.935 98.1032 152.13 98.2822C152.325 98.4613 152.472 98.6647 152.569 98.8926C152.667 99.1172 152.716 99.3727 152.716 99.6592C152.716 99.9587 152.656 100.229 152.535 100.47C152.415 100.707 152.242 100.911 152.018 101.08C151.796 101.246 151.529 101.375 151.217 101.466C150.908 101.554 150.562 101.598 150.182 101.598C149.84 101.598 149.503 101.552 149.171 101.461C148.842 101.37 148.543 101.231 148.272 101.046C148.002 100.857 147.787 100.623 147.628 100.343C147.468 100.06 147.389 99.7292 147.389 99.3516H148.614C148.614 99.5827 148.653 99.7796 148.731 99.9424C148.813 100.105 148.925 100.239 149.068 100.343C149.212 100.444 149.378 100.519 149.566 100.567C149.758 100.616 149.964 100.641 150.182 100.641C150.468 100.641 150.707 100.6 150.899 100.519C151.095 100.437 151.241 100.323 151.339 100.177C151.437 100.03 151.485 99.861 151.485 99.6689Z" fill="white"/>
<rect x="161" y="86" width="25" height="25" rx="12.5" fill="#AF4A00"/>
<path d="M171.898 97.8672V100.582C171.798 100.715 171.64 100.862 171.425 101.021C171.213 101.178 170.932 101.313 170.58 101.427C170.229 101.541 169.791 101.598 169.267 101.598C168.821 101.598 168.412 101.523 168.041 101.373C167.67 101.22 167.349 100.997 167.079 100.704C166.812 100.411 166.605 100.055 166.459 99.6348C166.312 99.2116 166.239 98.7298 166.239 98.1895V97.6963C166.239 97.1592 166.306 96.6807 166.439 96.2607C166.576 95.8376 166.771 95.4795 167.025 95.1865C167.279 94.8936 167.585 94.6722 167.943 94.5225C168.305 94.3695 168.713 94.293 169.169 94.293C169.752 94.293 170.233 94.3906 170.614 94.5859C170.998 94.778 171.295 95.0449 171.503 95.3867C171.711 95.7285 171.843 96.1191 171.898 96.5586H170.697C170.658 96.3112 170.582 96.0898 170.468 95.8945C170.357 95.6992 170.198 95.5462 169.989 95.4355C169.784 95.3216 169.517 95.2646 169.188 95.2646C168.905 95.2646 168.656 95.3184 168.441 95.4258C168.227 95.5332 168.048 95.6911 167.904 95.8994C167.764 96.1077 167.659 96.3617 167.587 96.6611C167.515 96.9606 167.479 97.3024 167.479 97.6865V98.1895C167.479 98.5801 167.52 98.9268 167.602 99.2295C167.686 99.5322 167.807 99.7878 167.963 99.9961C168.122 100.204 168.316 100.362 168.544 100.47C168.772 100.574 169.029 100.626 169.315 100.626C169.595 100.626 169.825 100.603 170.004 100.558C170.183 100.509 170.325 100.452 170.429 100.387C170.536 100.318 170.619 100.253 170.678 100.191V98.7803H169.198V97.8672H171.898ZM173.754 94.3906H174.848L176.903 99.874L178.954 94.3906H180.048L177.333 101.5H176.464L173.754 94.3906ZM173.256 94.3906H174.296L174.477 99.1367V101.5H173.256V94.3906ZM179.506 94.3906H180.551V101.5H179.325V99.1367L179.506 94.3906Z" fill="white"/>
</g>
<defs>
<clipPath id="clip0_6_216">
<rect width="180" height="24" fill="white" transform="translate(11 11)"/>
</clipPath>
<clipPath id="clip1_6_216">
<rect x="11" y="15.5" width="30" height="15" rx="7.5" fill="white"/>
</clipPath>
<clipPath id="clip2_6_216">
<rect width="52" height="25" fill="white" transform="translate(134 86)"/>
</clipPath>
</defs>
</svg>
