<svg width="202" height="129" viewBox="0 0 202 129" fill="none" xmlns="http://www.w3.org/2000/svg">
<rect x="0.5" y="0.5" width="201" height="128" rx="8.5" fill="#F8F2FF"/>
<rect x="0.5" y="0.5" width="201" height="128" rx="8.5" stroke="#331436"/>
<g clip-path="url(#clip0_6_228)">
<g clip-path="url(#clip1_6_228)">
<rect x="11" y="15.5" width="30" height="15" rx="7.5" fill="#FCF4B6"/>
<path d="M21.6758 25.0283V26H18.1064V25.0283H21.6758ZM18.4482 18.8906V26H17.2227V18.8906H18.4482ZM22.2812 23.417V23.3047C22.2812 22.9238 22.3366 22.5706 22.4473 22.2451C22.5579 21.9163 22.7174 21.6315 22.9258 21.3906C23.1374 21.1465 23.3945 20.9577 23.6973 20.8242C24.0033 20.6875 24.3483 20.6191 24.7324 20.6191C25.1198 20.6191 25.4648 20.6875 25.7676 20.8242C26.0736 20.9577 26.3324 21.1465 26.5439 21.3906C26.7555 21.6315 26.9167 21.9163 27.0273 22.2451C27.138 22.5706 27.1934 22.9238 27.1934 23.3047V23.417C27.1934 23.7979 27.138 24.151 27.0273 24.4766C26.9167 24.8021 26.7555 25.0869 26.5439 25.3311C26.3324 25.5719 26.0752 25.7607 25.7725 25.8975C25.4697 26.0309 25.1263 26.0977 24.7422 26.0977C24.3548 26.0977 24.0081 26.0309 23.7021 25.8975C23.3994 25.7607 23.1423 25.5719 22.9307 25.3311C22.7191 25.0869 22.5579 24.8021 22.4473 24.4766C22.3366 24.151 22.2812 23.7979 22.2812 23.417ZM23.458 23.3047V23.417C23.458 23.6546 23.4824 23.8792 23.5312 24.0908C23.5801 24.3024 23.6566 24.488 23.7607 24.6475C23.8649 24.807 23.9984 24.9323 24.1611 25.0234C24.3239 25.1146 24.5176 25.1602 24.7422 25.1602C24.9603 25.1602 25.1491 25.1146 25.3086 25.0234C25.4714 24.9323 25.6048 24.807 25.709 24.6475C25.8132 24.488 25.8896 24.3024 25.9385 24.0908C25.9906 23.8792 26.0166 23.6546 26.0166 23.417V23.3047C26.0166 23.0703 25.9906 22.849 25.9385 22.6406C25.8896 22.429 25.8115 22.2419 25.7041 22.0791C25.5999 21.9163 25.4665 21.7894 25.3037 21.6982C25.1442 21.6038 24.9538 21.5566 24.7324 21.5566C24.5111 21.5566 24.319 21.6038 24.1562 21.6982C23.9967 21.7894 23.8649 21.9163 23.7607 22.0791C23.6566 22.2419 23.5801 22.429 23.5312 22.6406C23.4824 22.849 23.458 23.0703 23.458 23.3047ZM29.6152 24.8281L30.8359 20.7168H31.5879L31.3828 21.9473L30.1523 26H29.4785L29.6152 24.8281ZM28.8975 20.7168L29.8496 24.8477L29.9277 26H29.1758L27.7451 20.7168H28.8975ZM32.7305 24.7988L33.6533 20.7168H34.8008L33.375 26H32.623L32.7305 24.7988ZM31.7148 20.7168L32.9209 24.7793L33.0723 26H32.3984L31.1533 21.9424L30.9482 20.7168H31.7148Z" fill="#EB9961"/>
</g>
<rect x="11.5" y="16" width="29" height="14" rx="7" stroke="#EB9961"/>
<path d="M151.392 22.25V22.6406C151.392 23.1777 151.322 23.6595 151.182 24.0859C151.042 24.5124 150.841 24.8753 150.581 25.1748C150.324 25.4743 150.015 25.7038 149.653 25.8633C149.292 26.0195 148.892 26.0977 148.452 26.0977C148.016 26.0977 147.617 26.0195 147.256 25.8633C146.898 25.7038 146.587 25.4743 146.323 25.1748C146.06 24.8753 145.854 24.5124 145.708 24.0859C145.565 23.6595 145.493 23.1777 145.493 22.6406V22.25C145.493 21.7129 145.565 21.2327 145.708 20.8096C145.851 20.3831 146.053 20.0202 146.313 19.7207C146.577 19.418 146.888 19.1885 147.246 19.0322C147.607 18.8727 148.006 18.793 148.442 18.793C148.882 18.793 149.282 18.8727 149.644 19.0322C150.005 19.1885 150.316 19.418 150.576 19.7207C150.837 20.0202 151.037 20.3831 151.177 20.8096C151.32 21.2327 151.392 21.7129 151.392 22.25ZM150.166 22.6406V22.2402C150.166 21.8431 150.127 21.4932 150.049 21.1904C149.974 20.8844 149.862 20.6289 149.712 20.4238C149.565 20.2155 149.385 20.0592 149.17 19.9551C148.955 19.8477 148.713 19.7939 148.442 19.7939C148.172 19.7939 147.931 19.8477 147.72 19.9551C147.508 20.0592 147.327 20.2155 147.178 20.4238C147.031 20.6289 146.919 20.8844 146.841 21.1904C146.763 21.4932 146.724 21.8431 146.724 22.2402V22.6406C146.724 23.0378 146.763 23.3893 146.841 23.6953C146.919 24.0013 147.033 24.2601 147.183 24.4717C147.336 24.68 147.518 24.8379 147.729 24.9453C147.941 25.0495 148.182 25.1016 148.452 25.1016C148.726 25.1016 148.968 25.0495 149.18 24.9453C149.391 24.8379 149.57 24.68 149.717 24.4717C149.863 24.2601 149.974 24.0013 150.049 23.6953C150.127 23.3893 150.166 23.0378 150.166 22.6406ZM154.658 25.1602C154.85 25.1602 155.023 25.1227 155.176 25.0479C155.332 24.9697 155.457 24.8623 155.552 24.7256C155.649 24.5889 155.703 24.431 155.713 24.252H156.821C156.815 24.5938 156.714 24.9046 156.519 25.1846C156.323 25.4645 156.064 25.6875 155.742 25.8535C155.42 26.0163 155.063 26.0977 154.673 26.0977C154.269 26.0977 153.918 26.0293 153.618 25.8926C153.319 25.7526 153.07 25.5605 152.871 25.3164C152.673 25.0723 152.523 24.7907 152.422 24.4717C152.324 24.1527 152.275 23.8109 152.275 23.4463V23.2754C152.275 22.9108 152.324 22.569 152.422 22.25C152.523 21.9277 152.673 21.6445 152.871 21.4004C153.07 21.1562 153.319 20.9658 153.618 20.8291C153.918 20.6891 154.268 20.6191 154.668 20.6191C155.091 20.6191 155.462 20.7038 155.781 20.873C156.1 21.0391 156.351 21.2718 156.533 21.5713C156.719 21.8675 156.815 22.2126 156.821 22.6064H155.713C155.703 22.4111 155.654 22.2354 155.566 22.0791C155.482 21.9196 155.361 21.7926 155.205 21.6982C155.052 21.6038 154.868 21.5566 154.653 21.5566C154.416 21.5566 154.219 21.6055 154.062 21.7031C153.906 21.7975 153.784 21.9277 153.696 22.0938C153.608 22.2565 153.545 22.4404 153.506 22.6455C153.47 22.8473 153.452 23.0573 153.452 23.2754V23.4463C153.452 23.6644 153.47 23.876 153.506 24.0811C153.542 24.2861 153.604 24.4701 153.691 24.6328C153.783 24.7923 153.906 24.9209 154.062 25.0186C154.219 25.113 154.417 25.1602 154.658 25.1602ZM160.146 20.7168V21.5762H157.168V20.7168H160.146ZM158.027 19.4229H159.204V24.54C159.204 24.7028 159.227 24.8281 159.272 24.916C159.321 25.0007 159.388 25.0576 159.473 25.0869C159.557 25.1162 159.657 25.1309 159.771 25.1309C159.852 25.1309 159.93 25.126 160.005 25.1162C160.08 25.1064 160.14 25.0967 160.186 25.0869L160.19 25.9854C160.093 26.0146 159.979 26.0407 159.849 26.0635C159.722 26.0863 159.575 26.0977 159.409 26.0977C159.139 26.0977 158.9 26.0505 158.691 25.9561C158.483 25.8584 158.32 25.7005 158.203 25.4824C158.086 25.2643 158.027 24.9746 158.027 24.6133V19.4229ZM168.11 21.8496V23.0117C168.11 23.5684 168.055 24.0436 167.944 24.4375C167.837 24.8281 167.681 25.1455 167.476 25.3896C167.271 25.6338 167.025 25.8128 166.738 25.9268C166.455 26.0407 166.138 26.0977 165.786 26.0977C165.506 26.0977 165.246 26.0618 165.005 25.9902C164.767 25.9186 164.552 25.8063 164.36 25.6533C164.168 25.5003 164.004 25.3034 163.867 25.0625C163.734 24.8184 163.63 24.527 163.555 24.1885C163.483 23.8499 163.447 23.4577 163.447 23.0117V21.8496C163.447 21.2897 163.503 20.8177 163.613 20.4336C163.724 20.0462 163.882 19.7321 164.087 19.4912C164.292 19.2471 164.536 19.0697 164.819 18.959C165.106 18.8483 165.425 18.793 165.776 18.793C166.06 18.793 166.32 18.8288 166.558 18.9004C166.799 18.9688 167.013 19.0778 167.202 19.2275C167.394 19.3773 167.557 19.5726 167.69 19.8135C167.827 20.0511 167.931 20.3392 168.003 20.6777C168.075 21.013 168.11 21.4036 168.11 21.8496ZM166.934 23.1777V21.6738C166.934 21.3906 166.917 21.1416 166.885 20.9268C166.852 20.7087 166.803 20.5247 166.738 20.375C166.676 20.222 166.598 20.0983 166.504 20.0039C166.41 19.9062 166.302 19.8363 166.182 19.7939C166.061 19.7484 165.926 19.7256 165.776 19.7256C165.594 19.7256 165.431 19.7614 165.288 19.833C165.145 19.9014 165.024 20.012 164.927 20.165C164.829 20.318 164.754 20.5199 164.702 20.7705C164.653 21.0179 164.629 21.319 164.629 21.6738V23.1777C164.629 23.4642 164.645 23.7165 164.678 23.9346C164.71 24.1527 164.759 24.3398 164.824 24.4961C164.889 24.6491 164.967 24.776 165.059 24.877C165.153 24.9746 165.26 25.0462 165.381 25.0918C165.505 25.1374 165.64 25.1602 165.786 25.1602C165.972 25.1602 166.136 25.1243 166.279 25.0527C166.423 24.9811 166.543 24.8672 166.641 24.7109C166.738 24.5514 166.812 24.3447 166.86 24.0908C166.909 23.8369 166.934 23.5326 166.934 23.1777ZM172.715 18.8467H172.861V19.8086H172.778C172.358 19.8086 171.995 19.8737 171.689 20.0039C171.387 20.1341 171.138 20.3132 170.942 20.541C170.747 20.7689 170.601 21.0358 170.503 21.3418C170.409 21.6445 170.361 21.9668 170.361 22.3086V23.4268C170.361 23.71 170.392 23.9606 170.454 24.1787C170.516 24.3936 170.602 24.5742 170.713 24.7207C170.827 24.8639 170.957 24.973 171.104 25.0479C171.25 25.1227 171.408 25.1602 171.577 25.1602C171.753 25.1602 171.912 25.1243 172.056 25.0527C172.199 24.9779 172.321 24.8753 172.422 24.7451C172.523 24.6149 172.599 24.4603 172.651 24.2812C172.703 24.1022 172.729 23.9069 172.729 23.6953C172.729 23.4935 172.703 23.3047 172.651 23.1289C172.603 22.9499 172.529 22.7936 172.432 22.6602C172.334 22.5234 172.212 22.4176 172.065 22.3428C171.922 22.2646 171.756 22.2256 171.567 22.2256C171.333 22.2256 171.12 22.2809 170.928 22.3916C170.739 22.5023 170.586 22.6471 170.469 22.8262C170.355 23.002 170.293 23.1891 170.283 23.3877L169.834 23.2412C169.86 22.9385 169.927 22.6667 170.034 22.4258C170.145 22.1849 170.29 21.9798 170.469 21.8105C170.648 21.6413 170.854 21.5127 171.089 21.4248C171.326 21.3337 171.587 21.2881 171.87 21.2881C172.215 21.2881 172.515 21.3532 172.769 21.4834C173.022 21.6136 173.232 21.791 173.398 22.0156C173.568 22.237 173.693 22.4909 173.774 22.7773C173.859 23.0605 173.901 23.3568 173.901 23.666C173.901 24.0078 173.849 24.3268 173.745 24.623C173.641 24.916 173.488 25.1732 173.286 25.3945C173.088 25.6159 172.845 25.7884 172.559 25.9121C172.275 26.0358 171.953 26.0977 171.592 26.0977C171.211 26.0977 170.871 26.0244 170.571 25.8779C170.275 25.7314 170.023 25.5296 169.814 25.2725C169.609 25.0153 169.453 24.7191 169.346 24.3838C169.238 24.0485 169.185 23.6937 169.185 23.3193V22.8311C169.185 22.2907 169.253 21.7812 169.39 21.3027C169.526 20.821 169.736 20.3962 170.02 20.0283C170.306 19.6605 170.672 19.3724 171.118 19.1641C171.564 18.9525 172.096 18.8467 172.715 18.8467ZM176.016 24.8672L176.011 25.707C176.011 26.0391 175.928 26.3809 175.762 26.7324C175.596 27.084 175.376 27.3737 175.103 27.6016L174.473 27.2354C174.564 27.0889 174.647 26.9408 174.722 26.791C174.797 26.6413 174.857 26.4818 174.902 26.3125C174.948 26.1432 174.971 25.9561 174.971 25.751V24.8672H176.016ZM184.336 25.0625V26H179.57V25.1943L181.885 22.6699C182.139 22.3835 182.339 22.1361 182.485 21.9277C182.632 21.7194 182.734 21.5322 182.793 21.3662C182.855 21.1969 182.886 21.0326 182.886 20.873C182.886 20.6484 182.843 20.4515 182.759 20.2822C182.677 20.1097 182.557 19.9746 182.397 19.877C182.238 19.776 182.044 19.7256 181.816 19.7256C181.553 19.7256 181.331 19.7826 181.152 19.8965C180.973 20.0104 180.838 20.1683 180.747 20.3701C180.656 20.5687 180.61 20.7965 180.61 21.0537H179.434C179.434 20.6403 179.528 20.2627 179.717 19.9209C179.906 19.5758 180.179 19.3024 180.537 19.1006C180.895 18.8955 181.326 18.793 181.831 18.793C182.306 18.793 182.71 18.8727 183.042 19.0322C183.374 19.1917 183.626 19.418 183.799 19.7109C183.975 20.0039 184.062 20.3506 184.062 20.751C184.062 20.9723 184.027 21.1921 183.955 21.4102C183.883 21.6283 183.781 21.8464 183.647 22.0645C183.517 22.2793 183.363 22.4958 183.184 22.7139C183.005 22.9287 182.808 23.1468 182.593 23.3682L181.055 25.0625H184.336ZM190.151 23.4658V24.4033H185.024L184.985 23.6953L188.052 18.8906H188.994L187.974 20.6387L186.211 23.4658H190.151ZM189.263 18.8906V26H188.086V18.8906H189.263Z" fill="black" fill-opacity="0.5"/>
</g>
<path d="M12.6172 52.4688H14.1992L16.25 58.5684L18.2949 52.4688H19.877L16.8887 61H15.6055L12.6172 52.4688ZM11.7031 52.4688H13.3145L13.6133 58.791V61H11.7031V52.4688ZM19.1797 52.4688H20.7969V61H18.8809V58.791L19.1797 52.4688ZM25.4785 59.4883V56.7695C25.4785 56.5781 25.4492 56.4141 25.3906 56.2773C25.332 56.1406 25.2402 56.0332 25.1152 55.9551C24.9902 55.877 24.8281 55.8379 24.6289 55.8379C24.4609 55.8379 24.3145 55.8672 24.1895 55.9258C24.0684 55.9844 23.9746 56.0684 23.9082 56.1777C23.8457 56.2871 23.8145 56.4219 23.8145 56.582H21.9863C21.9863 56.2969 22.0508 56.0312 22.1797 55.7852C22.3086 55.5391 22.4922 55.3223 22.7305 55.1348C22.9727 54.9473 23.2617 54.8027 23.5977 54.7012C23.9336 54.5957 24.3105 54.543 24.7285 54.543C25.2246 54.543 25.666 54.627 26.0527 54.7949C26.4434 54.959 26.752 55.207 26.9785 55.5391C27.2051 55.8672 27.3184 56.2812 27.3184 56.7812V59.4355C27.3184 59.8184 27.3398 60.1191 27.3828 60.3379C27.4297 60.5527 27.4961 60.7402 27.582 60.9004V61H25.7363C25.6504 60.8164 25.5859 60.5898 25.543 60.3203C25.5 60.0469 25.4785 59.7695 25.4785 59.4883ZM25.707 57.1328L25.7188 58.1406H24.8105C24.6074 58.1406 24.4316 58.166 24.2832 58.2168C24.1387 58.2676 24.0215 58.3379 23.9316 58.4277C23.8418 58.5137 23.7754 58.6152 23.7324 58.7324C23.6934 58.8457 23.6738 58.9707 23.6738 59.1074C23.6738 59.2363 23.7051 59.3535 23.7676 59.459C23.8301 59.5605 23.916 59.6406 24.0254 59.6992C24.1348 59.7578 24.2617 59.7871 24.4062 59.7871C24.6445 59.7871 24.8477 59.7402 25.0156 59.6465C25.1875 59.5527 25.3203 59.4395 25.4141 59.3066C25.5078 59.1699 25.5547 59.043 25.5547 58.9258L25.9941 59.6875C25.9238 59.8438 25.8379 60.0059 25.7363 60.1738C25.6348 60.3379 25.5059 60.4922 25.3496 60.6367C25.1934 60.7773 25.0039 60.8926 24.7812 60.9824C24.5625 61.0723 24.2988 61.1172 23.9902 61.1172C23.5918 61.1172 23.2305 61.0371 22.9062 60.877C22.582 60.7129 22.3223 60.4883 22.127 60.2031C21.9355 59.918 21.8398 59.5898 21.8398 59.2188C21.8398 58.8867 21.9004 58.5918 22.0215 58.334C22.1426 58.0762 22.3242 57.8574 22.5664 57.6777C22.8125 57.498 23.1211 57.3633 23.4922 57.2734C23.8633 57.1797 24.2969 57.1328 24.793 57.1328H25.707ZM30.3594 51.9941V61H28.5254V51.9941H30.3594ZM34.3848 54.6602L31.625 57.8477L30.166 59.3125L29.4336 58.0762L30.6172 56.5469L32.1816 54.6602H34.3848ZM32.4512 61L30.6641 58.0879L31.9766 57.0625L34.5488 61H32.4512ZM37.8828 61.1172C37.3789 61.1172 36.9277 61.0371 36.5293 60.877C36.1309 60.7168 35.793 60.4961 35.5156 60.2148C35.2422 59.9297 35.0332 59.6016 34.8887 59.2305C34.7441 58.8594 34.6719 58.4629 34.6719 58.041V57.8184C34.6719 57.3457 34.7383 56.9102 34.8711 56.5117C35.0039 56.1133 35.1973 55.7676 35.4512 55.4746C35.709 55.1777 36.0254 54.9492 36.4004 54.7891C36.7754 54.625 37.2031 54.543 37.6836 54.543C38.1328 54.543 38.5332 54.6172 38.8848 54.7656C39.2363 54.9102 39.5332 55.1191 39.7754 55.3926C40.0176 55.6621 40.2012 55.9883 40.3262 56.3711C40.4551 56.75 40.5195 57.1758 40.5195 57.6484V58.3984H35.4102V57.2207H38.7266V57.0801C38.7266 56.8574 38.6855 56.6621 38.6035 56.4941C38.5254 56.3262 38.4082 56.1973 38.252 56.1074C38.0996 56.0137 37.9062 55.9668 37.6719 55.9668C37.4492 55.9668 37.2637 56.0137 37.1152 56.1074C36.9668 56.2012 36.8477 56.334 36.7578 56.5059C36.6719 56.6738 36.6094 56.8711 36.5703 57.0977C36.5312 57.3203 36.5117 57.5605 36.5117 57.8184V58.041C36.5117 58.2871 36.5449 58.5117 36.6113 58.7148C36.6777 58.918 36.7754 59.0918 36.9043 59.2363C37.0332 59.3809 37.1895 59.4941 37.373 59.5762C37.5566 59.6582 37.7656 59.6992 38 59.6992C38.2891 59.6992 38.5645 59.6445 38.8262 59.5352C39.0879 59.4219 39.3145 59.2461 39.5059 59.0078L40.3613 59.9863C40.2324 60.1738 40.0508 60.3555 39.8164 60.5312C39.5859 60.7031 39.3086 60.8438 38.9844 60.9531C38.6602 61.0625 38.293 61.1172 37.8828 61.1172ZM46.2324 55.8789V63.4375H44.4043V54.6602H46.1094L46.2324 55.8789ZM50.1875 57.7598V57.8828C50.1875 58.3438 50.1348 58.7715 50.0293 59.166C49.9238 59.5566 49.7656 59.8984 49.5547 60.1914C49.3477 60.4844 49.0918 60.7129 48.7871 60.877C48.4824 61.0371 48.1289 61.1172 47.7266 61.1172C47.3438 61.1172 47.0117 61.0371 46.7305 60.877C46.4531 60.7129 46.2188 60.4863 46.0273 60.1973C45.8398 59.9043 45.6875 59.5703 45.5703 59.1953C45.457 58.8164 45.3691 58.4121 45.3066 57.9824V57.7422C45.3691 57.2852 45.459 56.8613 45.5762 56.4707C45.6934 56.0801 45.8457 55.7422 46.0332 55.457C46.2207 55.168 46.4531 54.9434 46.7305 54.7832C47.0078 54.623 47.3379 54.543 47.7207 54.543C48.1191 54.543 48.4727 54.6191 48.7812 54.7715C49.0898 54.9238 49.3477 55.1426 49.5547 55.4277C49.7656 55.709 49.9238 56.0469 50.0293 56.4414C50.1348 56.8359 50.1875 57.2754 50.1875 57.7598ZM48.3535 57.8828V57.7598C48.3535 57.502 48.334 57.2656 48.2949 57.0508C48.2559 56.832 48.1934 56.6426 48.1074 56.4824C48.0215 56.3184 47.9082 56.1914 47.7676 56.1016C47.627 56.0117 47.4551 55.9668 47.252 55.9668C47.0332 55.9668 46.8477 56.002 46.6953 56.0723C46.543 56.1426 46.4199 56.2461 46.3262 56.3828C46.2324 56.5156 46.1641 56.6797 46.1211 56.875C46.082 57.0703 46.0605 57.293 46.0566 57.543V58.1875C46.0605 58.4805 46.1016 58.7422 46.1797 58.9727C46.2617 59.1992 46.3887 59.377 46.5605 59.5059C46.7363 59.6309 46.9707 59.6934 47.2637 59.6934C47.4707 59.6934 47.6426 59.6484 47.7793 59.5586C47.9199 59.4648 48.0312 59.334 48.1133 59.166C48.1992 58.998 48.2598 58.8047 48.2949 58.5859C48.334 58.3672 48.3535 58.1328 48.3535 57.8828ZM50.8965 57.8945V57.7715C50.8965 57.3066 50.9629 56.8789 51.0957 56.4883C51.2285 56.0938 51.4238 55.752 51.6816 55.4629C51.9395 55.1738 52.2559 54.9492 52.6309 54.7891C53.0059 54.625 53.4355 54.543 53.9199 54.543C54.4121 54.543 54.8457 54.625 55.2207 54.7891C55.5996 54.9492 55.918 55.1738 56.1758 55.4629C56.4336 55.752 56.6289 56.0938 56.7617 56.4883C56.8945 56.8789 56.9609 57.3066 56.9609 57.7715V57.8945C56.9609 58.3555 56.8945 58.7832 56.7617 59.1777C56.6289 59.5684 56.4336 59.9102 56.1758 60.2031C55.918 60.4922 55.6016 60.7168 55.2266 60.877C54.8516 61.0371 54.4199 61.1172 53.9316 61.1172C53.4473 61.1172 53.0156 61.0371 52.6367 60.877C52.2578 60.7168 51.9395 60.4922 51.6816 60.2031C51.4238 59.9102 51.2285 59.5684 51.0957 59.1777C50.9629 58.7832 50.8965 58.3555 50.8965 57.8945ZM52.7305 57.7715V57.8945C52.7305 58.1445 52.75 58.3789 52.7891 58.5977C52.832 58.8164 52.9004 59.0078 52.9941 59.1719C53.0879 59.3359 53.2109 59.4648 53.3633 59.5586C53.5195 59.6484 53.709 59.6934 53.9316 59.6934C54.1543 59.6934 54.3418 59.6484 54.4941 59.5586C54.6465 59.4648 54.7695 59.3359 54.8633 59.1719C54.957 59.0078 55.0234 58.8164 55.0625 58.5977C55.1055 58.3789 55.127 58.1445 55.127 57.8945V57.7715C55.127 57.5254 55.1055 57.2949 55.0625 57.0801C55.0234 56.8613 54.957 56.668 54.8633 56.5C54.7695 56.332 54.6445 56.2012 54.4883 56.1074C54.3359 56.0137 54.1465 55.9668 53.9199 55.9668C53.7012 55.9668 53.5156 56.0137 53.3633 56.1074C53.2109 56.2012 53.0879 56.332 52.9941 56.5C52.9004 56.668 52.832 56.8613 52.7891 57.0801C52.75 57.2949 52.7305 57.5254 52.7305 57.7715ZM59.7559 55.8789V63.4375H57.9277V54.6602H59.6328L59.7559 55.8789ZM63.7109 57.7598V57.8828C63.7109 58.3438 63.6582 58.7715 63.5527 59.166C63.4473 59.5566 63.2891 59.8984 63.0781 60.1914C62.8711 60.4844 62.6152 60.7129 62.3105 60.877C62.0059 61.0371 61.6523 61.1172 61.25 61.1172C60.8672 61.1172 60.5352 61.0371 60.2539 60.877C59.9766 60.7129 59.7422 60.4863 59.5508 60.1973C59.3633 59.9043 59.2109 59.5703 59.0938 59.1953C58.9805 58.8164 58.8926 58.4121 58.8301 57.9824V57.7422C58.8926 57.2852 58.9824 56.8613 59.0996 56.4707C59.2168 56.0801 59.3691 55.7422 59.5566 55.457C59.7441 55.168 59.9766 54.9434 60.2539 54.7832C60.5312 54.623 60.8613 54.543 61.2441 54.543C61.6426 54.543 61.9961 54.6191 62.3047 54.7715C62.6133 54.9238 62.8711 55.1426 63.0781 55.4277C63.2891 55.709 63.4473 56.0469 63.5527 56.4414C63.6582 56.8359 63.7109 57.2754 63.7109 57.7598ZM61.877 57.8828V57.7598C61.877 57.502 61.8574 57.2656 61.8184 57.0508C61.7793 56.832 61.7168 56.6426 61.6309 56.4824C61.5449 56.3184 61.4316 56.1914 61.291 56.1016C61.1504 56.0117 60.9785 55.9668 60.7754 55.9668C60.5566 55.9668 60.3711 56.002 60.2188 56.0723C60.0664 56.1426 59.9434 56.2461 59.8496 56.3828C59.7559 56.5156 59.6875 56.6797 59.6445 56.875C59.6055 57.0703 59.584 57.293 59.5801 57.543V58.1875C59.584 58.4805 59.625 58.7422 59.7031 58.9727C59.7852 59.1992 59.9121 59.377 60.084 59.5059C60.2598 59.6309 60.4941 59.6934 60.7871 59.6934C60.9941 59.6934 61.166 59.6484 61.3027 59.5586C61.4434 59.4648 61.5547 59.334 61.6367 59.166C61.7227 58.998 61.7832 58.8047 61.8184 58.5859C61.8574 58.3672 61.877 58.1328 61.877 57.8828ZM67.332 59.6934C67.5273 59.6934 67.6973 59.6562 67.8418 59.582C67.9863 59.5078 68.0977 59.4043 68.1758 59.2715C68.2578 59.1348 68.2988 58.9707 68.2988 58.7793H70.0215C70.0215 59.2402 69.9023 59.6465 69.6641 59.998C69.4297 60.3496 69.1133 60.625 68.7148 60.8242C68.3164 61.0195 67.8672 61.1172 67.3672 61.1172C66.875 61.1172 66.4453 61.0371 66.0781 60.877C65.7109 60.7129 65.4043 60.4844 65.1582 60.1914C64.9121 59.8984 64.7266 59.5586 64.6016 59.1719C64.4805 58.7812 64.4199 58.3594 64.4199 57.9062V57.7539C64.4199 57.3047 64.4805 56.8848 64.6016 56.4941C64.7266 56.1035 64.9121 55.7617 65.1582 55.4688C65.4043 55.1758 65.709 54.9492 66.0723 54.7891C66.4395 54.625 66.8691 54.543 67.3613 54.543C67.8809 54.543 68.3398 54.6426 68.7383 54.8418C69.1406 55.041 69.4551 55.3281 69.6816 55.7031C69.9082 56.0742 70.0215 56.5215 70.0215 57.0449H68.2988C68.2988 56.8418 68.2617 56.6602 68.1875 56.5C68.1172 56.3359 68.0078 56.207 67.8594 56.1133C67.7148 56.0156 67.5352 55.9668 67.3203 55.9668C67.0977 55.9668 66.9141 56.0156 66.7695 56.1133C66.6289 56.207 66.5215 56.3379 66.4473 56.5059C66.373 56.6738 66.3223 56.8652 66.2949 57.0801C66.2676 57.291 66.2539 57.5156 66.2539 57.7539V57.9062C66.2539 58.1484 66.2676 58.3789 66.2949 58.5977C66.3223 58.8125 66.373 59.002 66.4473 59.166C66.5254 59.3301 66.6348 59.459 66.7754 59.5527C66.916 59.6465 67.1016 59.6934 67.332 59.6934ZM70.666 57.8945V57.7715C70.666 57.3066 70.7324 56.8789 70.8652 56.4883C70.998 56.0938 71.1934 55.752 71.4512 55.4629C71.709 55.1738 72.0254 54.9492 72.4004 54.7891C72.7754 54.625 73.2051 54.543 73.6895 54.543C74.1816 54.543 74.6152 54.625 74.9902 54.7891C75.3691 54.9492 75.6875 55.1738 75.9453 55.4629C76.2031 55.752 76.3984 56.0938 76.5312 56.4883C76.6641 56.8789 76.7305 57.3066 76.7305 57.7715V57.8945C76.7305 58.3555 76.6641 58.7832 76.5312 59.1777C76.3984 59.5684 76.2031 59.9102 75.9453 60.2031C75.6875 60.4922 75.3711 60.7168 74.9961 60.877C74.6211 61.0371 74.1895 61.1172 73.7012 61.1172C73.2168 61.1172 72.7852 61.0371 72.4062 60.877C72.0273 60.7168 71.709 60.4922 71.4512 60.2031C71.1934 59.9102 70.998 59.5684 70.8652 59.1777C70.7324 58.7832 70.666 58.3555 70.666 57.8945ZM72.5 57.7715V57.8945C72.5 58.1445 72.5195 58.3789 72.5586 58.5977C72.6016 58.8164 72.6699 59.0078 72.7637 59.1719C72.8574 59.3359 72.9805 59.4648 73.1328 59.5586C73.2891 59.6484 73.4785 59.6934 73.7012 59.6934C73.9238 59.6934 74.1113 59.6484 74.2637 59.5586C74.416 59.4648 74.5391 59.3359 74.6328 59.1719C74.7266 59.0078 74.793 58.8164 74.832 58.5977C74.875 58.3789 74.8965 58.1445 74.8965 57.8945V57.7715C74.8965 57.5254 74.875 57.2949 74.832 57.0801C74.793 56.8613 74.7266 56.668 74.6328 56.5C74.5391 56.332 74.4141 56.2012 74.2578 56.1074C74.1055 56.0137 73.916 55.9668 73.6895 55.9668C73.4707 55.9668 73.2852 56.0137 73.1328 56.1074C72.9805 56.2012 72.8574 56.332 72.7637 56.5C72.6699 56.668 72.6016 56.8613 72.5586 57.0801C72.5195 57.2949 72.5 57.5254 72.5 57.7715ZM79.5254 56.1367V61H77.6973V54.6602H79.4141L79.5254 56.1367ZM81.418 54.6133L81.3887 56.3184C81.3105 56.3066 81.209 56.2969 81.084 56.2891C80.959 56.2773 80.8516 56.2715 80.7617 56.2715C80.5273 56.2715 80.3242 56.3008 80.1523 56.3594C79.9844 56.4141 79.8438 56.4961 79.7305 56.6055C79.6211 56.7148 79.5391 56.8516 79.4844 57.0156C79.4297 57.1758 79.4023 57.3613 79.4023 57.5723L79.0566 57.4023C79.0566 56.9844 79.0977 56.6016 79.1797 56.2539C79.2617 55.9062 79.3809 55.6055 79.5371 55.3516C79.6934 55.0938 79.8848 54.8945 80.1113 54.7539C80.3379 54.6133 80.5957 54.543 80.8848 54.543C80.9785 54.543 81.0742 54.5488 81.1719 54.5605C81.2695 54.5723 81.3516 54.5898 81.418 54.6133ZM83.9609 56.0137V61H82.127V54.6602H83.8496L83.9609 56.0137ZM83.7207 57.6074L83.2637 57.6191C83.2637 57.1426 83.3223 56.7148 83.4395 56.3359C83.5566 55.957 83.7227 55.6348 83.9375 55.3691C84.1562 55.0996 84.416 54.8945 84.7168 54.7539C85.0215 54.6133 85.3574 54.543 85.7246 54.543C86.0215 54.543 86.293 54.5859 86.5391 54.6719C86.7852 54.7578 86.9961 54.8965 87.1719 55.0879C87.3516 55.2754 87.4883 55.5254 87.582 55.8379C87.6758 56.1465 87.7227 56.5273 87.7227 56.9805V61H85.8828V56.9746C85.8828 56.709 85.8457 56.5039 85.7715 56.3594C85.6973 56.2148 85.5879 56.1133 85.4434 56.0547C85.3027 55.9961 85.1309 55.9668 84.9277 55.9668C84.7129 55.9668 84.5293 56.0098 84.377 56.0957C84.2246 56.1777 84.0996 56.293 84.002 56.4414C83.9043 56.5898 83.832 56.7637 83.7852 56.9629C83.7422 57.1621 83.7207 57.377 83.7207 57.6074Z" fill="#331436"/>
<path d="M31 93.5L21 103.5M21 93.5L31 103.5" stroke="#FF746A" stroke-width="4" stroke-linecap="round" stroke-linejoin="round"/>
<g clip-path="url(#clip2_6_228)">
<rect x="161" y="86" width="25" height="25" rx="12.5" fill="#AF4A00"/>
<path d="M171.898 97.8672V100.582C171.798 100.715 171.64 100.862 171.425 101.021C171.213 101.178 170.932 101.313 170.58 101.427C170.229 101.541 169.791 101.598 169.267 101.598C168.821 101.598 168.412 101.523 168.041 101.373C167.67 101.22 167.349 100.997 167.079 100.704C166.812 100.411 166.605 100.055 166.459 99.6348C166.312 99.2116 166.239 98.7298 166.239 98.1895V97.6963C166.239 97.1592 166.306 96.6807 166.439 96.2607C166.576 95.8376 166.771 95.4795 167.025 95.1865C167.279 94.8936 167.585 94.6722 167.943 94.5225C168.305 94.3695 168.713 94.293 169.169 94.293C169.752 94.293 170.233 94.3906 170.614 94.5859C170.998 94.778 171.295 95.0449 171.503 95.3867C171.711 95.7285 171.843 96.1191 171.898 96.5586H170.697C170.658 96.3112 170.582 96.0898 170.468 95.8945C170.357 95.6992 170.198 95.5462 169.989 95.4355C169.784 95.3216 169.517 95.2646 169.188 95.2646C168.905 95.2646 168.656 95.3184 168.441 95.4258C168.227 95.5332 168.048 95.6911 167.904 95.8994C167.764 96.1077 167.659 96.3617 167.587 96.6611C167.515 96.9606 167.479 97.3024 167.479 97.6865V98.1895C167.479 98.5801 167.52 98.9268 167.602 99.2295C167.686 99.5322 167.807 99.7878 167.963 99.9961C168.122 100.204 168.316 100.362 168.544 100.47C168.772 100.574 169.029 100.626 169.315 100.626C169.595 100.626 169.825 100.603 170.004 100.558C170.183 100.509 170.325 100.452 170.429 100.387C170.536 100.318 170.619 100.253 170.678 100.191V98.7803H169.198V97.8672H171.898ZM173.754 94.3906H174.848L176.903 99.874L178.954 94.3906H180.048L177.333 101.5H176.464L173.754 94.3906ZM173.256 94.3906H174.296L174.477 99.1367V101.5H173.256V94.3906ZM179.506 94.3906H180.551V101.5H179.325V99.1367L179.506 94.3906Z" fill="white"/>
</g>
<defs>
<clipPath id="clip0_6_228">
<rect width="180" height="24" fill="white" transform="translate(11 11)"/>
</clipPath>
<clipPath id="clip1_6_228">
<rect x="11" y="15.5" width="30" height="15" rx="7.5" fill="white"/>
</clipPath>
<clipPath id="clip2_6_228">
<rect width="25" height="25" fill="white" transform="translate(161 86)"/>
</clipPath>
</defs>
</svg>
