<svg width="202" height="129" viewBox="0 0 202 129" fill="none" xmlns="http://www.w3.org/2000/svg">
<rect x="0.5" y="0.5" width="201" height="128" rx="8.5" fill="#F8F2FF"/>
<rect x="0.5" y="0.5" width="201" height="128" rx="8.5" stroke="#331436"/>
<g clip-path="url(#clip0_6_28)">
<g clip-path="url(#clip1_6_28)">
<rect x="11" y="15.5" width="30" height="15" rx="7.5" fill="#CB4F57"/>
<path d="M20.9199 21.8594V22.8311H17.1455V21.8594H20.9199ZM17.4482 18.8906V26H16.2227V18.8906H17.4482ZM21.8623 18.8906V26H20.6416V18.8906H21.8623ZM24.4648 20.7168V26H23.2832V20.7168H24.4648ZM23.2051 19.3301C23.2051 19.151 23.2637 19.0029 23.3809 18.8857C23.5013 18.7653 23.6673 18.7051 23.8789 18.7051C24.0872 18.7051 24.2516 18.7653 24.3721 18.8857C24.4925 19.0029 24.5527 19.151 24.5527 19.3301C24.5527 19.5059 24.4925 19.6523 24.3721 19.7695C24.2516 19.8867 24.0872 19.9453 23.8789 19.9453C23.6673 19.9453 23.5013 19.8867 23.3809 19.7695C23.2637 19.6523 23.2051 19.5059 23.2051 19.3301ZM29.1377 20.7168H30.207V25.8535C30.207 26.3288 30.1061 26.7324 29.9043 27.0645C29.7025 27.3965 29.4209 27.6488 29.0596 27.8213C28.6982 27.9971 28.2799 28.085 27.8047 28.085C27.6029 28.085 27.3783 28.0557 27.1309 27.9971C26.8867 27.9385 26.6491 27.8441 26.418 27.7139C26.1901 27.5869 25.9997 27.4193 25.8467 27.2109L26.3984 26.5176C26.5872 26.7422 26.7956 26.9066 27.0234 27.0107C27.2513 27.1149 27.4906 27.167 27.7412 27.167C28.0114 27.167 28.2409 27.1165 28.4297 27.0156C28.6217 26.918 28.7699 26.7731 28.874 26.5811C28.9782 26.389 29.0303 26.1546 29.0303 25.8779V21.9131L29.1377 20.7168ZM25.5488 23.417V23.3145C25.5488 22.9141 25.5977 22.5495 25.6953 22.2207C25.793 21.8887 25.9329 21.6038 26.1152 21.3662C26.2975 21.1253 26.5189 20.9414 26.7793 20.8145C27.0397 20.6842 27.3343 20.6191 27.6631 20.6191C28.0049 20.6191 28.2962 20.681 28.5371 20.8047C28.7812 20.9284 28.9847 21.1058 29.1475 21.3369C29.3102 21.5648 29.4372 21.8382 29.5283 22.1572C29.6227 22.473 29.6927 22.8245 29.7383 23.2119V23.5391C29.696 23.9167 29.6243 24.2617 29.5234 24.5742C29.4225 24.8867 29.2891 25.1569 29.123 25.3848C28.957 25.6126 28.752 25.7884 28.5078 25.9121C28.2669 26.0358 27.9821 26.0977 27.6533 26.0977C27.3311 26.0977 27.0397 26.0309 26.7793 25.8975C26.5221 25.764 26.3008 25.5768 26.1152 25.3359C25.9329 25.0951 25.793 24.8118 25.6953 24.4863C25.5977 24.1576 25.5488 23.8011 25.5488 23.417ZM26.7256 23.3145V23.417C26.7256 23.6579 26.7484 23.8825 26.7939 24.0908C26.8428 24.2992 26.916 24.4831 27.0137 24.6426C27.1146 24.7988 27.2415 24.9225 27.3945 25.0137C27.5508 25.1016 27.7347 25.1455 27.9463 25.1455C28.223 25.1455 28.4492 25.0869 28.625 24.9697C28.804 24.8525 28.9408 24.6947 29.0352 24.4961C29.1328 24.2943 29.2012 24.0697 29.2402 23.8223V22.9385C29.2207 22.7464 29.18 22.5674 29.1182 22.4014C29.0596 22.2354 28.9798 22.0905 28.8789 21.9668C28.778 21.8398 28.651 21.7422 28.498 21.6738C28.3451 21.6022 28.1644 21.5664 27.9561 21.5664C27.7445 21.5664 27.5605 21.612 27.4043 21.7031C27.248 21.7943 27.1195 21.9196 27.0186 22.0791C26.9209 22.2386 26.8477 22.4242 26.7988 22.6357C26.75 22.8473 26.7256 23.0736 26.7256 23.3145ZM32.5898 18.5V26H31.418V18.5H32.5898ZM32.3848 23.1631L32.0039 23.1582C32.0072 22.7936 32.0576 22.4567 32.1553 22.1475C32.2562 21.8382 32.3962 21.5697 32.5752 21.3418C32.7575 21.1107 32.9756 20.9333 33.2295 20.8096C33.4834 20.6826 33.765 20.6191 34.0742 20.6191C34.3346 20.6191 34.569 20.6549 34.7773 20.7266C34.9889 20.7982 35.1712 20.9137 35.3242 21.0732C35.4772 21.2295 35.5928 21.4346 35.6709 21.6885C35.7523 21.9391 35.793 22.2451 35.793 22.6064V26H34.6113V22.5967C34.6113 22.3428 34.5739 22.141 34.499 21.9912C34.4274 21.8415 34.3216 21.734 34.1816 21.6689C34.0417 21.6006 33.8708 21.5664 33.6689 21.5664C33.4574 21.5664 33.2702 21.6087 33.1074 21.6934C32.9479 21.778 32.8145 21.8936 32.707 22.04C32.5996 22.1865 32.5182 22.3558 32.4629 22.5479C32.4108 22.7399 32.3848 22.945 32.3848 23.1631Z" fill="#7A1745"/>
</g>
<rect x="11.5" y="16" width="29" height="14" rx="7" stroke="#7A1745"/>
<path d="M151.392 22.25V22.6406C151.392 23.1777 151.322 23.6595 151.182 24.0859C151.042 24.5124 150.841 24.8753 150.581 25.1748C150.324 25.4743 150.015 25.7038 149.653 25.8633C149.292 26.0195 148.892 26.0977 148.452 26.0977C148.016 26.0977 147.617 26.0195 147.256 25.8633C146.898 25.7038 146.587 25.4743 146.323 25.1748C146.06 24.8753 145.854 24.5124 145.708 24.0859C145.565 23.6595 145.493 23.1777 145.493 22.6406V22.25C145.493 21.7129 145.565 21.2327 145.708 20.8096C145.851 20.3831 146.053 20.0202 146.313 19.7207C146.577 19.418 146.888 19.1885 147.246 19.0322C147.607 18.8727 148.006 18.793 148.442 18.793C148.882 18.793 149.282 18.8727 149.644 19.0322C150.005 19.1885 150.316 19.418 150.576 19.7207C150.837 20.0202 151.037 20.3831 151.177 20.8096C151.32 21.2327 151.392 21.7129 151.392 22.25ZM150.166 22.6406V22.2402C150.166 21.8431 150.127 21.4932 150.049 21.1904C149.974 20.8844 149.862 20.6289 149.712 20.4238C149.565 20.2155 149.385 20.0592 149.17 19.9551C148.955 19.8477 148.713 19.7939 148.442 19.7939C148.172 19.7939 147.931 19.8477 147.72 19.9551C147.508 20.0592 147.327 20.2155 147.178 20.4238C147.031 20.6289 146.919 20.8844 146.841 21.1904C146.763 21.4932 146.724 21.8431 146.724 22.2402V22.6406C146.724 23.0378 146.763 23.3893 146.841 23.6953C146.919 24.0013 147.033 24.2601 147.183 24.4717C147.336 24.68 147.518 24.8379 147.729 24.9453C147.941 25.0495 148.182 25.1016 148.452 25.1016C148.726 25.1016 148.968 25.0495 149.18 24.9453C149.391 24.8379 149.57 24.68 149.717 24.4717C149.863 24.2601 149.974 24.0013 150.049 23.6953C150.127 23.3893 150.166 23.0378 150.166 22.6406ZM154.658 25.1602C154.85 25.1602 155.023 25.1227 155.176 25.0479C155.332 24.9697 155.457 24.8623 155.552 24.7256C155.649 24.5889 155.703 24.431 155.713 24.252H156.821C156.815 24.5938 156.714 24.9046 156.519 25.1846C156.323 25.4645 156.064 25.6875 155.742 25.8535C155.42 26.0163 155.063 26.0977 154.673 26.0977C154.269 26.0977 153.918 26.0293 153.618 25.8926C153.319 25.7526 153.07 25.5605 152.871 25.3164C152.673 25.0723 152.523 24.7907 152.422 24.4717C152.324 24.1527 152.275 23.8109 152.275 23.4463V23.2754C152.275 22.9108 152.324 22.569 152.422 22.25C152.523 21.9277 152.673 21.6445 152.871 21.4004C153.07 21.1562 153.319 20.9658 153.618 20.8291C153.918 20.6891 154.268 20.6191 154.668 20.6191C155.091 20.6191 155.462 20.7038 155.781 20.873C156.1 21.0391 156.351 21.2718 156.533 21.5713C156.719 21.8675 156.815 22.2126 156.821 22.6064H155.713C155.703 22.4111 155.654 22.2354 155.566 22.0791C155.482 21.9196 155.361 21.7926 155.205 21.6982C155.052 21.6038 154.868 21.5566 154.653 21.5566C154.416 21.5566 154.219 21.6055 154.062 21.7031C153.906 21.7975 153.784 21.9277 153.696 22.0938C153.608 22.2565 153.545 22.4404 153.506 22.6455C153.47 22.8473 153.452 23.0573 153.452 23.2754V23.4463C153.452 23.6644 153.47 23.876 153.506 24.0811C153.542 24.2861 153.604 24.4701 153.691 24.6328C153.783 24.7923 153.906 24.9209 154.062 25.0186C154.219 25.113 154.417 25.1602 154.658 25.1602ZM160.146 20.7168V21.5762H157.168V20.7168H160.146ZM158.027 19.4229H159.204V24.54C159.204 24.7028 159.227 24.8281 159.272 24.916C159.321 25.0007 159.388 25.0576 159.473 25.0869C159.557 25.1162 159.657 25.1309 159.771 25.1309C159.852 25.1309 159.93 25.126 160.005 25.1162C160.08 25.1064 160.14 25.0967 160.186 25.0869L160.19 25.9854C160.093 26.0146 159.979 26.0407 159.849 26.0635C159.722 26.0863 159.575 26.0977 159.409 26.0977C159.139 26.0977 158.9 26.0505 158.691 25.9561C158.483 25.8584 158.32 25.7005 158.203 25.4824C158.086 25.2643 158.027 24.9746 158.027 24.6133V19.4229ZM166.689 18.8662V26H165.513V20.2627L163.77 20.8535V19.8818L166.548 18.8662H166.689ZM172.715 18.8467H172.861V19.8086H172.778C172.358 19.8086 171.995 19.8737 171.689 20.0039C171.387 20.1341 171.138 20.3132 170.942 20.541C170.747 20.7689 170.601 21.0358 170.503 21.3418C170.409 21.6445 170.361 21.9668 170.361 22.3086V23.4268C170.361 23.71 170.392 23.9606 170.454 24.1787C170.516 24.3936 170.602 24.5742 170.713 24.7207C170.827 24.8639 170.957 24.973 171.104 25.0479C171.25 25.1227 171.408 25.1602 171.577 25.1602C171.753 25.1602 171.912 25.1243 172.056 25.0527C172.199 24.9779 172.321 24.8753 172.422 24.7451C172.523 24.6149 172.599 24.4603 172.651 24.2812C172.703 24.1022 172.729 23.9069 172.729 23.6953C172.729 23.4935 172.703 23.3047 172.651 23.1289C172.603 22.9499 172.529 22.7936 172.432 22.6602C172.334 22.5234 172.212 22.4176 172.065 22.3428C171.922 22.2646 171.756 22.2256 171.567 22.2256C171.333 22.2256 171.12 22.2809 170.928 22.3916C170.739 22.5023 170.586 22.6471 170.469 22.8262C170.355 23.002 170.293 23.1891 170.283 23.3877L169.834 23.2412C169.86 22.9385 169.927 22.6667 170.034 22.4258C170.145 22.1849 170.29 21.9798 170.469 21.8105C170.648 21.6413 170.854 21.5127 171.089 21.4248C171.326 21.3337 171.587 21.2881 171.87 21.2881C172.215 21.2881 172.515 21.3532 172.769 21.4834C173.022 21.6136 173.232 21.791 173.398 22.0156C173.568 22.237 173.693 22.4909 173.774 22.7773C173.859 23.0605 173.901 23.3568 173.901 23.666C173.901 24.0078 173.849 24.3268 173.745 24.623C173.641 24.916 173.488 25.1732 173.286 25.3945C173.088 25.6159 172.845 25.7884 172.559 25.9121C172.275 26.0358 171.953 26.0977 171.592 26.0977C171.211 26.0977 170.871 26.0244 170.571 25.8779C170.275 25.7314 170.023 25.5296 169.814 25.2725C169.609 25.0153 169.453 24.7191 169.346 24.3838C169.238 24.0485 169.185 23.6937 169.185 23.3193V22.8311C169.185 22.2907 169.253 21.7812 169.39 21.3027C169.526 20.821 169.736 20.3962 170.02 20.0283C170.306 19.6605 170.672 19.3724 171.118 19.1641C171.564 18.9525 172.096 18.8467 172.715 18.8467ZM176.016 24.8672L176.011 25.707C176.011 26.0391 175.928 26.3809 175.762 26.7324C175.596 27.084 175.376 27.3737 175.103 27.6016L174.473 27.2354C174.564 27.0889 174.647 26.9408 174.722 26.791C174.797 26.6413 174.857 26.4818 174.902 26.3125C174.948 26.1432 174.971 25.9561 174.971 25.751V24.8672H176.016ZM184.336 25.0625V26H179.57V25.1943L181.885 22.6699C182.139 22.3835 182.339 22.1361 182.485 21.9277C182.632 21.7194 182.734 21.5322 182.793 21.3662C182.855 21.1969 182.886 21.0326 182.886 20.873C182.886 20.6484 182.843 20.4515 182.759 20.2822C182.677 20.1097 182.557 19.9746 182.397 19.877C182.238 19.776 182.044 19.7256 181.816 19.7256C181.553 19.7256 181.331 19.7826 181.152 19.8965C180.973 20.0104 180.838 20.1683 180.747 20.3701C180.656 20.5687 180.61 20.7965 180.61 21.0537H179.434C179.434 20.6403 179.528 20.2627 179.717 19.9209C179.906 19.5758 180.179 19.3024 180.537 19.1006C180.895 18.8955 181.326 18.793 181.831 18.793C182.306 18.793 182.71 18.8727 183.042 19.0322C183.374 19.1917 183.626 19.418 183.799 19.7109C183.975 20.0039 184.062 20.3506 184.062 20.751C184.062 20.9723 184.027 21.1921 183.955 21.4102C183.883 21.6283 183.781 21.8464 183.647 22.0645C183.517 22.2793 183.363 22.4958 183.184 22.7139C183.005 22.9287 182.808 23.1468 182.593 23.3682L181.055 25.0625H184.336ZM190.151 23.4658V24.4033H185.024L184.985 23.6953L188.052 18.8906H188.994L187.974 20.6387L186.211 23.4658H190.151ZM189.263 18.8906V26H188.086V18.8906H189.263Z" fill="black" fill-opacity="0.5"/>
</g>
<path d="M16.6074 58.1406H18.5059C18.4746 58.7266 18.3145 59.2441 18.0254 59.6934C17.7402 60.1387 17.3438 60.4883 16.8359 60.7422C16.3281 60.9922 15.7246 61.1172 15.0254 61.1172C14.4668 61.1172 13.9668 61.0215 13.5254 60.8301C13.084 60.6387 12.709 60.3652 12.4004 60.0098C12.0957 59.6504 11.8613 59.2188 11.6973 58.7148C11.5371 58.207 11.457 57.6348 11.457 56.998V56.4766C11.457 55.8398 11.541 55.2676 11.709 54.7598C11.877 54.252 12.1172 53.8184 12.4297 53.459C12.7422 53.0996 13.1172 52.8242 13.5547 52.6328C13.9922 52.4414 14.4805 52.3457 15.0195 52.3457C15.7461 52.3457 16.3594 52.4766 16.8594 52.7383C17.3594 53 17.7461 53.3594 18.0195 53.8164C18.2969 54.2734 18.4629 54.7949 18.5176 55.3809H16.6133C16.5977 55.0488 16.5352 54.7695 16.4258 54.543C16.3164 54.3125 16.1484 54.1387 15.9219 54.0215C15.6953 53.9043 15.3945 53.8457 15.0195 53.8457C14.7461 53.8457 14.5059 53.8965 14.2988 53.998C14.0957 54.0996 13.9258 54.2578 13.7891 54.4727C13.6562 54.6875 13.5566 54.9609 13.4902 55.293C13.4238 55.6211 13.3906 56.0117 13.3906 56.4648V56.998C13.3906 57.4473 13.4199 57.8359 13.4785 58.1641C13.5371 58.4922 13.6309 58.7637 13.7598 58.9785C13.8926 59.1934 14.0625 59.3535 14.2695 59.459C14.4766 59.5645 14.7285 59.6172 15.0254 59.6172C15.3652 59.6172 15.6484 59.5645 15.875 59.459C16.1016 59.3496 16.2754 59.1855 16.3965 58.9668C16.5176 58.748 16.5879 58.4727 16.6074 58.1406ZM21.3066 56.1367V61H19.4785V54.6602H21.1953L21.3066 56.1367ZM23.1992 54.6133L23.1699 56.3184C23.0918 56.3066 22.9902 56.2969 22.8652 56.2891C22.7402 56.2773 22.6328 56.2715 22.543 56.2715C22.3086 56.2715 22.1055 56.3008 21.9336 56.3594C21.7656 56.4141 21.625 56.4961 21.5117 56.6055C21.4023 56.7148 21.3203 56.8516 21.2656 57.0156C21.2109 57.1758 21.1836 57.3613 21.1836 57.5723L20.8379 57.4023C20.8379 56.9844 20.8789 56.6016 20.9609 56.2539C21.043 55.9062 21.1621 55.6055 21.3184 55.3516C21.4746 55.0938 21.666 54.8945 21.8926 54.7539C22.1191 54.6133 22.377 54.543 22.666 54.543C22.7598 54.543 22.8555 54.5488 22.9531 54.5605C23.0508 54.5723 23.1328 54.5898 23.1992 54.6133ZM26.8203 61.1172C26.3164 61.1172 25.8652 61.0371 25.4668 60.877C25.0684 60.7168 24.7305 60.4961 24.4531 60.2148C24.1797 59.9297 23.9707 59.6016 23.8262 59.2305C23.6816 58.8594 23.6094 58.4629 23.6094 58.041V57.8184C23.6094 57.3457 23.6758 56.9102 23.8086 56.5117C23.9414 56.1133 24.1348 55.7676 24.3887 55.4746C24.6465 55.1777 24.9629 54.9492 25.3379 54.7891C25.7129 54.625 26.1406 54.543 26.6211 54.543C27.0703 54.543 27.4707 54.6172 27.8223 54.7656C28.1738 54.9102 28.4707 55.1191 28.7129 55.3926C28.9551 55.6621 29.1387 55.9883 29.2637 56.3711C29.3926 56.75 29.457 57.1758 29.457 57.6484V58.3984H24.3477V57.2207H27.6641V57.0801C27.6641 56.8574 27.623 56.6621 27.541 56.4941C27.4629 56.3262 27.3457 56.1973 27.1895 56.1074C27.0371 56.0137 26.8438 55.9668 26.6094 55.9668C26.3867 55.9668 26.2012 56.0137 26.0527 56.1074C25.9043 56.2012 25.7852 56.334 25.6953 56.5059C25.6094 56.6738 25.5469 56.8711 25.5078 57.0977C25.4688 57.3203 25.4492 57.5605 25.4492 57.8184V58.041C25.4492 58.2871 25.4824 58.5117 25.5488 58.7148C25.6152 58.918 25.7129 59.0918 25.8418 59.2363C25.9707 59.3809 26.127 59.4941 26.3105 59.5762C26.4941 59.6582 26.7031 59.6992 26.9375 59.6992C27.2266 59.6992 27.502 59.6445 27.7637 59.5352C28.0254 59.4219 28.252 59.2461 28.4434 59.0078L29.2988 59.9863C29.1699 60.1738 28.9883 60.3555 28.7539 60.5312C28.5234 60.7031 28.2461 60.8438 27.9219 60.9531C27.5977 61.0625 27.2305 61.1172 26.8203 61.1172ZM33.7051 59.4883V56.7695C33.7051 56.5781 33.6758 56.4141 33.6172 56.2773C33.5586 56.1406 33.4668 56.0332 33.3418 55.9551C33.2168 55.877 33.0547 55.8379 32.8555 55.8379C32.6875 55.8379 32.541 55.8672 32.416 55.9258C32.2949 55.9844 32.2012 56.0684 32.1348 56.1777C32.0723 56.2871 32.041 56.4219 32.041 56.582H30.2129C30.2129 56.2969 30.2773 56.0312 30.4062 55.7852C30.5352 55.5391 30.7188 55.3223 30.957 55.1348C31.1992 54.9473 31.4883 54.8027 31.8242 54.7012C32.1602 54.5957 32.5371 54.543 32.9551 54.543C33.4512 54.543 33.8926 54.627 34.2793 54.7949C34.6699 54.959 34.9785 55.207 35.2051 55.5391C35.4316 55.8672 35.5449 56.2812 35.5449 56.7812V59.4355C35.5449 59.8184 35.5664 60.1191 35.6094 60.3379C35.6562 60.5527 35.7227 60.7402 35.8086 60.9004V61H33.9629C33.877 60.8164 33.8125 60.5898 33.7695 60.3203C33.7266 60.0469 33.7051 59.7695 33.7051 59.4883ZM33.9336 57.1328L33.9453 58.1406H33.0371C32.834 58.1406 32.6582 58.166 32.5098 58.2168C32.3652 58.2676 32.248 58.3379 32.1582 58.4277C32.0684 58.5137 32.002 58.6152 31.959 58.7324C31.9199 58.8457 31.9004 58.9707 31.9004 59.1074C31.9004 59.2363 31.9316 59.3535 31.9941 59.459C32.0566 59.5605 32.1426 59.6406 32.252 59.6992C32.3613 59.7578 32.4883 59.7871 32.6328 59.7871C32.8711 59.7871 33.0742 59.7402 33.2422 59.6465C33.4141 59.5527 33.5469 59.4395 33.6406 59.3066C33.7344 59.1699 33.7812 59.043 33.7812 58.9258L34.2207 59.6875C34.1504 59.8438 34.0645 60.0059 33.9629 60.1738C33.8613 60.3379 33.7324 60.4922 33.5762 60.6367C33.4199 60.7773 33.2305 60.8926 33.0078 60.9824C32.7891 61.0723 32.5254 61.1172 32.2168 61.1172C31.8184 61.1172 31.457 61.0371 31.1328 60.877C30.8086 60.7129 30.5488 60.4883 30.3535 60.2031C30.1621 59.918 30.0664 59.5898 30.0664 59.2188C30.0664 58.8867 30.127 58.5918 30.248 58.334C30.3691 58.0762 30.5508 57.8574 30.793 57.6777C31.0391 57.498 31.3477 57.3633 31.7188 57.2734C32.0898 57.1797 32.5234 57.1328 33.0195 57.1328H33.9336ZM39.9688 54.6602V55.9434H36.207V54.6602H39.9688ZM37.0684 53.0898H38.9023V59.0137C38.9023 59.1895 38.9238 59.3242 38.9668 59.418C39.0098 59.5117 39.0801 59.5781 39.1777 59.6172C39.2754 59.6523 39.4004 59.6699 39.5527 59.6699C39.6621 59.6699 39.7559 59.666 39.834 59.6582C39.9121 59.6504 39.9844 59.6406 40.0508 59.6289V60.9531C39.8945 61.0039 39.7285 61.043 39.5527 61.0703C39.377 61.1016 39.1855 61.1172 38.9785 61.1172C38.584 61.1172 38.2422 61.0527 37.9531 60.9238C37.668 60.7949 37.4492 60.5918 37.2969 60.3145C37.1445 60.0332 37.0684 59.668 37.0684 59.2188V53.0898ZM43.8359 61.1172C43.332 61.1172 42.8809 61.0371 42.4824 60.877C42.084 60.7168 41.7461 60.4961 41.4688 60.2148C41.1953 59.9297 40.9863 59.6016 40.8418 59.2305C40.6973 58.8594 40.625 58.4629 40.625 58.041V57.8184C40.625 57.3457 40.6914 56.9102 40.8242 56.5117C40.957 56.1133 41.1504 55.7676 41.4043 55.4746C41.6621 55.1777 41.9785 54.9492 42.3535 54.7891C42.7285 54.625 43.1562 54.543 43.6367 54.543C44.0859 54.543 44.4863 54.6172 44.8379 54.7656C45.1895 54.9102 45.4863 55.1191 45.7285 55.3926C45.9707 55.6621 46.1543 55.9883 46.2793 56.3711C46.4082 56.75 46.4727 57.1758 46.4727 57.6484V58.3984H41.3633V57.2207H44.6797V57.0801C44.6797 56.8574 44.6387 56.6621 44.5566 56.4941C44.4785 56.3262 44.3613 56.1973 44.2051 56.1074C44.0527 56.0137 43.8594 55.9668 43.625 55.9668C43.4023 55.9668 43.2168 56.0137 43.0684 56.1074C42.9199 56.2012 42.8008 56.334 42.7109 56.5059C42.625 56.6738 42.5625 56.8711 42.5234 57.0977C42.4844 57.3203 42.4648 57.5605 42.4648 57.8184V58.041C42.4648 58.2871 42.498 58.5117 42.5645 58.7148C42.6309 58.918 42.7285 59.0918 42.8574 59.2363C42.9863 59.3809 43.1426 59.4941 43.3262 59.5762C43.5098 59.6582 43.7188 59.6992 43.9531 59.6992C44.2422 59.6992 44.5176 59.6445 44.7793 59.5352C45.041 59.4219 45.2676 59.2461 45.459 59.0078L46.3145 59.9863C46.1855 60.1738 46.0039 60.3555 45.7695 60.5312C45.5391 60.7031 45.2617 60.8438 44.9375 60.9531C44.6133 61.0625 44.2461 61.1172 43.8359 61.1172ZM53.709 59.4883V56.7695C53.709 56.5781 53.6797 56.4141 53.6211 56.2773C53.5625 56.1406 53.4707 56.0332 53.3457 55.9551C53.2207 55.877 53.0586 55.8379 52.8594 55.8379C52.6914 55.8379 52.5449 55.8672 52.4199 55.9258C52.2988 55.9844 52.2051 56.0684 52.1387 56.1777C52.0762 56.2871 52.0449 56.4219 52.0449 56.582H50.2168C50.2168 56.2969 50.2812 56.0312 50.4102 55.7852C50.5391 55.5391 50.7227 55.3223 50.9609 55.1348C51.2031 54.9473 51.4922 54.8027 51.8281 54.7012C52.1641 54.5957 52.541 54.543 52.959 54.543C53.4551 54.543 53.8965 54.627 54.2832 54.7949C54.6738 54.959 54.9824 55.207 55.209 55.5391C55.4355 55.8672 55.5488 56.2812 55.5488 56.7812V59.4355C55.5488 59.8184 55.5703 60.1191 55.6133 60.3379C55.6602 60.5527 55.7266 60.7402 55.8125 60.9004V61H53.9668C53.8809 60.8164 53.8164 60.5898 53.7734 60.3203C53.7305 60.0469 53.709 59.7695 53.709 59.4883ZM53.9375 57.1328L53.9492 58.1406H53.041C52.8379 58.1406 52.6621 58.166 52.5137 58.2168C52.3691 58.2676 52.252 58.3379 52.1621 58.4277C52.0723 58.5137 52.0059 58.6152 51.9629 58.7324C51.9238 58.8457 51.9043 58.9707 51.9043 59.1074C51.9043 59.2363 51.9355 59.3535 51.998 59.459C52.0605 59.5605 52.1465 59.6406 52.2559 59.6992C52.3652 59.7578 52.4922 59.7871 52.6367 59.7871C52.875 59.7871 53.0781 59.7402 53.2461 59.6465C53.418 59.5527 53.5508 59.4395 53.6445 59.3066C53.7383 59.1699 53.7852 59.043 53.7852 58.9258L54.2246 59.6875C54.1543 59.8438 54.0684 60.0059 53.9668 60.1738C53.8652 60.3379 53.7363 60.4922 53.5801 60.6367C53.4238 60.7773 53.2344 60.8926 53.0117 60.9824C52.793 61.0723 52.5293 61.1172 52.2207 61.1172C51.8223 61.1172 51.4609 61.0371 51.1367 60.877C50.8125 60.7129 50.5527 60.4883 50.3574 60.2031C50.166 59.918 50.0703 59.5898 50.0703 59.2188C50.0703 58.8867 50.1309 58.5918 50.252 58.334C50.373 58.0762 50.5547 57.8574 50.7969 57.6777C51.043 57.498 51.3516 57.3633 51.7227 57.2734C52.0938 57.1797 52.5273 57.1328 53.0234 57.1328H53.9375ZM58.584 55.8789V63.4375H56.7559V54.6602H58.4609L58.584 55.8789ZM62.5391 57.7598V57.8828C62.5391 58.3438 62.4863 58.7715 62.3809 59.166C62.2754 59.5566 62.1172 59.8984 61.9062 60.1914C61.6992 60.4844 61.4434 60.7129 61.1387 60.877C60.834 61.0371 60.4805 61.1172 60.0781 61.1172C59.6953 61.1172 59.3633 61.0371 59.082 60.877C58.8047 60.7129 58.5703 60.4863 58.3789 60.1973C58.1914 59.9043 58.0391 59.5703 57.9219 59.1953C57.8086 58.8164 57.7207 58.4121 57.6582 57.9824V57.7422C57.7207 57.2852 57.8105 56.8613 57.9277 56.4707C58.0449 56.0801 58.1973 55.7422 58.3848 55.457C58.5723 55.168 58.8047 54.9434 59.082 54.7832C59.3594 54.623 59.6895 54.543 60.0723 54.543C60.4707 54.543 60.8242 54.6191 61.1328 54.7715C61.4414 54.9238 61.6992 55.1426 61.9062 55.4277C62.1172 55.709 62.2754 56.0469 62.3809 56.4414C62.4863 56.8359 62.5391 57.2754 62.5391 57.7598ZM60.7051 57.8828V57.7598C60.7051 57.502 60.6855 57.2656 60.6465 57.0508C60.6074 56.832 60.5449 56.6426 60.459 56.4824C60.373 56.3184 60.2598 56.1914 60.1191 56.1016C59.9785 56.0117 59.8066 55.9668 59.6035 55.9668C59.3848 55.9668 59.1992 56.002 59.0469 56.0723C58.8945 56.1426 58.7715 56.2461 58.6777 56.3828C58.584 56.5156 58.5156 56.6797 58.4727 56.875C58.4336 57.0703 58.4121 57.293 58.4082 57.543V58.1875C58.4121 58.4805 58.4531 58.7422 58.5312 58.9727C58.6133 59.1992 58.7402 59.377 58.9121 59.5059C59.0879 59.6309 59.3223 59.6934 59.6152 59.6934C59.8223 59.6934 59.9941 59.6484 60.1309 59.5586C60.2715 59.4648 60.3828 59.334 60.4648 59.166C60.5508 58.998 60.6113 58.8047 60.6465 58.5859C60.6855 58.3672 60.7051 58.1328 60.7051 57.8828ZM65.3457 55.8789V63.4375H63.5176V54.6602H65.2227L65.3457 55.8789ZM69.3008 57.7598V57.8828C69.3008 58.3438 69.248 58.7715 69.1426 59.166C69.0371 59.5566 68.8789 59.8984 68.668 60.1914C68.4609 60.4844 68.2051 60.7129 67.9004 60.877C67.5957 61.0371 67.2422 61.1172 66.8398 61.1172C66.457 61.1172 66.125 61.0371 65.8438 60.877C65.5664 60.7129 65.332 60.4863 65.1406 60.1973C64.9531 59.9043 64.8008 59.5703 64.6836 59.1953C64.5703 58.8164 64.4824 58.4121 64.4199 57.9824V57.7422C64.4824 57.2852 64.5723 56.8613 64.6895 56.4707C64.8066 56.0801 64.959 55.7422 65.1465 55.457C65.334 55.168 65.5664 54.9434 65.8438 54.7832C66.1211 54.623 66.4512 54.543 66.834 54.543C67.2324 54.543 67.5859 54.6191 67.8945 54.7715C68.2031 54.9238 68.4609 55.1426 68.668 55.4277C68.8789 55.709 69.0371 56.0469 69.1426 56.4414C69.248 56.8359 69.3008 57.2754 69.3008 57.7598ZM67.4668 57.8828V57.7598C67.4668 57.502 67.4473 57.2656 67.4082 57.0508C67.3691 56.832 67.3066 56.6426 67.2207 56.4824C67.1348 56.3184 67.0215 56.1914 66.8809 56.1016C66.7402 56.0117 66.5684 55.9668 66.3652 55.9668C66.1465 55.9668 65.9609 56.002 65.8086 56.0723C65.6562 56.1426 65.5332 56.2461 65.4395 56.3828C65.3457 56.5156 65.2773 56.6797 65.2344 56.875C65.1953 57.0703 65.1738 57.293 65.1699 57.543V58.1875C65.1738 58.4805 65.2148 58.7422 65.293 58.9727C65.375 59.1992 65.502 59.377 65.6738 59.5059C65.8496 59.6309 66.084 59.6934 66.377 59.6934C66.584 59.6934 66.7559 59.6484 66.8926 59.5586C67.0332 59.4648 67.1445 59.334 67.2266 59.166C67.3125 58.998 67.373 58.8047 67.4082 58.5859C67.4473 58.3672 67.4668 58.1328 67.4668 57.8828Z" fill="#331436"/>
<path d="M31 93.5L21 103.5M21 93.5L31 103.5" stroke="#FF746A" stroke-width="4" stroke-linecap="round" stroke-linejoin="round"/>
<g clip-path="url(#clip2_6_28)">
<rect x="53" y="86" width="25" height="25" rx="12.5" fill="#801E8F"/>
<path d="M63.1416 94.3906V101.5H61.916V94.3906H63.1416ZM67.4434 94.3906V101.5H66.2275V94.3906H67.4434ZM69.6748 94.3906V95.3672H64.0156V94.3906H69.6748Z" fill="white"/>
<rect x="80" y="86" width="25" height="25" rx="12.5" fill="#2E4B83"/>
<path d="M90.3418 99.3662V94.3906H91.5625V99.3662C91.5625 99.8382 91.4616 100.24 91.2598 100.572C91.0579 100.904 90.7829 101.158 90.4346 101.334C90.0863 101.51 89.6908 101.598 89.248 101.598C88.7956 101.598 88.3936 101.521 88.042 101.368C87.6937 101.215 87.4202 100.981 87.2217 100.665C87.0231 100.349 86.9238 99.9489 86.9238 99.4639H88.1543C88.1543 99.7438 88.1982 99.9701 88.2861 100.143C88.3773 100.312 88.5042 100.436 88.667 100.514C88.833 100.589 89.0267 100.626 89.248 100.626C89.4596 100.626 89.6468 100.579 89.8096 100.484C89.9756 100.387 90.1058 100.245 90.2002 100.06C90.2946 99.8708 90.3418 99.6396 90.3418 99.3662ZM96.7139 99.6689C96.7139 99.5225 96.6911 99.3923 96.6455 99.2783C96.6032 99.1644 96.5267 99.0602 96.416 98.9658C96.3053 98.8714 96.1491 98.7803 95.9473 98.6924C95.7487 98.6012 95.4948 98.5085 95.1855 98.4141C94.847 98.3099 94.5345 98.1943 94.248 98.0674C93.9648 97.9372 93.7174 97.7874 93.5059 97.6182C93.2943 97.4456 93.1299 97.2487 93.0127 97.0273C92.8955 96.8027 92.8369 96.5439 92.8369 96.251C92.8369 95.9613 92.8971 95.6976 93.0176 95.46C93.1413 95.2223 93.3154 95.0173 93.54 94.8447C93.7679 94.6689 94.0365 94.5339 94.3457 94.4395C94.6549 94.3418 94.9967 94.293 95.3711 94.293C95.8984 94.293 96.3525 94.3906 96.7334 94.5859C97.1175 94.7812 97.4121 95.0433 97.6172 95.3721C97.8255 95.7008 97.9297 96.0638 97.9297 96.4609H96.7139C96.7139 96.2266 96.6634 96.0199 96.5625 95.8408C96.4648 95.6585 96.3151 95.5153 96.1133 95.4111C95.9147 95.307 95.6624 95.2549 95.3564 95.2549C95.0667 95.2549 94.8258 95.2988 94.6338 95.3867C94.4417 95.4746 94.2985 95.5934 94.2041 95.7432C94.1097 95.8929 94.0625 96.0622 94.0625 96.251C94.0625 96.3844 94.0934 96.5065 94.1553 96.6172C94.2171 96.7246 94.3115 96.8255 94.4385 96.9199C94.5654 97.0111 94.7249 97.0973 94.917 97.1787C95.109 97.2601 95.3353 97.3382 95.5957 97.4131C95.9896 97.5303 96.333 97.6605 96.626 97.8037C96.9189 97.9437 97.1631 98.1032 97.3584 98.2822C97.5537 98.4613 97.7002 98.6647 97.7979 98.8926C97.8955 99.1172 97.9443 99.3727 97.9443 99.6592C97.9443 99.9587 97.8841 100.229 97.7637 100.47C97.6432 100.707 97.4707 100.911 97.2461 101.08C97.0247 101.246 96.7578 101.375 96.4453 101.466C96.1361 101.554 95.791 101.598 95.4102 101.598C95.0684 101.598 94.7314 101.552 94.3994 101.461C94.0706 101.37 93.7712 101.231 93.501 101.046C93.2308 100.857 93.016 100.623 92.8564 100.343C92.6969 100.06 92.6172 99.7292 92.6172 99.3516H93.8428C93.8428 99.5827 93.8818 99.7796 93.96 99.9424C94.0413 100.105 94.1536 100.239 94.2969 100.343C94.4401 100.444 94.6061 100.519 94.7949 100.567C94.987 100.616 95.1921 100.641 95.4102 100.641C95.6966 100.641 95.9359 100.6 96.1279 100.519C96.3232 100.437 96.4697 100.323 96.5674 100.177C96.665 100.03 96.7139 99.861 96.7139 99.6689Z" fill="white"/>
<rect x="107" y="86" width="25" height="25" rx="12.5" fill="#D92B93"/>
<path d="M119.285 94.3906V101.5H118.06L114.871 96.4072V101.5H113.646V94.3906H114.871L118.069 99.4932V94.3906H119.285ZM124.485 99.6689C124.485 99.5225 124.463 99.3923 124.417 99.2783C124.375 99.1644 124.298 99.0602 124.188 98.9658C124.077 98.8714 123.921 98.7803 123.719 98.6924C123.52 98.6012 123.266 98.5085 122.957 98.4141C122.618 98.3099 122.306 98.1943 122.02 98.0674C121.736 97.9372 121.489 97.7874 121.277 97.6182C121.066 97.4456 120.901 97.2487 120.784 97.0273C120.667 96.8027 120.608 96.5439 120.608 96.251C120.608 95.9613 120.669 95.6976 120.789 95.46C120.913 95.2223 121.087 95.0173 121.312 94.8447C121.539 94.6689 121.808 94.5339 122.117 94.4395C122.426 94.3418 122.768 94.293 123.143 94.293C123.67 94.293 124.124 94.3906 124.505 94.5859C124.889 94.7812 125.184 95.0433 125.389 95.3721C125.597 95.7008 125.701 96.0638 125.701 96.4609H124.485C124.485 96.2266 124.435 96.0199 124.334 95.8408C124.236 95.6585 124.087 95.5153 123.885 95.4111C123.686 95.307 123.434 95.2549 123.128 95.2549C122.838 95.2549 122.597 95.2988 122.405 95.3867C122.213 95.4746 122.07 95.5934 121.976 95.7432C121.881 95.8929 121.834 96.0622 121.834 96.251C121.834 96.3844 121.865 96.5065 121.927 96.6172C121.989 96.7246 122.083 96.8255 122.21 96.9199C122.337 97.0111 122.496 97.0973 122.688 97.1787C122.881 97.2601 123.107 97.3382 123.367 97.4131C123.761 97.5303 124.104 97.6605 124.397 97.8037C124.69 97.9437 124.935 98.1032 125.13 98.2822C125.325 98.4613 125.472 98.6647 125.569 98.8926C125.667 99.1172 125.716 99.3727 125.716 99.6592C125.716 99.9587 125.656 100.229 125.535 100.47C125.415 100.707 125.242 100.911 125.018 101.08C124.796 101.246 124.529 101.375 124.217 101.466C123.908 101.554 123.562 101.598 123.182 101.598C122.84 101.598 122.503 101.552 122.171 101.461C121.842 101.37 121.543 101.231 121.272 101.046C121.002 100.857 120.787 100.623 120.628 100.343C120.468 100.06 120.389 99.7292 120.389 99.3516H121.614C121.614 99.5827 121.653 99.7796 121.731 99.9424C121.813 100.105 121.925 100.239 122.068 100.343C122.212 100.444 122.378 100.519 122.566 100.567C122.758 100.616 122.964 100.641 123.182 100.641C123.468 100.641 123.707 100.6 123.899 100.519C124.095 100.437 124.241 100.323 124.339 100.177C124.437 100.03 124.485 99.861 124.485 99.6689Z" fill="white"/>
<rect x="134" y="86" width="25" height="25" rx="12.5" fill="#1A712D"/>
<path d="M145.87 100.528V101.5H142.301V100.528H145.87ZM142.643 94.3906V101.5H141.417V94.3906H142.643ZM150.694 99.1855H151.915C151.876 99.651 151.746 100.066 151.524 100.431C151.303 100.792 150.992 101.077 150.592 101.285C150.191 101.493 149.705 101.598 149.132 101.598C148.692 101.598 148.297 101.52 147.945 101.363C147.594 101.204 147.293 100.979 147.042 100.689C146.791 100.396 146.599 100.043 146.466 99.6299C146.336 99.2165 146.271 98.7542 146.271 98.2432V97.6523C146.271 97.1413 146.337 96.679 146.471 96.2656C146.607 95.8522 146.803 95.499 147.057 95.2061C147.311 94.9098 147.615 94.6836 147.97 94.5273C148.328 94.3711 148.73 94.293 149.176 94.293C149.742 94.293 150.221 94.3971 150.611 94.6055C151.002 94.8138 151.305 95.1019 151.52 95.4697C151.738 95.8376 151.871 96.2591 151.92 96.7344H150.699C150.667 96.4284 150.595 96.1663 150.484 95.9482C150.377 95.7301 150.217 95.5641 150.006 95.4502C149.794 95.333 149.518 95.2744 149.176 95.2744C148.896 95.2744 148.652 95.3265 148.443 95.4307C148.235 95.5348 148.061 95.6878 147.921 95.8896C147.781 96.0915 147.675 96.3405 147.604 96.6367C147.535 96.9297 147.501 97.265 147.501 97.6426V98.2432C147.501 98.6012 147.532 98.9268 147.594 99.2197C147.659 99.5094 147.757 99.7585 147.887 99.9668C148.02 100.175 148.189 100.336 148.395 100.45C148.6 100.564 148.845 100.621 149.132 100.621C149.48 100.621 149.762 100.566 149.977 100.455C150.195 100.344 150.359 100.183 150.47 99.9717C150.584 99.7568 150.659 99.4948 150.694 99.1855Z" fill="white"/>
<rect x="161" y="86" width="25" height="25" rx="12.5" fill="#AF4A00"/>
<path d="M171.898 97.8672V100.582C171.798 100.715 171.64 100.862 171.425 101.021C171.213 101.178 170.932 101.313 170.58 101.427C170.229 101.541 169.791 101.598 169.267 101.598C168.821 101.598 168.412 101.523 168.041 101.373C167.67 101.22 167.349 100.997 167.079 100.704C166.812 100.411 166.605 100.055 166.459 99.6348C166.312 99.2116 166.239 98.7298 166.239 98.1895V97.6963C166.239 97.1592 166.306 96.6807 166.439 96.2607C166.576 95.8376 166.771 95.4795 167.025 95.1865C167.279 94.8936 167.585 94.6722 167.943 94.5225C168.305 94.3695 168.713 94.293 169.169 94.293C169.752 94.293 170.233 94.3906 170.614 94.5859C170.998 94.778 171.295 95.0449 171.503 95.3867C171.711 95.7285 171.843 96.1191 171.898 96.5586H170.697C170.658 96.3112 170.582 96.0898 170.468 95.8945C170.357 95.6992 170.198 95.5462 169.989 95.4355C169.784 95.3216 169.517 95.2646 169.188 95.2646C168.905 95.2646 168.656 95.3184 168.441 95.4258C168.227 95.5332 168.048 95.6911 167.904 95.8994C167.764 96.1077 167.659 96.3617 167.587 96.6611C167.515 96.9606 167.479 97.3024 167.479 97.6865V98.1895C167.479 98.5801 167.52 98.9268 167.602 99.2295C167.686 99.5322 167.807 99.7878 167.963 99.9961C168.122 100.204 168.316 100.362 168.544 100.47C168.772 100.574 169.029 100.626 169.315 100.626C169.595 100.626 169.825 100.603 170.004 100.558C170.183 100.509 170.325 100.452 170.429 100.387C170.536 100.318 170.619 100.253 170.678 100.191V98.7803H169.198V97.8672H171.898ZM173.754 94.3906H174.848L176.903 99.874L178.954 94.3906H180.048L177.333 101.5H176.464L173.754 94.3906ZM173.256 94.3906H174.296L174.477 99.1367V101.5H173.256V94.3906ZM179.506 94.3906H180.551V101.5H179.325V99.1367L179.506 94.3906Z" fill="white"/>
</g>
<defs>
<clipPath id="clip0_6_28">
<rect width="180" height="24" fill="white" transform="translate(11 11)"/>
</clipPath>
<clipPath id="clip1_6_28">
<rect x="11" y="15.5" width="30" height="15" rx="7.5" fill="white"/>
</clipPath>
<clipPath id="clip2_6_28">
<rect width="133" height="25" fill="white" transform="translate(53 86)"/>
</clipPath>
</defs>
</svg>
